<?xml version="1.0" encoding="utf-8" standalone="no"?>
<!DOCTYPE svg PUBLIC "-//W3C//DTD SVG 1.1//EN"
  "http://www.w3.org/Graphics/SVG/1.1/DTD/svg11.dtd">
<!-- Created with matplotlib (https://matplotlib.org/) -->
<svg height="707.76pt" version="1.1" viewBox="0 0 1382.4 707.76" width="1382.4pt" xmlns="http://www.w3.org/2000/svg" xmlns:xlink="http://www.w3.org/1999/xlink">
 <defs>
  <style type="text/css">
*{stroke-linecap:butt;stroke-linejoin:round;}
  </style>
 </defs>
 <g id="figure_1">
  <g id="patch_1">
   <path d="M 0 707.76 
L 1382.4 707.76 
L 1382.4 0 
L 0 0 
z
" style="fill:#ffffff;"/>
  </g>
  <g id="axes_1">
   <g id="patch_2">
    <path d="M 172.8 629.9064 
L 1244.16 629.9064 
L 1244.16 84.9312 
L 172.8 84.9312 
z
" style="fill:#ffffff;"/>
   </g>
   <g id="PolyCollection_1">
    <path clip-path="url(#p4ab849ccbb)" d="M 221.498182 144.048095 
L 221.498182 144.048095 
L 231.336198 269.871204 
L 241.174215 422.779619 
L 251.012231 516.47914 
L 260.850248 552.277574 
L 270.688264 553.443559 
L 280.526281 559.438065 
L 290.364298 562.083608 
L 300.202314 564.421989 
L 310.040331 567.392987 
L 319.878347 570.331009 
L 329.716364 571.019958 
L 339.55438 572.463212 
L 349.392397 572.157667 
L 359.230413 572.084904 
L 369.06843 572.360756 
L 378.906446 572.347266 
L 388.744463 572.244634 
L 398.582479 572.282448 
L 408.420496 572.14625 
L 418.258512 572.16244 
L 428.096529 572.186751 
L 437.934545 572.21131 
L 447.772562 572.231786 
L 457.610579 572.235012 
L 467.448595 572.237705 
L 477.286612 572.254282 
L 487.124628 572.227007 
L 496.962645 572.227932 
L 506.800661 572.226981 
L 516.638678 572.232399 
L 526.476694 572.2252 
L 536.314711 572.225591 
L 546.152727 572.225759 
L 555.990744 572.225408 
L 565.82876 572.221785 
L 575.666777 572.22118 
L 585.504793 572.221074 
L 595.34281 572.221216 
L 605.180826 572.220462 
L 615.018843 572.218732 
L 624.85686 572.2188 
L 634.694876 572.218782 
L 644.532893 572.218846 
L 654.370909 572.218885 
L 664.208926 572.218868 
L 674.046942 572.218838 
L 683.884959 572.218854 
L 693.722975 572.218855 
L 703.560992 572.218791 
L 713.399008 572.218761 
L 723.237025 572.218758 
L 733.075041 572.21873 
L 742.913058 572.218727 
L 752.751074 572.218739 
L 762.589091 572.218734 
L 772.427107 572.218733 
L 782.265124 572.218756 
L 792.10314 572.218758 
L 801.941157 572.218764 
L 811.779174 572.218765 
L 821.61719 572.218764 
L 831.455207 572.218764 
L 841.293223 572.218764 
L 851.13124 572.218763 
L 860.969256 572.218763 
L 870.807273 572.218756 
L 880.645289 572.218754 
L 890.483306 572.218753 
L 900.321322 572.218752 
L 910.159339 572.218752 
L 919.997355 572.218751 
L 929.835372 572.218751 
L 939.673388 572.218751 
L 949.511405 572.218751 
L 959.349421 572.218751 
L 969.187438 572.218751 
L 979.025455 572.218751 
L 988.863471 572.218751 
L 998.701488 572.218751 
L 1008.539504 572.218751 
L 1018.377521 572.218751 
L 1028.215537 572.218751 
L 1038.053554 572.218751 
L 1047.89157 572.218751 
L 1057.729587 572.218751 
L 1067.567603 572.218751 
L 1077.40562 572.218751 
L 1087.243636 572.218751 
L 1097.081653 572.218751 
L 1106.919669 572.218751 
L 1116.757686 572.218751 
L 1126.595702 572.218751 
L 1136.433719 572.218751 
L 1146.271736 572.218751 
L 1156.109752 572.218751 
L 1165.947769 572.218751 
L 1175.785785 572.218751 
L 1185.623802 572.218751 
L 1195.461818 572.218751 
L 1195.461818 572.218751 
L 1195.461818 572.218751 
L 1185.623802 572.218751 
L 1175.785785 572.218751 
L 1165.947769 572.218751 
L 1156.109752 572.218751 
L 1146.271736 572.218751 
L 1136.433719 572.218751 
L 1126.595702 572.218751 
L 1116.757686 572.218751 
L 1106.919669 572.218751 
L 1097.081653 572.218751 
L 1087.243636 572.218751 
L 1077.40562 572.218751 
L 1067.567603 572.218751 
L 1057.729587 572.218751 
L 1047.89157 572.218751 
L 1038.053554 572.218751 
L 1028.215537 572.218751 
L 1018.377521 572.218751 
L 1008.539504 572.218751 
L 998.701488 572.218751 
L 988.863471 572.218751 
L 979.025455 572.218751 
L 969.187438 572.21875 
L 959.349421 572.21875 
L 949.511405 572.21875 
L 939.673388 572.21875 
L 929.835372 572.218749 
L 919.997355 572.218749 
L 910.159339 572.218746 
L 900.321322 572.218744 
L 890.483306 572.218739 
L 880.645289 572.218736 
L 870.807273 572.218727 
L 860.969256 572.218705 
L 851.13124 572.218701 
L 841.293223 572.218697 
L 831.455207 572.218691 
L 821.61719 572.218687 
L 811.779174 572.218681 
L 801.941157 572.218679 
L 792.10314 572.218667 
L 782.265124 572.218663 
L 772.427107 572.218638 
L 762.589091 572.218613 
L 752.751074 572.218562 
L 742.913058 572.218476 
L 733.075041 572.218442 
L 723.237025 572.21836 
L 713.399008 572.218293 
L 703.560992 572.218069 
L 693.722975 572.217718 
L 683.884959 572.217703 
L 674.046942 572.217699 
L 664.208926 572.21757 
L 654.370909 572.217494 
L 644.532893 572.2174 
L 634.694876 572.217274 
L 624.85686 572.217214 
L 615.018843 572.217206 
L 605.180826 572.213067 
L 595.34281 572.2108 
L 585.504793 572.210676 
L 575.666777 572.20994 
L 565.82876 572.207047 
L 555.990744 572.199601 
L 546.152727 572.195903 
L 536.314711 572.195812 
L 526.476694 572.194185 
L 516.638678 572.177395 
L 506.800661 572.161996 
L 496.962645 572.144952 
L 487.124628 572.128416 
L 477.286612 572.02291 
L 467.448595 572.014118 
L 457.610579 572.013534 
L 447.772562 572.009193 
L 437.934545 571.985308 
L 428.096529 571.916078 
L 418.258512 571.901939 
L 408.420496 571.831851 
L 398.582479 571.47459 
L 388.744463 571.454144 
L 378.906446 570.885115 
L 369.06843 569.560105 
L 359.230413 569.193997 
L 349.392397 568.81148 
L 339.55438 567.523298 
L 329.716364 563.777563 
L 319.878347 561.73912 
L 310.040331 555.603813 
L 300.202314 550.879238 
L 290.364298 534.212592 
L 280.526281 527.529935 
L 270.688264 504.883702 
L 260.850248 485.926574 
L 251.012231 442.662571 
L 241.174215 351.535352 
L 231.336198 233.899301 
L 221.498182 144.048095 
z
" style="fill:#1f77b4;fill-opacity:0.2;"/>
   </g>
   <g id="PolyCollection_2">
    <path clip-path="url(#p4ab849ccbb)" d="M 221.498182 109.7028 
L 221.498182 109.7028 
L 231.336198 279.549505 
L 241.174215 494.178561 
L 251.012231 605.1348 
L 260.850248 595.463009 
L 270.688264 593.526015 
L 280.526281 590.451156 
L 290.364298 590.891678 
L 300.202314 592.071559 
L 310.040331 592.091829 
L 319.878347 592.644988 
L 329.716364 592.387017 
L 339.55438 592.55886 
L 349.392397 592.647777 
L 359.230413 592.650012 
L 369.06843 592.656204 
L 378.906446 592.664647 
L 388.744463 592.649615 
L 398.582479 592.648132 
L 408.420496 592.648417 
L 418.258512 592.648685 
L 428.096529 592.64927 
L 437.934545 592.648659 
L 447.772562 592.648718 
L 457.610579 592.648605 
L 467.448595 592.648604 
L 477.286612 592.648627 
L 487.124628 592.648615 
L 496.962645 592.648624 
L 506.800661 592.64863 
L 516.638678 592.648625 
L 526.476694 592.648625 
L 536.314711 592.648624 
L 546.152727 592.648624 
L 555.990744 592.648624 
L 565.82876 592.648624 
L 575.666777 592.648624 
L 585.504793 592.648624 
L 595.34281 592.648624 
L 605.180826 592.648624 
L 615.018843 592.648624 
L 624.85686 592.648624 
L 634.694876 592.648624 
L 644.532893 592.648624 
L 654.370909 592.648624 
L 664.208926 592.648624 
L 674.046942 592.648624 
L 683.884959 592.648624 
L 693.722975 592.648624 
L 703.560992 592.648624 
L 713.399008 592.648624 
L 723.237025 592.648624 
L 733.075041 592.648624 
L 742.913058 592.648624 
L 752.751074 592.648624 
L 762.589091 592.648624 
L 772.427107 592.648624 
L 782.265124 592.648624 
L 792.10314 592.648624 
L 801.941157 592.648624 
L 811.779174 592.648624 
L 821.61719 592.648624 
L 831.455207 592.648624 
L 841.293223 592.648624 
L 851.13124 592.648624 
L 860.969256 592.648624 
L 870.807273 592.648624 
L 880.645289 592.648624 
L 890.483306 592.648624 
L 900.321322 592.648624 
L 910.159339 592.648624 
L 919.997355 592.648624 
L 929.835372 592.648624 
L 939.673388 592.648624 
L 949.511405 592.648624 
L 959.349421 592.648624 
L 969.187438 592.648624 
L 979.025455 592.648624 
L 988.863471 592.648624 
L 998.701488 592.648624 
L 1008.539504 592.648624 
L 1018.377521 592.648624 
L 1028.215537 592.648624 
L 1038.053554 592.648624 
L 1047.89157 592.648624 
L 1057.729587 592.648624 
L 1067.567603 592.648624 
L 1077.40562 592.648624 
L 1087.243636 592.648624 
L 1097.081653 592.648624 
L 1106.919669 592.648624 
L 1116.757686 592.648624 
L 1126.595702 592.648624 
L 1136.433719 592.648624 
L 1146.271736 592.648624 
L 1156.109752 592.648624 
L 1165.947769 592.648624 
L 1175.785785 592.648624 
L 1185.623802 592.648624 
L 1195.461818 592.648624 
L 1195.461818 592.648624 
L 1195.461818 592.648624 
L 1185.623802 592.648624 
L 1175.785785 592.648624 
L 1165.947769 592.648624 
L 1156.109752 592.648624 
L 1146.271736 592.648624 
L 1136.433719 592.648624 
L 1126.595702 592.648624 
L 1116.757686 592.648624 
L 1106.919669 592.648624 
L 1097.081653 592.648624 
L 1087.243636 592.648624 
L 1077.40562 592.648624 
L 1067.567603 592.648624 
L 1057.729587 592.648624 
L 1047.89157 592.648624 
L 1038.053554 592.648624 
L 1028.215537 592.648624 
L 1018.377521 592.648624 
L 1008.539504 592.648624 
L 998.701488 592.648624 
L 988.863471 592.648624 
L 979.025455 592.648624 
L 969.187438 592.648624 
L 959.349421 592.648624 
L 949.511405 592.648624 
L 939.673388 592.648624 
L 929.835372 592.648624 
L 919.997355 592.648624 
L 910.159339 592.648624 
L 900.321322 592.648624 
L 890.483306 592.648624 
L 880.645289 592.648624 
L 870.807273 592.648624 
L 860.969256 592.648624 
L 851.13124 592.648624 
L 841.293223 592.648624 
L 831.455207 592.648624 
L 821.61719 592.648624 
L 811.779174 592.648624 
L 801.941157 592.648624 
L 792.10314 592.648624 
L 782.265124 592.648624 
L 772.427107 592.648624 
L 762.589091 592.648624 
L 752.751074 592.648624 
L 742.913058 592.648624 
L 733.075041 592.648624 
L 723.237025 592.648624 
L 713.399008 592.648624 
L 703.560992 592.648624 
L 693.722975 592.648624 
L 683.884959 592.648624 
L 674.046942 592.648624 
L 664.208926 592.648624 
L 654.370909 592.648624 
L 644.532893 592.648624 
L 634.694876 592.648624 
L 624.85686 592.648624 
L 615.018843 592.648624 
L 605.180826 592.648624 
L 595.34281 592.648624 
L 585.504793 592.648624 
L 575.666777 592.648624 
L 565.82876 592.648623 
L 555.990744 592.648623 
L 546.152727 592.648621 
L 536.314711 592.648619 
L 526.476694 592.648615 
L 516.638678 592.648611 
L 506.800661 592.648593 
L 496.962645 592.648588 
L 487.124628 592.648582 
L 477.286612 592.648504 
L 467.448595 592.648398 
L 457.610579 592.648255 
L 447.772562 592.647666 
L 437.934545 592.647101 
L 428.096529 592.645093 
L 418.258512 592.644749 
L 408.420496 592.643385 
L 398.582479 592.639842 
L 388.744463 592.623009 
L 378.906446 592.560991 
L 369.06843 592.556481 
L 359.230413 592.517229 
L 349.392397 592.387467 
L 339.55438 592.11531 
L 329.716364 591.72814 
L 319.878347 590.413824 
L 310.040331 589.552157 
L 300.202314 588.320595 
L 290.364298 584.33979 
L 280.526281 583.671723 
L 270.688264 561.952006 
L 260.850248 553.323468 
L 251.012231 520.408032 
L 241.174215 368.242842 
L 231.336198 249.847029 
L 221.498182 109.7028 
z
" style="fill:#ff7f0e;fill-opacity:0.2;"/>
   </g>
   <g id="matplotlib.axis_1">
    <g id="xtick_1">
     <g id="line2d_1">
      <path clip-path="url(#p4ab849ccbb)" d="M 221.498182 629.9064 
L 221.498182 84.9312 
" style="fill:none;stroke:#b0b0b0;stroke-linecap:square;stroke-width:0.8;"/>
     </g>
     <g id="line2d_2">
      <defs>
       <path d="M 0 0 
L 0 3.5 
" id="m9ed164119d" style="stroke:#000000;stroke-width:0.8;"/>
      </defs>
      <g>
       <use style="stroke:#000000;stroke-width:0.8;" x="221.498182" xlink:href="#m9ed164119d" y="629.9064"/>
      </g>
     </g>
     <g id="text_1">
      <!-- 0 -->
      <defs>
       <path d="M 31.78125 66.40625 
Q 24.171875 66.40625 20.328125 58.90625 
Q 16.5 51.421875 16.5 36.375 
Q 16.5 21.390625 20.328125 13.890625 
Q 24.171875 6.390625 31.78125 6.390625 
Q 39.453125 6.390625 43.28125 13.890625 
Q 47.125 21.390625 47.125 36.375 
Q 47.125 51.421875 43.28125 58.90625 
Q 39.453125 66.40625 31.78125 66.40625 
z
M 31.78125 74.21875 
Q 44.046875 74.21875 50.515625 64.515625 
Q 56.984375 54.828125 56.984375 36.375 
Q 56.984375 17.96875 50.515625 8.265625 
Q 44.046875 -1.421875 31.78125 -1.421875 
Q 19.53125 -1.421875 13.0625 8.265625 
Q 6.59375 17.96875 6.59375 36.375 
Q 6.59375 54.828125 13.0625 64.515625 
Q 19.53125 74.21875 31.78125 74.21875 
z
" id="DejaVuSans-48"/>
      </defs>
      <g transform="translate(218.316932 644.504838)scale(0.1 -0.1)">
       <use xlink:href="#DejaVuSans-48"/>
      </g>
     </g>
    </g>
    <g id="xtick_2">
     <g id="line2d_3">
      <path clip-path="url(#p4ab849ccbb)" d="M 418.258512 629.9064 
L 418.258512 84.9312 
" style="fill:none;stroke:#b0b0b0;stroke-linecap:square;stroke-width:0.8;"/>
     </g>
     <g id="line2d_4">
      <g>
       <use style="stroke:#000000;stroke-width:0.8;" x="418.258512" xlink:href="#m9ed164119d" y="629.9064"/>
      </g>
     </g>
     <g id="text_2">
      <!-- 20 -->
      <defs>
       <path d="M 19.1875 8.296875 
L 53.609375 8.296875 
L 53.609375 0 
L 7.328125 0 
L 7.328125 8.296875 
Q 12.9375 14.109375 22.625 23.890625 
Q 32.328125 33.6875 34.8125 36.53125 
Q 39.546875 41.84375 41.421875 45.53125 
Q 43.3125 49.21875 43.3125 52.78125 
Q 43.3125 58.59375 39.234375 62.25 
Q 35.15625 65.921875 28.609375 65.921875 
Q 23.96875 65.921875 18.8125 64.3125 
Q 13.671875 62.703125 7.8125 59.421875 
L 7.8125 69.390625 
Q 13.765625 71.78125 18.9375 73 
Q 24.125 74.21875 28.421875 74.21875 
Q 39.75 74.21875 46.484375 68.546875 
Q 53.21875 62.890625 53.21875 53.421875 
Q 53.21875 48.921875 51.53125 44.890625 
Q 49.859375 40.875 45.40625 35.40625 
Q 44.1875 33.984375 37.640625 27.21875 
Q 31.109375 20.453125 19.1875 8.296875 
z
" id="DejaVuSans-50"/>
      </defs>
      <g transform="translate(411.896012 644.504838)scale(0.1 -0.1)">
       <use xlink:href="#DejaVuSans-50"/>
       <use x="63.623047" xlink:href="#DejaVuSans-48"/>
      </g>
     </g>
    </g>
    <g id="xtick_3">
     <g id="line2d_5">
      <path clip-path="url(#p4ab849ccbb)" d="M 615.018843 629.9064 
L 615.018843 84.9312 
" style="fill:none;stroke:#b0b0b0;stroke-linecap:square;stroke-width:0.8;"/>
     </g>
     <g id="line2d_6">
      <g>
       <use style="stroke:#000000;stroke-width:0.8;" x="615.018843" xlink:href="#m9ed164119d" y="629.9064"/>
      </g>
     </g>
     <g id="text_3">
      <!-- 40 -->
      <defs>
       <path d="M 37.796875 64.3125 
L 12.890625 25.390625 
L 37.796875 25.390625 
z
M 35.203125 72.90625 
L 47.609375 72.90625 
L 47.609375 25.390625 
L 58.015625 25.390625 
L 58.015625 17.1875 
L 47.609375 17.1875 
L 47.609375 0 
L 37.796875 0 
L 37.796875 17.1875 
L 4.890625 17.1875 
L 4.890625 26.703125 
z
" id="DejaVuSans-52"/>
      </defs>
      <g transform="translate(608.656343 644.504838)scale(0.1 -0.1)">
       <use xlink:href="#DejaVuSans-52"/>
       <use x="63.623047" xlink:href="#DejaVuSans-48"/>
      </g>
     </g>
    </g>
    <g id="xtick_4">
     <g id="line2d_7">
      <path clip-path="url(#p4ab849ccbb)" d="M 811.779174 629.9064 
L 811.779174 84.9312 
" style="fill:none;stroke:#b0b0b0;stroke-linecap:square;stroke-width:0.8;"/>
     </g>
     <g id="line2d_8">
      <g>
       <use style="stroke:#000000;stroke-width:0.8;" x="811.779174" xlink:href="#m9ed164119d" y="629.9064"/>
      </g>
     </g>
     <g id="text_4">
      <!-- 60 -->
      <defs>
       <path d="M 33.015625 40.375 
Q 26.375 40.375 22.484375 35.828125 
Q 18.609375 31.296875 18.609375 23.390625 
Q 18.609375 15.53125 22.484375 10.953125 
Q 26.375 6.390625 33.015625 6.390625 
Q 39.65625 6.390625 43.53125 10.953125 
Q 47.40625 15.53125 47.40625 23.390625 
Q 47.40625 31.296875 43.53125 35.828125 
Q 39.65625 40.375 33.015625 40.375 
z
M 52.59375 71.296875 
L 52.59375 62.3125 
Q 48.875 64.0625 45.09375 64.984375 
Q 41.3125 65.921875 37.59375 65.921875 
Q 27.828125 65.921875 22.671875 59.328125 
Q 17.53125 52.734375 16.796875 39.40625 
Q 19.671875 43.65625 24.015625 45.921875 
Q 28.375 48.1875 33.59375 48.1875 
Q 44.578125 48.1875 50.953125 41.515625 
Q 57.328125 34.859375 57.328125 23.390625 
Q 57.328125 12.15625 50.6875 5.359375 
Q 44.046875 -1.421875 33.015625 -1.421875 
Q 20.359375 -1.421875 13.671875 8.265625 
Q 6.984375 17.96875 6.984375 36.375 
Q 6.984375 53.65625 15.1875 63.9375 
Q 23.390625 74.21875 37.203125 74.21875 
Q 40.921875 74.21875 44.703125 73.484375 
Q 48.484375 72.75 52.59375 71.296875 
z
" id="DejaVuSans-54"/>
      </defs>
      <g transform="translate(805.416674 644.504838)scale(0.1 -0.1)">
       <use xlink:href="#DejaVuSans-54"/>
       <use x="63.623047" xlink:href="#DejaVuSans-48"/>
      </g>
     </g>
    </g>
    <g id="xtick_5">
     <g id="line2d_9">
      <path clip-path="url(#p4ab849ccbb)" d="M 1008.539504 629.9064 
L 1008.539504 84.9312 
" style="fill:none;stroke:#b0b0b0;stroke-linecap:square;stroke-width:0.8;"/>
     </g>
     <g id="line2d_10">
      <g>
       <use style="stroke:#000000;stroke-width:0.8;" x="1008.539504" xlink:href="#m9ed164119d" y="629.9064"/>
      </g>
     </g>
     <g id="text_5">
      <!-- 80 -->
      <defs>
       <path d="M 31.78125 34.625 
Q 24.75 34.625 20.71875 30.859375 
Q 16.703125 27.09375 16.703125 20.515625 
Q 16.703125 13.921875 20.71875 10.15625 
Q 24.75 6.390625 31.78125 6.390625 
Q 38.8125 6.390625 42.859375 10.171875 
Q 46.921875 13.96875 46.921875 20.515625 
Q 46.921875 27.09375 42.890625 30.859375 
Q 38.875 34.625 31.78125 34.625 
z
M 21.921875 38.8125 
Q 15.578125 40.375 12.03125 44.71875 
Q 8.5 49.078125 8.5 55.328125 
Q 8.5 64.0625 14.71875 69.140625 
Q 20.953125 74.21875 31.78125 74.21875 
Q 42.671875 74.21875 48.875 69.140625 
Q 55.078125 64.0625 55.078125 55.328125 
Q 55.078125 49.078125 51.53125 44.71875 
Q 48 40.375 41.703125 38.8125 
Q 48.828125 37.15625 52.796875 32.3125 
Q 56.78125 27.484375 56.78125 20.515625 
Q 56.78125 9.90625 50.3125 4.234375 
Q 43.84375 -1.421875 31.78125 -1.421875 
Q 19.734375 -1.421875 13.25 4.234375 
Q 6.78125 9.90625 6.78125 20.515625 
Q 6.78125 27.484375 10.78125 32.3125 
Q 14.796875 37.15625 21.921875 38.8125 
z
M 18.3125 54.390625 
Q 18.3125 48.734375 21.84375 45.5625 
Q 25.390625 42.390625 31.78125 42.390625 
Q 38.140625 42.390625 41.71875 45.5625 
Q 45.3125 48.734375 45.3125 54.390625 
Q 45.3125 60.0625 41.71875 63.234375 
Q 38.140625 66.40625 31.78125 66.40625 
Q 25.390625 66.40625 21.84375 63.234375 
Q 18.3125 60.0625 18.3125 54.390625 
z
" id="DejaVuSans-56"/>
      </defs>
      <g transform="translate(1002.177004 644.504838)scale(0.1 -0.1)">
       <use xlink:href="#DejaVuSans-56"/>
       <use x="63.623047" xlink:href="#DejaVuSans-48"/>
      </g>
     </g>
    </g>
    <g id="xtick_6">
     <g id="line2d_11">
      <path clip-path="url(#p4ab849ccbb)" d="M 1205.299835 629.9064 
L 1205.299835 84.9312 
" style="fill:none;stroke:#b0b0b0;stroke-linecap:square;stroke-width:0.8;"/>
     </g>
     <g id="line2d_12">
      <g>
       <use style="stroke:#000000;stroke-width:0.8;" x="1205.299835" xlink:href="#m9ed164119d" y="629.9064"/>
      </g>
     </g>
     <g id="text_6">
      <!-- 100 -->
      <defs>
       <path d="M 12.40625 8.296875 
L 28.515625 8.296875 
L 28.515625 63.921875 
L 10.984375 60.40625 
L 10.984375 69.390625 
L 28.421875 72.90625 
L 38.28125 72.90625 
L 38.28125 8.296875 
L 54.390625 8.296875 
L 54.390625 0 
L 12.40625 0 
z
" id="DejaVuSans-49"/>
      </defs>
      <g transform="translate(1195.756085 644.504838)scale(0.1 -0.1)">
       <use xlink:href="#DejaVuSans-49"/>
       <use x="63.623047" xlink:href="#DejaVuSans-48"/>
       <use x="127.246094" xlink:href="#DejaVuSans-48"/>
      </g>
     </g>
    </g>
    <g id="xtick_7">
     <g id="line2d_13">
      <path clip-path="url(#p4ab849ccbb)" d="M 270.688264 629.9064 
L 270.688264 84.9312 
" style="fill:none;stroke:#b0b0b0;stroke-linecap:square;stroke-width:0.8;"/>
     </g>
     <g id="line2d_14">
      <defs>
       <path d="M 0 0 
L 0 2 
" id="m12fcd9a10d" style="stroke:#000000;stroke-width:0.6;"/>
      </defs>
      <g>
       <use style="stroke:#000000;stroke-width:0.6;" x="270.688264" xlink:href="#m12fcd9a10d" y="629.9064"/>
      </g>
     </g>
    </g>
    <g id="xtick_8">
     <g id="line2d_15">
      <path clip-path="url(#p4ab849ccbb)" d="M 319.878347 629.9064 
L 319.878347 84.9312 
" style="fill:none;stroke:#b0b0b0;stroke-linecap:square;stroke-width:0.8;"/>
     </g>
     <g id="line2d_16">
      <g>
       <use style="stroke:#000000;stroke-width:0.6;" x="319.878347" xlink:href="#m12fcd9a10d" y="629.9064"/>
      </g>
     </g>
    </g>
    <g id="xtick_9">
     <g id="line2d_17">
      <path clip-path="url(#p4ab849ccbb)" d="M 369.06843 629.9064 
L 369.06843 84.9312 
" style="fill:none;stroke:#b0b0b0;stroke-linecap:square;stroke-width:0.8;"/>
     </g>
     <g id="line2d_18">
      <g>
       <use style="stroke:#000000;stroke-width:0.6;" x="369.06843" xlink:href="#m12fcd9a10d" y="629.9064"/>
      </g>
     </g>
    </g>
    <g id="xtick_10">
     <g id="line2d_19">
      <path clip-path="url(#p4ab849ccbb)" d="M 467.448595 629.9064 
L 467.448595 84.9312 
" style="fill:none;stroke:#b0b0b0;stroke-linecap:square;stroke-width:0.8;"/>
     </g>
     <g id="line2d_20">
      <g>
       <use style="stroke:#000000;stroke-width:0.6;" x="467.448595" xlink:href="#m12fcd9a10d" y="629.9064"/>
      </g>
     </g>
    </g>
    <g id="xtick_11">
     <g id="line2d_21">
      <path clip-path="url(#p4ab849ccbb)" d="M 516.638678 629.9064 
L 516.638678 84.9312 
" style="fill:none;stroke:#b0b0b0;stroke-linecap:square;stroke-width:0.8;"/>
     </g>
     <g id="line2d_22">
      <g>
       <use style="stroke:#000000;stroke-width:0.6;" x="516.638678" xlink:href="#m12fcd9a10d" y="629.9064"/>
      </g>
     </g>
    </g>
    <g id="xtick_12">
     <g id="line2d_23">
      <path clip-path="url(#p4ab849ccbb)" d="M 565.82876 629.9064 
L 565.82876 84.9312 
" style="fill:none;stroke:#b0b0b0;stroke-linecap:square;stroke-width:0.8;"/>
     </g>
     <g id="line2d_24">
      <g>
       <use style="stroke:#000000;stroke-width:0.6;" x="565.82876" xlink:href="#m12fcd9a10d" y="629.9064"/>
      </g>
     </g>
    </g>
    <g id="xtick_13">
     <g id="line2d_25">
      <path clip-path="url(#p4ab849ccbb)" d="M 664.208926 629.9064 
L 664.208926 84.9312 
" style="fill:none;stroke:#b0b0b0;stroke-linecap:square;stroke-width:0.8;"/>
     </g>
     <g id="line2d_26">
      <g>
       <use style="stroke:#000000;stroke-width:0.6;" x="664.208926" xlink:href="#m12fcd9a10d" y="629.9064"/>
      </g>
     </g>
    </g>
    <g id="xtick_14">
     <g id="line2d_27">
      <path clip-path="url(#p4ab849ccbb)" d="M 713.399008 629.9064 
L 713.399008 84.9312 
" style="fill:none;stroke:#b0b0b0;stroke-linecap:square;stroke-width:0.8;"/>
     </g>
     <g id="line2d_28">
      <g>
       <use style="stroke:#000000;stroke-width:0.6;" x="713.399008" xlink:href="#m12fcd9a10d" y="629.9064"/>
      </g>
     </g>
    </g>
    <g id="xtick_15">
     <g id="line2d_29">
      <path clip-path="url(#p4ab849ccbb)" d="M 762.589091 629.9064 
L 762.589091 84.9312 
" style="fill:none;stroke:#b0b0b0;stroke-linecap:square;stroke-width:0.8;"/>
     </g>
     <g id="line2d_30">
      <g>
       <use style="stroke:#000000;stroke-width:0.6;" x="762.589091" xlink:href="#m12fcd9a10d" y="629.9064"/>
      </g>
     </g>
    </g>
    <g id="xtick_16">
     <g id="line2d_31">
      <path clip-path="url(#p4ab849ccbb)" d="M 860.969256 629.9064 
L 860.969256 84.9312 
" style="fill:none;stroke:#b0b0b0;stroke-linecap:square;stroke-width:0.8;"/>
     </g>
     <g id="line2d_32">
      <g>
       <use style="stroke:#000000;stroke-width:0.6;" x="860.969256" xlink:href="#m12fcd9a10d" y="629.9064"/>
      </g>
     </g>
    </g>
    <g id="xtick_17">
     <g id="line2d_33">
      <path clip-path="url(#p4ab849ccbb)" d="M 910.159339 629.9064 
L 910.159339 84.9312 
" style="fill:none;stroke:#b0b0b0;stroke-linecap:square;stroke-width:0.8;"/>
     </g>
     <g id="line2d_34">
      <g>
       <use style="stroke:#000000;stroke-width:0.6;" x="910.159339" xlink:href="#m12fcd9a10d" y="629.9064"/>
      </g>
     </g>
    </g>
    <g id="xtick_18">
     <g id="line2d_35">
      <path clip-path="url(#p4ab849ccbb)" d="M 959.349421 629.9064 
L 959.349421 84.9312 
" style="fill:none;stroke:#b0b0b0;stroke-linecap:square;stroke-width:0.8;"/>
     </g>
     <g id="line2d_36">
      <g>
       <use style="stroke:#000000;stroke-width:0.6;" x="959.349421" xlink:href="#m12fcd9a10d" y="629.9064"/>
      </g>
     </g>
    </g>
    <g id="xtick_19">
     <g id="line2d_37">
      <path clip-path="url(#p4ab849ccbb)" d="M 1057.729587 629.9064 
L 1057.729587 84.9312 
" style="fill:none;stroke:#b0b0b0;stroke-linecap:square;stroke-width:0.8;"/>
     </g>
     <g id="line2d_38">
      <g>
       <use style="stroke:#000000;stroke-width:0.6;" x="1057.729587" xlink:href="#m12fcd9a10d" y="629.9064"/>
      </g>
     </g>
    </g>
    <g id="xtick_20">
     <g id="line2d_39">
      <path clip-path="url(#p4ab849ccbb)" d="M 1106.919669 629.9064 
L 1106.919669 84.9312 
" style="fill:none;stroke:#b0b0b0;stroke-linecap:square;stroke-width:0.8;"/>
     </g>
     <g id="line2d_40">
      <g>
       <use style="stroke:#000000;stroke-width:0.6;" x="1106.919669" xlink:href="#m12fcd9a10d" y="629.9064"/>
      </g>
     </g>
    </g>
    <g id="xtick_21">
     <g id="line2d_41">
      <path clip-path="url(#p4ab849ccbb)" d="M 1156.109752 629.9064 
L 1156.109752 84.9312 
" style="fill:none;stroke:#b0b0b0;stroke-linecap:square;stroke-width:0.8;"/>
     </g>
     <g id="line2d_42">
      <g>
       <use style="stroke:#000000;stroke-width:0.6;" x="1156.109752" xlink:href="#m12fcd9a10d" y="629.9064"/>
      </g>
     </g>
    </g>
    <g id="text_7">
     <!-- Iteration # -->
     <defs>
      <path d="M 9.8125 72.90625 
L 19.671875 72.90625 
L 19.671875 0 
L 9.8125 0 
z
" id="DejaVuSans-73"/>
      <path d="M 18.3125 70.21875 
L 18.3125 54.6875 
L 36.8125 54.6875 
L 36.8125 47.703125 
L 18.3125 47.703125 
L 18.3125 18.015625 
Q 18.3125 11.328125 20.140625 9.421875 
Q 21.96875 7.515625 27.59375 7.515625 
L 36.8125 7.515625 
L 36.8125 0 
L 27.59375 0 
Q 17.1875 0 13.234375 3.875 
Q 9.28125 7.765625 9.28125 18.015625 
L 9.28125 47.703125 
L 2.6875 47.703125 
L 2.6875 54.6875 
L 9.28125 54.6875 
L 9.28125 70.21875 
z
" id="DejaVuSans-116"/>
      <path d="M 56.203125 29.59375 
L 56.203125 25.203125 
L 14.890625 25.203125 
Q 15.484375 15.921875 20.484375 11.0625 
Q 25.484375 6.203125 34.421875 6.203125 
Q 39.59375 6.203125 44.453125 7.46875 
Q 49.3125 8.734375 54.109375 11.28125 
L 54.109375 2.78125 
Q 49.265625 0.734375 44.1875 -0.34375 
Q 39.109375 -1.421875 33.890625 -1.421875 
Q 20.796875 -1.421875 13.15625 6.1875 
Q 5.515625 13.8125 5.515625 26.8125 
Q 5.515625 40.234375 12.765625 48.109375 
Q 20.015625 56 32.328125 56 
Q 43.359375 56 49.78125 48.890625 
Q 56.203125 41.796875 56.203125 29.59375 
z
M 47.21875 32.234375 
Q 47.125 39.59375 43.09375 43.984375 
Q 39.0625 48.390625 32.421875 48.390625 
Q 24.90625 48.390625 20.390625 44.140625 
Q 15.875 39.890625 15.1875 32.171875 
z
" id="DejaVuSans-101"/>
      <path d="M 41.109375 46.296875 
Q 39.59375 47.171875 37.8125 47.578125 
Q 36.03125 48 33.890625 48 
Q 26.265625 48 22.1875 43.046875 
Q 18.109375 38.09375 18.109375 28.8125 
L 18.109375 0 
L 9.078125 0 
L 9.078125 54.6875 
L 18.109375 54.6875 
L 18.109375 46.1875 
Q 20.953125 51.171875 25.484375 53.578125 
Q 30.03125 56 36.53125 56 
Q 37.453125 56 38.578125 55.875 
Q 39.703125 55.765625 41.0625 55.515625 
z
" id="DejaVuSans-114"/>
      <path d="M 34.28125 27.484375 
Q 23.390625 27.484375 19.1875 25 
Q 14.984375 22.515625 14.984375 16.5 
Q 14.984375 11.71875 18.140625 8.90625 
Q 21.296875 6.109375 26.703125 6.109375 
Q 34.1875 6.109375 38.703125 11.40625 
Q 43.21875 16.703125 43.21875 25.484375 
L 43.21875 27.484375 
z
M 52.203125 31.203125 
L 52.203125 0 
L 43.21875 0 
L 43.21875 8.296875 
Q 40.140625 3.328125 35.546875 0.953125 
Q 30.953125 -1.421875 24.3125 -1.421875 
Q 15.921875 -1.421875 10.953125 3.296875 
Q 6 8.015625 6 15.921875 
Q 6 25.140625 12.171875 29.828125 
Q 18.359375 34.515625 30.609375 34.515625 
L 43.21875 34.515625 
L 43.21875 35.40625 
Q 43.21875 41.609375 39.140625 45 
Q 35.0625 48.390625 27.6875 48.390625 
Q 23 48.390625 18.546875 47.265625 
Q 14.109375 46.140625 10.015625 43.890625 
L 10.015625 52.203125 
Q 14.9375 54.109375 19.578125 55.046875 
Q 24.21875 56 28.609375 56 
Q 40.484375 56 46.34375 49.84375 
Q 52.203125 43.703125 52.203125 31.203125 
z
" id="DejaVuSans-97"/>
      <path d="M 9.421875 54.6875 
L 18.40625 54.6875 
L 18.40625 0 
L 9.421875 0 
z
M 9.421875 75.984375 
L 18.40625 75.984375 
L 18.40625 64.59375 
L 9.421875 64.59375 
z
" id="DejaVuSans-105"/>
      <path d="M 30.609375 48.390625 
Q 23.390625 48.390625 19.1875 42.75 
Q 14.984375 37.109375 14.984375 27.296875 
Q 14.984375 17.484375 19.15625 11.84375 
Q 23.34375 6.203125 30.609375 6.203125 
Q 37.796875 6.203125 41.984375 11.859375 
Q 46.1875 17.53125 46.1875 27.296875 
Q 46.1875 37.015625 41.984375 42.703125 
Q 37.796875 48.390625 30.609375 48.390625 
z
M 30.609375 56 
Q 42.328125 56 49.015625 48.375 
Q 55.71875 40.765625 55.71875 27.296875 
Q 55.71875 13.875 49.015625 6.21875 
Q 42.328125 -1.421875 30.609375 -1.421875 
Q 18.84375 -1.421875 12.171875 6.21875 
Q 5.515625 13.875 5.515625 27.296875 
Q 5.515625 40.765625 12.171875 48.375 
Q 18.84375 56 30.609375 56 
z
" id="DejaVuSans-111"/>
      <path d="M 54.890625 33.015625 
L 54.890625 0 
L 45.90625 0 
L 45.90625 32.71875 
Q 45.90625 40.484375 42.875 44.328125 
Q 39.84375 48.1875 33.796875 48.1875 
Q 26.515625 48.1875 22.3125 43.546875 
Q 18.109375 38.921875 18.109375 30.90625 
L 18.109375 0 
L 9.078125 0 
L 9.078125 54.6875 
L 18.109375 54.6875 
L 18.109375 46.1875 
Q 21.34375 51.125 25.703125 53.5625 
Q 30.078125 56 35.796875 56 
Q 45.21875 56 50.046875 50.171875 
Q 54.890625 44.34375 54.890625 33.015625 
z
" id="DejaVuSans-110"/>
      <path id="DejaVuSans-32"/>
      <path d="M 51.125 44 
L 36.921875 44 
L 32.8125 27.6875 
L 47.125 27.6875 
z
M 43.796875 71.78125 
L 38.71875 51.515625 
L 52.984375 51.515625 
L 58.109375 71.78125 
L 65.921875 71.78125 
L 60.890625 51.515625 
L 76.125 51.515625 
L 76.125 44 
L 58.984375 44 
L 54.984375 27.6875 
L 70.515625 27.6875 
L 70.515625 20.21875 
L 53.078125 20.21875 
L 48 0 
L 40.1875 0 
L 45.21875 20.21875 
L 30.90625 20.21875 
L 25.875 0 
L 18.015625 0 
L 23.09375 20.21875 
L 7.71875 20.21875 
L 7.71875 27.6875 
L 24.90625 27.6875 
L 29 44 
L 13.28125 44 
L 13.28125 51.515625 
L 30.90625 51.515625 
L 35.890625 71.78125 
z
" id="DejaVuSans-35"/>
     </defs>
     <g transform="translate(681.4925 658.182963)scale(0.1 -0.1)">
      <use xlink:href="#DejaVuSans-73"/>
      <use x="29.492188" xlink:href="#DejaVuSans-116"/>
      <use x="68.701172" xlink:href="#DejaVuSans-101"/>
      <use x="130.224609" xlink:href="#DejaVuSans-114"/>
      <use x="171.337891" xlink:href="#DejaVuSans-97"/>
      <use x="232.617188" xlink:href="#DejaVuSans-116"/>
      <use x="271.826172" xlink:href="#DejaVuSans-105"/>
      <use x="299.609375" xlink:href="#DejaVuSans-111"/>
      <use x="360.791016" xlink:href="#DejaVuSans-110"/>
      <use x="424.169922" xlink:href="#DejaVuSans-32"/>
      <use x="455.957031" xlink:href="#DejaVuSans-35"/>
     </g>
    </g>
   </g>
   <g id="matplotlib.axis_2">
    <g id="ytick_1">
     <g id="line2d_43">
      <path clip-path="url(#p4ab849ccbb)" d="M 172.8 621.469909 
L 1244.16 621.469909 
" style="fill:none;stroke:#b0b0b0;stroke-linecap:square;stroke-width:0.8;"/>
     </g>
     <g id="line2d_44">
      <defs>
       <path d="M 0 0 
L -3.5 0 
" id="m621d89dee7" style="stroke:#000000;stroke-width:0.8;"/>
      </defs>
      <g>
       <use style="stroke:#000000;stroke-width:0.8;" x="172.8" xlink:href="#m621d89dee7" y="621.469909"/>
      </g>
     </g>
     <g id="text_8">
      <!-- −0.40 -->
      <defs>
       <path d="M 10.59375 35.5 
L 73.1875 35.5 
L 73.1875 27.203125 
L 10.59375 27.203125 
z
" id="DejaVuSans-8722"/>
       <path d="M 10.6875 12.40625 
L 21 12.40625 
L 21 0 
L 10.6875 0 
z
" id="DejaVuSans-46"/>
      </defs>
      <g transform="translate(135.154687 625.269128)scale(0.1 -0.1)">
       <use xlink:href="#DejaVuSans-8722"/>
       <use x="83.789062" xlink:href="#DejaVuSans-48"/>
       <use x="147.412109" xlink:href="#DejaVuSans-46"/>
       <use x="179.199219" xlink:href="#DejaVuSans-52"/>
       <use x="242.822266" xlink:href="#DejaVuSans-48"/>
      </g>
     </g>
    </g>
    <g id="ytick_2">
     <g id="line2d_45">
      <path clip-path="url(#p4ab849ccbb)" d="M 172.8 551.151804 
L 1244.16 551.151804 
" style="fill:none;stroke:#b0b0b0;stroke-linecap:square;stroke-width:0.8;"/>
     </g>
     <g id="line2d_46">
      <g>
       <use style="stroke:#000000;stroke-width:0.8;" x="172.8" xlink:href="#m621d89dee7" y="551.151804"/>
      </g>
     </g>
     <g id="text_9">
      <!-- −0.35 -->
      <defs>
       <path d="M 40.578125 39.3125 
Q 47.65625 37.796875 51.625 33 
Q 55.609375 28.21875 55.609375 21.1875 
Q 55.609375 10.40625 48.1875 4.484375 
Q 40.765625 -1.421875 27.09375 -1.421875 
Q 22.515625 -1.421875 17.65625 -0.515625 
Q 12.796875 0.390625 7.625 2.203125 
L 7.625 11.71875 
Q 11.71875 9.328125 16.59375 8.109375 
Q 21.484375 6.890625 26.8125 6.890625 
Q 36.078125 6.890625 40.9375 10.546875 
Q 45.796875 14.203125 45.796875 21.1875 
Q 45.796875 27.640625 41.28125 31.265625 
Q 36.765625 34.90625 28.71875 34.90625 
L 20.21875 34.90625 
L 20.21875 43.015625 
L 29.109375 43.015625 
Q 36.375 43.015625 40.234375 45.921875 
Q 44.09375 48.828125 44.09375 54.296875 
Q 44.09375 59.90625 40.109375 62.90625 
Q 36.140625 65.921875 28.71875 65.921875 
Q 24.65625 65.921875 20.015625 65.03125 
Q 15.375 64.15625 9.8125 62.3125 
L 9.8125 71.09375 
Q 15.4375 72.65625 20.34375 73.4375 
Q 25.25 74.21875 29.59375 74.21875 
Q 40.828125 74.21875 47.359375 69.109375 
Q 53.90625 64.015625 53.90625 55.328125 
Q 53.90625 49.265625 50.4375 45.09375 
Q 46.96875 40.921875 40.578125 39.3125 
z
" id="DejaVuSans-51"/>
       <path d="M 10.796875 72.90625 
L 49.515625 72.90625 
L 49.515625 64.59375 
L 19.828125 64.59375 
L 19.828125 46.734375 
Q 21.96875 47.46875 24.109375 47.828125 
Q 26.265625 48.1875 28.421875 48.1875 
Q 40.625 48.1875 47.75 41.5 
Q 54.890625 34.8125 54.890625 23.390625 
Q 54.890625 11.625 47.5625 5.09375 
Q 40.234375 -1.421875 26.90625 -1.421875 
Q 22.3125 -1.421875 17.546875 -0.640625 
Q 12.796875 0.140625 7.71875 1.703125 
L 7.71875 11.625 
Q 12.109375 9.234375 16.796875 8.0625 
Q 21.484375 6.890625 26.703125 6.890625 
Q 35.15625 6.890625 40.078125 11.328125 
Q 45.015625 15.765625 45.015625 23.390625 
Q 45.015625 31 40.078125 35.4375 
Q 35.15625 39.890625 26.703125 39.890625 
Q 22.75 39.890625 18.8125 39.015625 
Q 14.890625 38.140625 10.796875 36.28125 
z
" id="DejaVuSans-53"/>
      </defs>
      <g transform="translate(135.154687 554.951023)scale(0.1 -0.1)">
       <use xlink:href="#DejaVuSans-8722"/>
       <use x="83.789062" xlink:href="#DejaVuSans-48"/>
       <use x="147.412109" xlink:href="#DejaVuSans-46"/>
       <use x="179.199219" xlink:href="#DejaVuSans-51"/>
       <use x="242.822266" xlink:href="#DejaVuSans-53"/>
      </g>
     </g>
    </g>
    <g id="ytick_3">
     <g id="line2d_47">
      <path clip-path="url(#p4ab849ccbb)" d="M 172.8 480.833698 
L 1244.16 480.833698 
" style="fill:none;stroke:#b0b0b0;stroke-linecap:square;stroke-width:0.8;"/>
     </g>
     <g id="line2d_48">
      <g>
       <use style="stroke:#000000;stroke-width:0.8;" x="172.8" xlink:href="#m621d89dee7" y="480.833698"/>
      </g>
     </g>
     <g id="text_10">
      <!-- −0.30 -->
      <g transform="translate(135.154687 484.632917)scale(0.1 -0.1)">
       <use xlink:href="#DejaVuSans-8722"/>
       <use x="83.789062" xlink:href="#DejaVuSans-48"/>
       <use x="147.412109" xlink:href="#DejaVuSans-46"/>
       <use x="179.199219" xlink:href="#DejaVuSans-51"/>
       <use x="242.822266" xlink:href="#DejaVuSans-48"/>
      </g>
     </g>
    </g>
    <g id="ytick_4">
     <g id="line2d_49">
      <path clip-path="url(#p4ab849ccbb)" d="M 172.8 410.515593 
L 1244.16 410.515593 
" style="fill:none;stroke:#b0b0b0;stroke-linecap:square;stroke-width:0.8;"/>
     </g>
     <g id="line2d_50">
      <g>
       <use style="stroke:#000000;stroke-width:0.8;" x="172.8" xlink:href="#m621d89dee7" y="410.515593"/>
      </g>
     </g>
     <g id="text_11">
      <!-- −0.25 -->
      <g transform="translate(135.154687 414.314812)scale(0.1 -0.1)">
       <use xlink:href="#DejaVuSans-8722"/>
       <use x="83.789062" xlink:href="#DejaVuSans-48"/>
       <use x="147.412109" xlink:href="#DejaVuSans-46"/>
       <use x="179.199219" xlink:href="#DejaVuSans-50"/>
       <use x="242.822266" xlink:href="#DejaVuSans-53"/>
      </g>
     </g>
    </g>
    <g id="ytick_5">
     <g id="line2d_51">
      <path clip-path="url(#p4ab849ccbb)" d="M 172.8 340.197488 
L 1244.16 340.197488 
" style="fill:none;stroke:#b0b0b0;stroke-linecap:square;stroke-width:0.8;"/>
     </g>
     <g id="line2d_52">
      <g>
       <use style="stroke:#000000;stroke-width:0.8;" x="172.8" xlink:href="#m621d89dee7" y="340.197488"/>
      </g>
     </g>
     <g id="text_12">
      <!-- −0.20 -->
      <g transform="translate(135.154687 343.996706)scale(0.1 -0.1)">
       <use xlink:href="#DejaVuSans-8722"/>
       <use x="83.789062" xlink:href="#DejaVuSans-48"/>
       <use x="147.412109" xlink:href="#DejaVuSans-46"/>
       <use x="179.199219" xlink:href="#DejaVuSans-50"/>
       <use x="242.822266" xlink:href="#DejaVuSans-48"/>
      </g>
     </g>
    </g>
    <g id="ytick_6">
     <g id="line2d_53">
      <path clip-path="url(#p4ab849ccbb)" d="M 172.8 269.879382 
L 1244.16 269.879382 
" style="fill:none;stroke:#b0b0b0;stroke-linecap:square;stroke-width:0.8;"/>
     </g>
     <g id="line2d_54">
      <g>
       <use style="stroke:#000000;stroke-width:0.8;" x="172.8" xlink:href="#m621d89dee7" y="269.879382"/>
      </g>
     </g>
     <g id="text_13">
      <!-- −0.15 -->
      <g transform="translate(135.154687 273.678601)scale(0.1 -0.1)">
       <use xlink:href="#DejaVuSans-8722"/>
       <use x="83.789062" xlink:href="#DejaVuSans-48"/>
       <use x="147.412109" xlink:href="#DejaVuSans-46"/>
       <use x="179.199219" xlink:href="#DejaVuSans-49"/>
       <use x="242.822266" xlink:href="#DejaVuSans-53"/>
      </g>
     </g>
    </g>
    <g id="ytick_7">
     <g id="line2d_55">
      <path clip-path="url(#p4ab849ccbb)" d="M 172.8 199.561277 
L 1244.16 199.561277 
" style="fill:none;stroke:#b0b0b0;stroke-linecap:square;stroke-width:0.8;"/>
     </g>
     <g id="line2d_56">
      <g>
       <use style="stroke:#000000;stroke-width:0.8;" x="172.8" xlink:href="#m621d89dee7" y="199.561277"/>
      </g>
     </g>
     <g id="text_14">
      <!-- −0.10 -->
      <g transform="translate(135.154687 203.360496)scale(0.1 -0.1)">
       <use xlink:href="#DejaVuSans-8722"/>
       <use x="83.789062" xlink:href="#DejaVuSans-48"/>
       <use x="147.412109" xlink:href="#DejaVuSans-46"/>
       <use x="179.199219" xlink:href="#DejaVuSans-49"/>
       <use x="242.822266" xlink:href="#DejaVuSans-48"/>
      </g>
     </g>
    </g>
    <g id="ytick_8">
     <g id="line2d_57">
      <path clip-path="url(#p4ab849ccbb)" d="M 172.8 129.243171 
L 1244.16 129.243171 
" style="fill:none;stroke:#b0b0b0;stroke-linecap:square;stroke-width:0.8;"/>
     </g>
     <g id="line2d_58">
      <g>
       <use style="stroke:#000000;stroke-width:0.8;" x="172.8" xlink:href="#m621d89dee7" y="129.243171"/>
      </g>
     </g>
     <g id="text_15">
      <!-- −0.05 -->
      <g transform="translate(135.154687 133.04239)scale(0.1 -0.1)">
       <use xlink:href="#DejaVuSans-8722"/>
       <use x="83.789062" xlink:href="#DejaVuSans-48"/>
       <use x="147.412109" xlink:href="#DejaVuSans-46"/>
       <use x="179.199219" xlink:href="#DejaVuSans-48"/>
       <use x="242.822266" xlink:href="#DejaVuSans-53"/>
      </g>
     </g>
    </g>
    <g id="ytick_9">
     <g id="line2d_59">
      <path clip-path="url(#p4ab849ccbb)" d="M 172.8 607.406288 
L 1244.16 607.406288 
" style="fill:none;stroke:#b0b0b0;stroke-linecap:square;stroke-width:0.8;"/>
     </g>
     <g id="line2d_60">
      <defs>
       <path d="M 0 0 
L -2 0 
" id="mf430500622" style="stroke:#000000;stroke-width:0.6;"/>
      </defs>
      <g>
       <use style="stroke:#000000;stroke-width:0.6;" x="172.8" xlink:href="#mf430500622" y="607.406288"/>
      </g>
     </g>
    </g>
    <g id="ytick_10">
     <g id="line2d_61">
      <path clip-path="url(#p4ab849ccbb)" d="M 172.8 593.342667 
L 1244.16 593.342667 
" style="fill:none;stroke:#b0b0b0;stroke-linecap:square;stroke-width:0.8;"/>
     </g>
     <g id="line2d_62">
      <g>
       <use style="stroke:#000000;stroke-width:0.6;" x="172.8" xlink:href="#mf430500622" y="593.342667"/>
      </g>
     </g>
    </g>
    <g id="ytick_11">
     <g id="line2d_63">
      <path clip-path="url(#p4ab849ccbb)" d="M 172.8 579.279046 
L 1244.16 579.279046 
" style="fill:none;stroke:#b0b0b0;stroke-linecap:square;stroke-width:0.8;"/>
     </g>
     <g id="line2d_64">
      <g>
       <use style="stroke:#000000;stroke-width:0.6;" x="172.8" xlink:href="#mf430500622" y="579.279046"/>
      </g>
     </g>
    </g>
    <g id="ytick_12">
     <g id="line2d_65">
      <path clip-path="url(#p4ab849ccbb)" d="M 172.8 565.215425 
L 1244.16 565.215425 
" style="fill:none;stroke:#b0b0b0;stroke-linecap:square;stroke-width:0.8;"/>
     </g>
     <g id="line2d_66">
      <g>
       <use style="stroke:#000000;stroke-width:0.6;" x="172.8" xlink:href="#mf430500622" y="565.215425"/>
      </g>
     </g>
    </g>
    <g id="ytick_13">
     <g id="line2d_67">
      <path clip-path="url(#p4ab849ccbb)" d="M 172.8 537.088183 
L 1244.16 537.088183 
" style="fill:none;stroke:#b0b0b0;stroke-linecap:square;stroke-width:0.8;"/>
     </g>
     <g id="line2d_68">
      <g>
       <use style="stroke:#000000;stroke-width:0.6;" x="172.8" xlink:href="#mf430500622" y="537.088183"/>
      </g>
     </g>
    </g>
    <g id="ytick_14">
     <g id="line2d_69">
      <path clip-path="url(#p4ab849ccbb)" d="M 172.8 523.024562 
L 1244.16 523.024562 
" style="fill:none;stroke:#b0b0b0;stroke-linecap:square;stroke-width:0.8;"/>
     </g>
     <g id="line2d_70">
      <g>
       <use style="stroke:#000000;stroke-width:0.6;" x="172.8" xlink:href="#mf430500622" y="523.024562"/>
      </g>
     </g>
    </g>
    <g id="ytick_15">
     <g id="line2d_71">
      <path clip-path="url(#p4ab849ccbb)" d="M 172.8 508.960941 
L 1244.16 508.960941 
" style="fill:none;stroke:#b0b0b0;stroke-linecap:square;stroke-width:0.8;"/>
     </g>
     <g id="line2d_72">
      <g>
       <use style="stroke:#000000;stroke-width:0.6;" x="172.8" xlink:href="#mf430500622" y="508.960941"/>
      </g>
     </g>
    </g>
    <g id="ytick_16">
     <g id="line2d_73">
      <path clip-path="url(#p4ab849ccbb)" d="M 172.8 494.89732 
L 1244.16 494.89732 
" style="fill:none;stroke:#b0b0b0;stroke-linecap:square;stroke-width:0.8;"/>
     </g>
     <g id="line2d_74">
      <g>
       <use style="stroke:#000000;stroke-width:0.6;" x="172.8" xlink:href="#mf430500622" y="494.89732"/>
      </g>
     </g>
    </g>
    <g id="ytick_17">
     <g id="line2d_75">
      <path clip-path="url(#p4ab849ccbb)" d="M 172.8 466.770077 
L 1244.16 466.770077 
" style="fill:none;stroke:#b0b0b0;stroke-linecap:square;stroke-width:0.8;"/>
     </g>
     <g id="line2d_76">
      <g>
       <use style="stroke:#000000;stroke-width:0.6;" x="172.8" xlink:href="#mf430500622" y="466.770077"/>
      </g>
     </g>
    </g>
    <g id="ytick_18">
     <g id="line2d_77">
      <path clip-path="url(#p4ab849ccbb)" d="M 172.8 452.706456 
L 1244.16 452.706456 
" style="fill:none;stroke:#b0b0b0;stroke-linecap:square;stroke-width:0.8;"/>
     </g>
     <g id="line2d_78">
      <g>
       <use style="stroke:#000000;stroke-width:0.6;" x="172.8" xlink:href="#mf430500622" y="452.706456"/>
      </g>
     </g>
    </g>
    <g id="ytick_19">
     <g id="line2d_79">
      <path clip-path="url(#p4ab849ccbb)" d="M 172.8 438.642835 
L 1244.16 438.642835 
" style="fill:none;stroke:#b0b0b0;stroke-linecap:square;stroke-width:0.8;"/>
     </g>
     <g id="line2d_80">
      <g>
       <use style="stroke:#000000;stroke-width:0.6;" x="172.8" xlink:href="#mf430500622" y="438.642835"/>
      </g>
     </g>
    </g>
    <g id="ytick_20">
     <g id="line2d_81">
      <path clip-path="url(#p4ab849ccbb)" d="M 172.8 424.579214 
L 1244.16 424.579214 
" style="fill:none;stroke:#b0b0b0;stroke-linecap:square;stroke-width:0.8;"/>
     </g>
     <g id="line2d_82">
      <g>
       <use style="stroke:#000000;stroke-width:0.6;" x="172.8" xlink:href="#mf430500622" y="424.579214"/>
      </g>
     </g>
    </g>
    <g id="ytick_21">
     <g id="line2d_83">
      <path clip-path="url(#p4ab849ccbb)" d="M 172.8 396.451972 
L 1244.16 396.451972 
" style="fill:none;stroke:#b0b0b0;stroke-linecap:square;stroke-width:0.8;"/>
     </g>
     <g id="line2d_84">
      <g>
       <use style="stroke:#000000;stroke-width:0.6;" x="172.8" xlink:href="#mf430500622" y="396.451972"/>
      </g>
     </g>
    </g>
    <g id="ytick_22">
     <g id="line2d_85">
      <path clip-path="url(#p4ab849ccbb)" d="M 172.8 382.388351 
L 1244.16 382.388351 
" style="fill:none;stroke:#b0b0b0;stroke-linecap:square;stroke-width:0.8;"/>
     </g>
     <g id="line2d_86">
      <g>
       <use style="stroke:#000000;stroke-width:0.6;" x="172.8" xlink:href="#mf430500622" y="382.388351"/>
      </g>
     </g>
    </g>
    <g id="ytick_23">
     <g id="line2d_87">
      <path clip-path="url(#p4ab849ccbb)" d="M 172.8 368.32473 
L 1244.16 368.32473 
" style="fill:none;stroke:#b0b0b0;stroke-linecap:square;stroke-width:0.8;"/>
     </g>
     <g id="line2d_88">
      <g>
       <use style="stroke:#000000;stroke-width:0.6;" x="172.8" xlink:href="#mf430500622" y="368.32473"/>
      </g>
     </g>
    </g>
    <g id="ytick_24">
     <g id="line2d_89">
      <path clip-path="url(#p4ab849ccbb)" d="M 172.8 354.261109 
L 1244.16 354.261109 
" style="fill:none;stroke:#b0b0b0;stroke-linecap:square;stroke-width:0.8;"/>
     </g>
     <g id="line2d_90">
      <g>
       <use style="stroke:#000000;stroke-width:0.6;" x="172.8" xlink:href="#mf430500622" y="354.261109"/>
      </g>
     </g>
    </g>
    <g id="ytick_25">
     <g id="line2d_91">
      <path clip-path="url(#p4ab849ccbb)" d="M 172.8 326.133867 
L 1244.16 326.133867 
" style="fill:none;stroke:#b0b0b0;stroke-linecap:square;stroke-width:0.8;"/>
     </g>
     <g id="line2d_92">
      <g>
       <use style="stroke:#000000;stroke-width:0.6;" x="172.8" xlink:href="#mf430500622" y="326.133867"/>
      </g>
     </g>
    </g>
    <g id="ytick_26">
     <g id="line2d_93">
      <path clip-path="url(#p4ab849ccbb)" d="M 172.8 312.070245 
L 1244.16 312.070245 
" style="fill:none;stroke:#b0b0b0;stroke-linecap:square;stroke-width:0.8;"/>
     </g>
     <g id="line2d_94">
      <g>
       <use style="stroke:#000000;stroke-width:0.6;" x="172.8" xlink:href="#mf430500622" y="312.070245"/>
      </g>
     </g>
    </g>
    <g id="ytick_27">
     <g id="line2d_95">
      <path clip-path="url(#p4ab849ccbb)" d="M 172.8 298.006624 
L 1244.16 298.006624 
" style="fill:none;stroke:#b0b0b0;stroke-linecap:square;stroke-width:0.8;"/>
     </g>
     <g id="line2d_96">
      <g>
       <use style="stroke:#000000;stroke-width:0.6;" x="172.8" xlink:href="#mf430500622" y="298.006624"/>
      </g>
     </g>
    </g>
    <g id="ytick_28">
     <g id="line2d_97">
      <path clip-path="url(#p4ab849ccbb)" d="M 172.8 283.943003 
L 1244.16 283.943003 
" style="fill:none;stroke:#b0b0b0;stroke-linecap:square;stroke-width:0.8;"/>
     </g>
     <g id="line2d_98">
      <g>
       <use style="stroke:#000000;stroke-width:0.6;" x="172.8" xlink:href="#mf430500622" y="283.943003"/>
      </g>
     </g>
    </g>
    <g id="ytick_29">
     <g id="line2d_99">
      <path clip-path="url(#p4ab849ccbb)" d="M 172.8 255.815761 
L 1244.16 255.815761 
" style="fill:none;stroke:#b0b0b0;stroke-linecap:square;stroke-width:0.8;"/>
     </g>
     <g id="line2d_100">
      <g>
       <use style="stroke:#000000;stroke-width:0.6;" x="172.8" xlink:href="#mf430500622" y="255.815761"/>
      </g>
     </g>
    </g>
    <g id="ytick_30">
     <g id="line2d_101">
      <path clip-path="url(#p4ab849ccbb)" d="M 172.8 241.75214 
L 1244.16 241.75214 
" style="fill:none;stroke:#b0b0b0;stroke-linecap:square;stroke-width:0.8;"/>
     </g>
     <g id="line2d_102">
      <g>
       <use style="stroke:#000000;stroke-width:0.6;" x="172.8" xlink:href="#mf430500622" y="241.75214"/>
      </g>
     </g>
    </g>
    <g id="ytick_31">
     <g id="line2d_103">
      <path clip-path="url(#p4ab849ccbb)" d="M 172.8 227.688519 
L 1244.16 227.688519 
" style="fill:none;stroke:#b0b0b0;stroke-linecap:square;stroke-width:0.8;"/>
     </g>
     <g id="line2d_104">
      <g>
       <use style="stroke:#000000;stroke-width:0.6;" x="172.8" xlink:href="#mf430500622" y="227.688519"/>
      </g>
     </g>
    </g>
    <g id="ytick_32">
     <g id="line2d_105">
      <path clip-path="url(#p4ab849ccbb)" d="M 172.8 213.624898 
L 1244.16 213.624898 
" style="fill:none;stroke:#b0b0b0;stroke-linecap:square;stroke-width:0.8;"/>
     </g>
     <g id="line2d_106">
      <g>
       <use style="stroke:#000000;stroke-width:0.6;" x="172.8" xlink:href="#mf430500622" y="213.624898"/>
      </g>
     </g>
    </g>
    <g id="ytick_33">
     <g id="line2d_107">
      <path clip-path="url(#p4ab849ccbb)" d="M 172.8 185.497656 
L 1244.16 185.497656 
" style="fill:none;stroke:#b0b0b0;stroke-linecap:square;stroke-width:0.8;"/>
     </g>
     <g id="line2d_108">
      <g>
       <use style="stroke:#000000;stroke-width:0.6;" x="172.8" xlink:href="#mf430500622" y="185.497656"/>
      </g>
     </g>
    </g>
    <g id="ytick_34">
     <g id="line2d_109">
      <path clip-path="url(#p4ab849ccbb)" d="M 172.8 171.434035 
L 1244.16 171.434035 
" style="fill:none;stroke:#b0b0b0;stroke-linecap:square;stroke-width:0.8;"/>
     </g>
     <g id="line2d_110">
      <g>
       <use style="stroke:#000000;stroke-width:0.6;" x="172.8" xlink:href="#mf430500622" y="171.434035"/>
      </g>
     </g>
    </g>
    <g id="ytick_35">
     <g id="line2d_111">
      <path clip-path="url(#p4ab849ccbb)" d="M 172.8 157.370414 
L 1244.16 157.370414 
" style="fill:none;stroke:#b0b0b0;stroke-linecap:square;stroke-width:0.8;"/>
     </g>
     <g id="line2d_112">
      <g>
       <use style="stroke:#000000;stroke-width:0.6;" x="172.8" xlink:href="#mf430500622" y="157.370414"/>
      </g>
     </g>
    </g>
    <g id="ytick_36">
     <g id="line2d_113">
      <path clip-path="url(#p4ab849ccbb)" d="M 172.8 143.306793 
L 1244.16 143.306793 
" style="fill:none;stroke:#b0b0b0;stroke-linecap:square;stroke-width:0.8;"/>
     </g>
     <g id="line2d_114">
      <g>
       <use style="stroke:#000000;stroke-width:0.6;" x="172.8" xlink:href="#mf430500622" y="143.306793"/>
      </g>
     </g>
    </g>
    <g id="ytick_37">
     <g id="line2d_115">
      <path clip-path="url(#p4ab849ccbb)" d="M 172.8 115.17955 
L 1244.16 115.17955 
" style="fill:none;stroke:#b0b0b0;stroke-linecap:square;stroke-width:0.8;"/>
     </g>
     <g id="line2d_116">
      <g>
       <use style="stroke:#000000;stroke-width:0.6;" x="172.8" xlink:href="#mf430500622" y="115.17955"/>
      </g>
     </g>
    </g>
    <g id="ytick_38">
     <g id="line2d_117">
      <path clip-path="url(#p4ab849ccbb)" d="M 172.8 101.115929 
L 1244.16 101.115929 
" style="fill:none;stroke:#b0b0b0;stroke-linecap:square;stroke-width:0.8;"/>
     </g>
     <g id="line2d_118">
      <g>
       <use style="stroke:#000000;stroke-width:0.6;" x="172.8" xlink:href="#mf430500622" y="101.115929"/>
      </g>
     </g>
    </g>
    <g id="ytick_39">
     <g id="line2d_119">
      <path clip-path="url(#p4ab849ccbb)" d="M 172.8 87.052308 
L 1244.16 87.052308 
" style="fill:none;stroke:#b0b0b0;stroke-linecap:square;stroke-width:0.8;"/>
     </g>
     <g id="line2d_120">
      <g>
       <use style="stroke:#000000;stroke-width:0.6;" x="172.8" xlink:href="#mf430500622" y="87.052308"/>
      </g>
     </g>
    </g>
    <g id="text_16">
     <!-- $\pi(x,\rho)$ -->
     <defs>
      <path d="M 9.125 54.6875 
L 61.53125 54.6875 
L 59.765625 45.703125 
L 52.875 45.703125 
L 46.34375 12.109375 
Q 45.65625 8.59375 46.578125 7.03125 
Q 47.46875 5.515625 50.140625 5.515625 
Q 50.875 5.515625 51.953125 5.671875 
Q 53.078125 5.765625 53.421875 5.8125 
L 52.15625 -0.6875 
Q 50.34375 -1.3125 48.484375 -1.609375 
Q 46.578125 -1.90625 44.78125 -1.90625 
Q 38.921875 -1.90625 37.3125 1.265625 
Q 35.6875 4.5 37.359375 13.09375 
L 43.703125 45.703125 
L 23.53125 45.703125 
L 14.65625 0 
L 5.46875 0 
L 14.359375 45.703125 
L 7.375 45.703125 
z
" id="DejaVuSans-Oblique-960"/>
      <path d="M 31 75.875 
Q 24.46875 64.65625 21.28125 53.65625 
Q 18.109375 42.671875 18.109375 31.390625 
Q 18.109375 20.125 21.3125 9.0625 
Q 24.515625 -2 31 -13.1875 
L 23.1875 -13.1875 
Q 15.875 -1.703125 12.234375 9.375 
Q 8.59375 20.453125 8.59375 31.390625 
Q 8.59375 42.28125 12.203125 53.3125 
Q 15.828125 64.359375 23.1875 75.875 
z
" id="DejaVuSans-40"/>
      <path d="M 60.015625 54.6875 
L 34.90625 27.875 
L 50.296875 0 
L 39.984375 0 
L 28.421875 21.6875 
L 8.296875 0 
L -2.59375 0 
L 24.3125 28.8125 
L 10.015625 54.6875 
L 20.3125 54.6875 
L 30.8125 34.90625 
L 49.125 54.6875 
z
" id="DejaVuSans-Oblique-120"/>
      <path d="M 11.71875 12.40625 
L 22.015625 12.40625 
L 22.015625 4 
L 14.015625 -11.625 
L 7.71875 -11.625 
L 11.71875 4 
z
" id="DejaVuSans-44"/>
      <path d="M 18.796875 44.921875 
Q 22.703125 49.90625 30.953125 54.296875 
Q 34.1875 56 43.0625 56 
Q 53.03125 56 57.71875 48.09375 
Q 62.40625 40.1875 59.90625 27.296875 
Q 57.375 14.40625 49.609375 6.484375 
Q 41.84375 -1.421875 31.890625 -1.421875 
Q 25.875 -1.421875 22.015625 0.984375 
Q 18.171875 3.328125 16.3125 8.203125 
L 10.640625 -20.796875 
L 1.609375 -20.796875 
L 10.890625 26.8125 
Q 13.09375 38.09375 18.796875 44.921875 
z
M 50.59375 27.296875 
Q 52.484375 37.203125 49.515625 42.875 
Q 46.53125 48.484375 39.40625 48.484375 
Q 32.28125 48.484375 27.09375 42.875 
Q 21.921875 37.203125 20.015625 27.296875 
Q 18.0625 17.390625 21.046875 11.71875 
Q 24.03125 6.109375 31.15625 6.109375 
Q 38.28125 6.109375 43.453125 11.71875 
Q 48.640625 17.390625 50.59375 27.296875 
z
" id="DejaVuSans-Oblique-961"/>
      <path d="M 8.015625 75.875 
L 15.828125 75.875 
Q 23.140625 64.359375 26.78125 53.3125 
Q 30.421875 42.28125 30.421875 31.390625 
Q 30.421875 20.453125 26.78125 9.375 
Q 23.140625 -1.703125 15.828125 -13.1875 
L 8.015625 -13.1875 
Q 14.5 -2 17.703125 9.0625 
Q 20.90625 20.125 20.90625 31.390625 
Q 20.90625 42.671875 17.703125 53.65625 
Q 14.5 64.65625 8.015625 75.875 
z
" id="DejaVuSans-41"/>
     </defs>
     <g transform="translate(129.054687 373.0688)rotate(-90)scale(0.1 -0.1)">
      <use transform="translate(0 0.125)" xlink:href="#DejaVuSans-Oblique-960"/>
      <use transform="translate(60.205078 0.125)" xlink:href="#DejaVuSans-40"/>
      <use transform="translate(99.21875 0.125)" xlink:href="#DejaVuSans-Oblique-120"/>
      <use transform="translate(158.398438 0.125)" xlink:href="#DejaVuSans-44"/>
      <use transform="translate(209.667969 0.125)" xlink:href="#DejaVuSans-Oblique-961"/>
      <use transform="translate(273.144531 0.125)" xlink:href="#DejaVuSans-41"/>
     </g>
    </g>
   </g>
   <g id="line2d_121">
    <path clip-path="url(#p4ab849ccbb)" d="M 221.498182 144.048095 
L 231.336198 251.885253 
L 241.174215 387.157485 
L 251.012231 479.570856 
L 260.850248 519.102074 
L 270.688264 529.163631 
L 280.526281 543.484 
L 290.364298 548.1481 
L 300.202314 557.650613 
L 310.040331 561.4984 
L 319.878347 566.035064 
L 329.716364 567.39876 
L 339.55438 569.993255 
L 349.392397 570.484573 
L 359.230413 570.63945 
L 369.06843 570.960431 
L 378.906446 571.61619 
L 388.744463 571.849389 
L 398.582479 571.878519 
L 408.420496 571.98905 
L 418.258512 572.03219 
L 428.096529 572.051414 
L 437.934545 572.098309 
L 447.772562 572.12049 
L 457.610579 572.124273 
L 467.448595 572.125911 
L 477.286612 572.138596 
L 487.124628 572.177711 
L 496.962645 572.186442 
L 506.800661 572.194488 
L 516.638678 572.204897 
L 526.476694 572.209693 
L 536.314711 572.210701 
L 546.152727 572.210831 
L 555.990744 572.212505 
L 565.82876 572.214416 
L 575.666777 572.21556 
L 585.504793 572.215875 
L 595.34281 572.216008 
L 605.180826 572.216764 
L 615.018843 572.217969 
L 624.85686 572.218007 
L 634.694876 572.218028 
L 644.532893 572.218123 
L 654.370909 572.21819 
L 664.208926 572.218219 
L 674.046942 572.218268 
L 683.884959 572.218278 
L 693.722975 572.218287 
L 703.560992 572.21843 
L 713.399008 572.218527 
L 723.237025 572.218559 
L 733.075041 572.218586 
L 742.913058 572.218602 
L 752.751074 572.218651 
L 762.589091 572.218673 
L 772.427107 572.218685 
L 782.265124 572.218709 
L 792.10314 572.218713 
L 801.941157 572.218722 
L 811.779174 572.218723 
L 821.61719 572.218725 
L 831.455207 572.218727 
L 841.293223 572.21873 
L 851.13124 572.218732 
L 860.969256 572.218734 
L 870.807273 572.218741 
L 880.645289 572.218745 
L 890.483306 572.218746 
L 900.321322 572.218748 
L 910.159339 572.218749 
L 919.997355 572.21875 
L 929.835372 572.21875 
L 939.673388 572.21875 
L 949.511405 572.21875 
L 959.349421 572.218751 
L 969.187438 572.218751 
L 979.025455 572.218751 
L 988.863471 572.218751 
L 998.701488 572.218751 
L 1008.539504 572.218751 
L 1018.377521 572.218751 
L 1028.215537 572.218751 
L 1038.053554 572.218751 
L 1047.89157 572.218751 
L 1057.729587 572.218751 
L 1067.567603 572.218751 
L 1077.40562 572.218751 
L 1087.243636 572.218751 
L 1097.081653 572.218751 
L 1106.919669 572.218751 
L 1116.757686 572.218751 
L 1126.595702 572.218751 
L 1136.433719 572.218751 
L 1146.271736 572.218751 
L 1156.109752 572.218751 
L 1165.947769 572.218751 
L 1175.785785 572.218751 
L 1185.623802 572.218751 
L 1195.461818 572.218751 
" style="fill:none;stroke:#1f77b4;stroke-linecap:square;stroke-width:1.5;"/>
   </g>
   <g id="line2d_122">
    <path clip-path="url(#p4ab849ccbb)" d="M 221.498182 109.7028 
L 231.336198 264.698267 
L 241.174215 431.210701 
L 251.012231 562.771416 
L 260.850248 574.393238 
L 270.688264 577.73901 
L 280.526281 587.06144 
L 290.364298 587.615734 
L 300.202314 590.196077 
L 310.040331 590.821993 
L 319.878347 591.529406 
L 329.716364 592.057578 
L 339.55438 592.337085 
L 349.392397 592.517622 
L 359.230413 592.58362 
L 369.06843 592.606343 
L 378.906446 592.612819 
L 388.744463 592.636312 
L 398.582479 592.643987 
L 408.420496 592.645901 
L 418.258512 592.646717 
L 428.096529 592.647181 
L 437.934545 592.64788 
L 447.772562 592.648192 
L 457.610579 592.64843 
L 467.448595 592.648501 
L 477.286612 592.648566 
L 487.124628 592.648598 
L 496.962645 592.648606 
L 506.800661 592.648612 
L 516.638678 592.648618 
L 526.476694 592.64862 
L 536.314711 592.648622 
L 546.152727 592.648623 
L 555.990744 592.648623 
L 565.82876 592.648624 
L 575.666777 592.648624 
L 585.504793 592.648624 
L 595.34281 592.648624 
L 605.180826 592.648624 
L 615.018843 592.648624 
L 624.85686 592.648624 
L 634.694876 592.648624 
L 644.532893 592.648624 
L 654.370909 592.648624 
L 664.208926 592.648624 
L 674.046942 592.648624 
L 683.884959 592.648624 
L 693.722975 592.648624 
L 703.560992 592.648624 
L 713.399008 592.648624 
L 723.237025 592.648624 
L 733.075041 592.648624 
L 742.913058 592.648624 
L 752.751074 592.648624 
L 762.589091 592.648624 
L 772.427107 592.648624 
L 782.265124 592.648624 
L 792.10314 592.648624 
L 801.941157 592.648624 
L 811.779174 592.648624 
L 821.61719 592.648624 
L 831.455207 592.648624 
L 841.293223 592.648624 
L 851.13124 592.648624 
L 860.969256 592.648624 
L 870.807273 592.648624 
L 880.645289 592.648624 
L 890.483306 592.648624 
L 900.321322 592.648624 
L 910.159339 592.648624 
L 919.997355 592.648624 
L 929.835372 592.648624 
L 939.673388 592.648624 
L 949.511405 592.648624 
L 959.349421 592.648624 
L 969.187438 592.648624 
L 979.025455 592.648624 
L 988.863471 592.648624 
L 998.701488 592.648624 
L 1008.539504 592.648624 
L 1018.377521 592.648624 
L 1028.215537 592.648624 
L 1038.053554 592.648624 
L 1047.89157 592.648624 
L 1057.729587 592.648624 
L 1067.567603 592.648624 
L 1077.40562 592.648624 
L 1087.243636 592.648624 
L 1097.081653 592.648624 
L 1106.919669 592.648624 
L 1116.757686 592.648624 
L 1126.595702 592.648624 
L 1136.433719 592.648624 
L 1146.271736 592.648624 
L 1156.109752 592.648624 
L 1165.947769 592.648624 
L 1175.785785 592.648624 
L 1185.623802 592.648624 
L 1195.461818 592.648624 
" style="fill:none;stroke:#ff7f0e;stroke-linecap:square;stroke-width:1.5;"/>
   </g>
   <g id="patch_3">
    <path d="M 172.8 629.9064 
L 172.8 84.9312 
" style="fill:none;stroke:#000000;stroke-linecap:square;stroke-linejoin:miter;stroke-width:0.8;"/>
   </g>
   <g id="patch_4">
    <path d="M 1244.16 629.9064 
L 1244.16 84.9312 
" style="fill:none;stroke:#000000;stroke-linecap:square;stroke-linejoin:miter;stroke-width:0.8;"/>
   </g>
   <g id="patch_5">
    <path d="M 172.8 629.9064 
L 1244.16 629.9064 
" style="fill:none;stroke:#000000;stroke-linecap:square;stroke-linejoin:miter;stroke-width:0.8;"/>
   </g>
   <g id="patch_6">
    <path d="M 172.8 84.9312 
L 1244.16 84.9312 
" style="fill:none;stroke:#000000;stroke-linecap:square;stroke-linejoin:miter;stroke-width:0.8;"/>
   </g>
   <g id="text_17">
    <!-- PS4 Bump Test n=2 - Objective Func. Val (w/ Quad. Penalty) vs. Iteration Number -->
    <defs>
     <path d="M 19.671875 64.796875 
L 19.671875 37.40625 
L 32.078125 37.40625 
Q 38.96875 37.40625 42.71875 40.96875 
Q 46.484375 44.53125 46.484375 51.125 
Q 46.484375 57.671875 42.71875 61.234375 
Q 38.96875 64.796875 32.078125 64.796875 
z
M 9.8125 72.90625 
L 32.078125 72.90625 
Q 44.34375 72.90625 50.609375 67.359375 
Q 56.890625 61.8125 56.890625 51.125 
Q 56.890625 40.328125 50.609375 34.8125 
Q 44.34375 29.296875 32.078125 29.296875 
L 19.671875 29.296875 
L 19.671875 0 
L 9.8125 0 
z
" id="DejaVuSans-80"/>
     <path d="M 53.515625 70.515625 
L 53.515625 60.890625 
Q 47.90625 63.578125 42.921875 64.890625 
Q 37.9375 66.21875 33.296875 66.21875 
Q 25.25 66.21875 20.875 63.09375 
Q 16.5 59.96875 16.5 54.203125 
Q 16.5 49.359375 19.40625 46.890625 
Q 22.3125 44.4375 30.421875 42.921875 
L 36.375 41.703125 
Q 47.40625 39.59375 52.65625 34.296875 
Q 57.90625 29 57.90625 20.125 
Q 57.90625 9.515625 50.796875 4.046875 
Q 43.703125 -1.421875 29.984375 -1.421875 
Q 24.8125 -1.421875 18.96875 -0.25 
Q 13.140625 0.921875 6.890625 3.21875 
L 6.890625 13.375 
Q 12.890625 10.015625 18.65625 8.296875 
Q 24.421875 6.59375 29.984375 6.59375 
Q 38.421875 6.59375 43.015625 9.90625 
Q 47.609375 13.234375 47.609375 19.390625 
Q 47.609375 24.75 44.3125 27.78125 
Q 41.015625 30.8125 33.5 32.328125 
L 27.484375 33.5 
Q 16.453125 35.6875 11.515625 40.375 
Q 6.59375 45.0625 6.59375 53.421875 
Q 6.59375 63.09375 13.40625 68.65625 
Q 20.21875 74.21875 32.171875 74.21875 
Q 37.3125 74.21875 42.625 73.28125 
Q 47.953125 72.359375 53.515625 70.515625 
z
" id="DejaVuSans-83"/>
     <path d="M 19.671875 34.8125 
L 19.671875 8.109375 
L 35.5 8.109375 
Q 43.453125 8.109375 47.28125 11.40625 
Q 51.125 14.703125 51.125 21.484375 
Q 51.125 28.328125 47.28125 31.5625 
Q 43.453125 34.8125 35.5 34.8125 
z
M 19.671875 64.796875 
L 19.671875 42.828125 
L 34.28125 42.828125 
Q 41.5 42.828125 45.03125 45.53125 
Q 48.578125 48.25 48.578125 53.8125 
Q 48.578125 59.328125 45.03125 62.0625 
Q 41.5 64.796875 34.28125 64.796875 
z
M 9.8125 72.90625 
L 35.015625 72.90625 
Q 46.296875 72.90625 52.390625 68.21875 
Q 58.5 63.53125 58.5 54.890625 
Q 58.5 48.1875 55.375 44.234375 
Q 52.25 40.28125 46.1875 39.3125 
Q 53.46875 37.75 57.5 32.78125 
Q 61.53125 27.828125 61.53125 20.40625 
Q 61.53125 10.640625 54.890625 5.3125 
Q 48.25 0 35.984375 0 
L 9.8125 0 
z
" id="DejaVuSans-66"/>
     <path d="M 8.5 21.578125 
L 8.5 54.6875 
L 17.484375 54.6875 
L 17.484375 21.921875 
Q 17.484375 14.15625 20.5 10.265625 
Q 23.53125 6.390625 29.59375 6.390625 
Q 36.859375 6.390625 41.078125 11.03125 
Q 45.3125 15.671875 45.3125 23.6875 
L 45.3125 54.6875 
L 54.296875 54.6875 
L 54.296875 0 
L 45.3125 0 
L 45.3125 8.40625 
Q 42.046875 3.421875 37.71875 1 
Q 33.40625 -1.421875 27.6875 -1.421875 
Q 18.265625 -1.421875 13.375 4.4375 
Q 8.5 10.296875 8.5 21.578125 
z
M 31.109375 56 
z
" id="DejaVuSans-117"/>
     <path d="M 52 44.1875 
Q 55.375 50.25 60.0625 53.125 
Q 64.75 56 71.09375 56 
Q 79.640625 56 84.28125 50.015625 
Q 88.921875 44.046875 88.921875 33.015625 
L 88.921875 0 
L 79.890625 0 
L 79.890625 32.71875 
Q 79.890625 40.578125 77.09375 44.375 
Q 74.3125 48.1875 68.609375 48.1875 
Q 61.625 48.1875 57.5625 43.546875 
Q 53.515625 38.921875 53.515625 30.90625 
L 53.515625 0 
L 44.484375 0 
L 44.484375 32.71875 
Q 44.484375 40.625 41.703125 44.40625 
Q 38.921875 48.1875 33.109375 48.1875 
Q 26.21875 48.1875 22.15625 43.53125 
Q 18.109375 38.875 18.109375 30.90625 
L 18.109375 0 
L 9.078125 0 
L 9.078125 54.6875 
L 18.109375 54.6875 
L 18.109375 46.1875 
Q 21.1875 51.21875 25.484375 53.609375 
Q 29.78125 56 35.6875 56 
Q 41.65625 56 45.828125 52.96875 
Q 50 49.953125 52 44.1875 
z
" id="DejaVuSans-109"/>
     <path d="M 18.109375 8.203125 
L 18.109375 -20.796875 
L 9.078125 -20.796875 
L 9.078125 54.6875 
L 18.109375 54.6875 
L 18.109375 46.390625 
Q 20.953125 51.265625 25.265625 53.625 
Q 29.59375 56 35.59375 56 
Q 45.5625 56 51.78125 48.09375 
Q 58.015625 40.1875 58.015625 27.296875 
Q 58.015625 14.40625 51.78125 6.484375 
Q 45.5625 -1.421875 35.59375 -1.421875 
Q 29.59375 -1.421875 25.265625 0.953125 
Q 20.953125 3.328125 18.109375 8.203125 
z
M 48.6875 27.296875 
Q 48.6875 37.203125 44.609375 42.84375 
Q 40.53125 48.484375 33.40625 48.484375 
Q 26.265625 48.484375 22.1875 42.84375 
Q 18.109375 37.203125 18.109375 27.296875 
Q 18.109375 17.390625 22.1875 11.75 
Q 26.265625 6.109375 33.40625 6.109375 
Q 40.53125 6.109375 44.609375 11.75 
Q 48.6875 17.390625 48.6875 27.296875 
z
" id="DejaVuSans-112"/>
     <path d="M -0.296875 72.90625 
L 61.375 72.90625 
L 61.375 64.59375 
L 35.5 64.59375 
L 35.5 0 
L 25.59375 0 
L 25.59375 64.59375 
L -0.296875 64.59375 
z
" id="DejaVuSans-84"/>
     <path d="M 44.28125 53.078125 
L 44.28125 44.578125 
Q 40.484375 46.53125 36.375 47.5 
Q 32.28125 48.484375 27.875 48.484375 
Q 21.1875 48.484375 17.84375 46.4375 
Q 14.5 44.390625 14.5 40.28125 
Q 14.5 37.15625 16.890625 35.375 
Q 19.28125 33.59375 26.515625 31.984375 
L 29.59375 31.296875 
Q 39.15625 29.25 43.1875 25.515625 
Q 47.21875 21.78125 47.21875 15.09375 
Q 47.21875 7.46875 41.1875 3.015625 
Q 35.15625 -1.421875 24.609375 -1.421875 
Q 20.21875 -1.421875 15.453125 -0.5625 
Q 10.6875 0.296875 5.421875 2 
L 5.421875 11.28125 
Q 10.40625 8.6875 15.234375 7.390625 
Q 20.0625 6.109375 24.8125 6.109375 
Q 31.15625 6.109375 34.5625 8.28125 
Q 37.984375 10.453125 37.984375 14.40625 
Q 37.984375 18.0625 35.515625 20.015625 
Q 33.0625 21.96875 24.703125 23.78125 
L 21.578125 24.515625 
Q 13.234375 26.265625 9.515625 29.90625 
Q 5.8125 33.546875 5.8125 39.890625 
Q 5.8125 47.609375 11.28125 51.796875 
Q 16.75 56 26.8125 56 
Q 31.78125 56 36.171875 55.265625 
Q 40.578125 54.546875 44.28125 53.078125 
z
" id="DejaVuSans-115"/>
     <path d="M 10.59375 45.40625 
L 73.1875 45.40625 
L 73.1875 37.203125 
L 10.59375 37.203125 
z
M 10.59375 25.484375 
L 73.1875 25.484375 
L 73.1875 17.1875 
L 10.59375 17.1875 
z
" id="DejaVuSans-61"/>
     <path d="M 4.890625 31.390625 
L 31.203125 31.390625 
L 31.203125 23.390625 
L 4.890625 23.390625 
z
" id="DejaVuSans-45"/>
     <path d="M 39.40625 66.21875 
Q 28.65625 66.21875 22.328125 58.203125 
Q 16.015625 50.203125 16.015625 36.375 
Q 16.015625 22.609375 22.328125 14.59375 
Q 28.65625 6.59375 39.40625 6.59375 
Q 50.140625 6.59375 56.421875 14.59375 
Q 62.703125 22.609375 62.703125 36.375 
Q 62.703125 50.203125 56.421875 58.203125 
Q 50.140625 66.21875 39.40625 66.21875 
z
M 39.40625 74.21875 
Q 54.734375 74.21875 63.90625 63.9375 
Q 73.09375 53.65625 73.09375 36.375 
Q 73.09375 19.140625 63.90625 8.859375 
Q 54.734375 -1.421875 39.40625 -1.421875 
Q 24.03125 -1.421875 14.8125 8.828125 
Q 5.609375 19.09375 5.609375 36.375 
Q 5.609375 53.65625 14.8125 63.9375 
Q 24.03125 74.21875 39.40625 74.21875 
z
" id="DejaVuSans-79"/>
     <path d="M 48.6875 27.296875 
Q 48.6875 37.203125 44.609375 42.84375 
Q 40.53125 48.484375 33.40625 48.484375 
Q 26.265625 48.484375 22.1875 42.84375 
Q 18.109375 37.203125 18.109375 27.296875 
Q 18.109375 17.390625 22.1875 11.75 
Q 26.265625 6.109375 33.40625 6.109375 
Q 40.53125 6.109375 44.609375 11.75 
Q 48.6875 17.390625 48.6875 27.296875 
z
M 18.109375 46.390625 
Q 20.953125 51.265625 25.265625 53.625 
Q 29.59375 56 35.59375 56 
Q 45.5625 56 51.78125 48.09375 
Q 58.015625 40.1875 58.015625 27.296875 
Q 58.015625 14.40625 51.78125 6.484375 
Q 45.5625 -1.421875 35.59375 -1.421875 
Q 29.59375 -1.421875 25.265625 0.953125 
Q 20.953125 3.328125 18.109375 8.203125 
L 18.109375 0 
L 9.078125 0 
L 9.078125 75.984375 
L 18.109375 75.984375 
z
" id="DejaVuSans-98"/>
     <path d="M 9.421875 54.6875 
L 18.40625 54.6875 
L 18.40625 -0.984375 
Q 18.40625 -11.421875 14.421875 -16.109375 
Q 10.453125 -20.796875 1.609375 -20.796875 
L -1.8125 -20.796875 
L -1.8125 -13.1875 
L 0.59375 -13.1875 
Q 5.71875 -13.1875 7.5625 -10.8125 
Q 9.421875 -8.453125 9.421875 -0.984375 
z
M 9.421875 75.984375 
L 18.40625 75.984375 
L 18.40625 64.59375 
L 9.421875 64.59375 
z
" id="DejaVuSans-106"/>
     <path d="M 48.78125 52.59375 
L 48.78125 44.1875 
Q 44.96875 46.296875 41.140625 47.34375 
Q 37.3125 48.390625 33.40625 48.390625 
Q 24.65625 48.390625 19.8125 42.84375 
Q 14.984375 37.3125 14.984375 27.296875 
Q 14.984375 17.28125 19.8125 11.734375 
Q 24.65625 6.203125 33.40625 6.203125 
Q 37.3125 6.203125 41.140625 7.25 
Q 44.96875 8.296875 48.78125 10.40625 
L 48.78125 2.09375 
Q 45.015625 0.34375 40.984375 -0.53125 
Q 36.96875 -1.421875 32.421875 -1.421875 
Q 20.0625 -1.421875 12.78125 6.34375 
Q 5.515625 14.109375 5.515625 27.296875 
Q 5.515625 40.671875 12.859375 48.328125 
Q 20.21875 56 33.015625 56 
Q 37.15625 56 41.109375 55.140625 
Q 45.0625 54.296875 48.78125 52.59375 
z
" id="DejaVuSans-99"/>
     <path d="M 2.984375 54.6875 
L 12.5 54.6875 
L 29.59375 8.796875 
L 46.6875 54.6875 
L 56.203125 54.6875 
L 35.6875 0 
L 23.484375 0 
z
" id="DejaVuSans-118"/>
     <path d="M 9.8125 72.90625 
L 51.703125 72.90625 
L 51.703125 64.59375 
L 19.671875 64.59375 
L 19.671875 43.109375 
L 48.578125 43.109375 
L 48.578125 34.8125 
L 19.671875 34.8125 
L 19.671875 0 
L 9.8125 0 
z
" id="DejaVuSans-70"/>
     <path d="M 28.609375 0 
L 0.78125 72.90625 
L 11.078125 72.90625 
L 34.1875 11.53125 
L 57.328125 72.90625 
L 67.578125 72.90625 
L 39.796875 0 
z
" id="DejaVuSans-86"/>
     <path d="M 9.421875 75.984375 
L 18.40625 75.984375 
L 18.40625 0 
L 9.421875 0 
z
" id="DejaVuSans-108"/>
     <path d="M 4.203125 54.6875 
L 13.1875 54.6875 
L 24.421875 12.015625 
L 35.59375 54.6875 
L 46.1875 54.6875 
L 57.421875 12.015625 
L 68.609375 54.6875 
L 77.59375 54.6875 
L 63.28125 0 
L 52.6875 0 
L 40.921875 44.828125 
L 29.109375 0 
L 18.5 0 
z
" id="DejaVuSans-119"/>
     <path d="M 25.390625 72.90625 
L 33.6875 72.90625 
L 8.296875 -9.28125 
L 0 -9.28125 
z
" id="DejaVuSans-47"/>
     <path d="M 39.40625 66.21875 
Q 28.65625 66.21875 22.328125 58.203125 
Q 16.015625 50.203125 16.015625 36.375 
Q 16.015625 22.609375 22.328125 14.59375 
Q 28.65625 6.59375 39.40625 6.59375 
Q 50.140625 6.59375 56.421875 14.59375 
Q 62.703125 22.609375 62.703125 36.375 
Q 62.703125 50.203125 56.421875 58.203125 
Q 50.140625 66.21875 39.40625 66.21875 
z
M 53.21875 1.3125 
L 66.21875 -12.890625 
L 54.296875 -12.890625 
L 43.5 -1.21875 
Q 41.890625 -1.3125 41.03125 -1.359375 
Q 40.1875 -1.421875 39.40625 -1.421875 
Q 24.03125 -1.421875 14.8125 8.859375 
Q 5.609375 19.140625 5.609375 36.375 
Q 5.609375 53.65625 14.8125 63.9375 
Q 24.03125 74.21875 39.40625 74.21875 
Q 54.734375 74.21875 63.90625 63.9375 
Q 73.09375 53.65625 73.09375 36.375 
Q 73.09375 23.6875 67.984375 14.640625 
Q 62.890625 5.609375 53.21875 1.3125 
z
" id="DejaVuSans-81"/>
     <path d="M 45.40625 46.390625 
L 45.40625 75.984375 
L 54.390625 75.984375 
L 54.390625 0 
L 45.40625 0 
L 45.40625 8.203125 
Q 42.578125 3.328125 38.25 0.953125 
Q 33.9375 -1.421875 27.875 -1.421875 
Q 17.96875 -1.421875 11.734375 6.484375 
Q 5.515625 14.40625 5.515625 27.296875 
Q 5.515625 40.1875 11.734375 48.09375 
Q 17.96875 56 27.875 56 
Q 33.9375 56 38.25 53.625 
Q 42.578125 51.265625 45.40625 46.390625 
z
M 14.796875 27.296875 
Q 14.796875 17.390625 18.875 11.75 
Q 22.953125 6.109375 30.078125 6.109375 
Q 37.203125 6.109375 41.296875 11.75 
Q 45.40625 17.390625 45.40625 27.296875 
Q 45.40625 37.203125 41.296875 42.84375 
Q 37.203125 48.484375 30.078125 48.484375 
Q 22.953125 48.484375 18.875 42.84375 
Q 14.796875 37.203125 14.796875 27.296875 
z
" id="DejaVuSans-100"/>
     <path d="M 32.171875 -5.078125 
Q 28.375 -14.84375 24.75 -17.8125 
Q 21.140625 -20.796875 15.09375 -20.796875 
L 7.90625 -20.796875 
L 7.90625 -13.28125 
L 13.1875 -13.28125 
Q 16.890625 -13.28125 18.9375 -11.515625 
Q 21 -9.765625 23.484375 -3.21875 
L 25.09375 0.875 
L 2.984375 54.6875 
L 12.5 54.6875 
L 29.59375 11.921875 
L 46.6875 54.6875 
L 56.203125 54.6875 
z
" id="DejaVuSans-121"/>
     <path d="M 9.8125 72.90625 
L 23.09375 72.90625 
L 55.421875 11.921875 
L 55.421875 72.90625 
L 64.984375 72.90625 
L 64.984375 0 
L 51.703125 0 
L 19.390625 60.984375 
L 19.390625 0 
L 9.8125 0 
z
" id="DejaVuSans-78"/>
    </defs>
    <g transform="translate(465.072187 78.9312)scale(0.12 -0.12)">
     <use xlink:href="#DejaVuSans-80"/>
     <use x="60.302734" xlink:href="#DejaVuSans-83"/>
     <use x="123.779297" xlink:href="#DejaVuSans-52"/>
     <use x="187.402344" xlink:href="#DejaVuSans-32"/>
     <use x="219.189453" xlink:href="#DejaVuSans-66"/>
     <use x="287.792969" xlink:href="#DejaVuSans-117"/>
     <use x="351.171875" xlink:href="#DejaVuSans-109"/>
     <use x="448.583984" xlink:href="#DejaVuSans-112"/>
     <use x="512.060547" xlink:href="#DejaVuSans-32"/>
     <use x="543.847656" xlink:href="#DejaVuSans-84"/>
     <use x="587.931641" xlink:href="#DejaVuSans-101"/>
     <use x="649.455078" xlink:href="#DejaVuSans-115"/>
     <use x="701.554688" xlink:href="#DejaVuSans-116"/>
     <use x="740.763672" xlink:href="#DejaVuSans-32"/>
     <use x="772.550781" xlink:href="#DejaVuSans-110"/>
     <use x="835.929688" xlink:href="#DejaVuSans-61"/>
     <use x="919.71875" xlink:href="#DejaVuSans-50"/>
     <use x="983.341797" xlink:href="#DejaVuSans-32"/>
     <use x="1015.128906" xlink:href="#DejaVuSans-45"/>
     <use x="1051.212891" xlink:href="#DejaVuSans-32"/>
     <use x="1083" xlink:href="#DejaVuSans-79"/>
     <use x="1161.710938" xlink:href="#DejaVuSans-98"/>
     <use x="1225.1875" xlink:href="#DejaVuSans-106"/>
     <use x="1252.970703" xlink:href="#DejaVuSans-101"/>
     <use x="1314.494141" xlink:href="#DejaVuSans-99"/>
     <use x="1369.474609" xlink:href="#DejaVuSans-116"/>
     <use x="1408.683594" xlink:href="#DejaVuSans-105"/>
     <use x="1436.466797" xlink:href="#DejaVuSans-118"/>
     <use x="1495.646484" xlink:href="#DejaVuSans-101"/>
     <use x="1557.169922" xlink:href="#DejaVuSans-32"/>
     <use x="1588.957031" xlink:href="#DejaVuSans-70"/>
     <use x="1640.976562" xlink:href="#DejaVuSans-117"/>
     <use x="1704.355469" xlink:href="#DejaVuSans-110"/>
     <use x="1767.734375" xlink:href="#DejaVuSans-99"/>
     <use x="1822.714844" xlink:href="#DejaVuSans-46"/>
     <use x="1854.501953" xlink:href="#DejaVuSans-32"/>
     <use x="1886.289062" xlink:href="#DejaVuSans-86"/>
     <use x="1946.947266" xlink:href="#DejaVuSans-97"/>
     <use x="2008.226562" xlink:href="#DejaVuSans-108"/>
     <use x="2036.009766" xlink:href="#DejaVuSans-32"/>
     <use x="2067.796875" xlink:href="#DejaVuSans-40"/>
     <use x="2106.810547" xlink:href="#DejaVuSans-119"/>
     <use x="2188.597656" xlink:href="#DejaVuSans-47"/>
     <use x="2222.289062" xlink:href="#DejaVuSans-32"/>
     <use x="2254.076172" xlink:href="#DejaVuSans-81"/>
     <use x="2332.787109" xlink:href="#DejaVuSans-117"/>
     <use x="2396.166016" xlink:href="#DejaVuSans-97"/>
     <use x="2457.445312" xlink:href="#DejaVuSans-100"/>
     <use x="2520.921875" xlink:href="#DejaVuSans-46"/>
     <use x="2552.708984" xlink:href="#DejaVuSans-32"/>
     <use x="2584.496094" xlink:href="#DejaVuSans-80"/>
     <use x="2641.173828" xlink:href="#DejaVuSans-101"/>
     <use x="2702.697266" xlink:href="#DejaVuSans-110"/>
     <use x="2766.076172" xlink:href="#DejaVuSans-97"/>
     <use x="2827.355469" xlink:href="#DejaVuSans-108"/>
     <use x="2855.138672" xlink:href="#DejaVuSans-116"/>
     <use x="2894.347656" xlink:href="#DejaVuSans-121"/>
     <use x="2953.527344" xlink:href="#DejaVuSans-41"/>
     <use x="2992.541016" xlink:href="#DejaVuSans-32"/>
     <use x="3024.328125" xlink:href="#DejaVuSans-118"/>
     <use x="3083.507812" xlink:href="#DejaVuSans-115"/>
     <use x="3135.607422" xlink:href="#DejaVuSans-46"/>
     <use x="3167.394531" xlink:href="#DejaVuSans-32"/>
     <use x="3199.181641" xlink:href="#DejaVuSans-73"/>
     <use x="3228.673828" xlink:href="#DejaVuSans-116"/>
     <use x="3267.882812" xlink:href="#DejaVuSans-101"/>
     <use x="3329.40625" xlink:href="#DejaVuSans-114"/>
     <use x="3370.519531" xlink:href="#DejaVuSans-97"/>
     <use x="3431.798828" xlink:href="#DejaVuSans-116"/>
     <use x="3471.007812" xlink:href="#DejaVuSans-105"/>
     <use x="3498.791016" xlink:href="#DejaVuSans-111"/>
     <use x="3559.972656" xlink:href="#DejaVuSans-110"/>
     <use x="3623.351562" xlink:href="#DejaVuSans-32"/>
     <use x="3655.138672" xlink:href="#DejaVuSans-78"/>
     <use x="3729.943359" xlink:href="#DejaVuSans-117"/>
     <use x="3793.322266" xlink:href="#DejaVuSans-109"/>
     <use x="3890.734375" xlink:href="#DejaVuSans-98"/>
     <use x="3954.210938" xlink:href="#DejaVuSans-101"/>
     <use x="4015.734375" xlink:href="#DejaVuSans-114"/>
    </g>
   </g>
   <g id="legend_1">
    <g id="patch_7">
     <path d="M 676.180312 122.565575 
L 1237.16 122.565575 
Q 1239.16 122.565575 1239.16 120.565575 
L 1239.16 91.9312 
Q 1239.16 89.9312 1237.16 89.9312 
L 676.180312 89.9312 
Q 674.180312 89.9312 674.180312 91.9312 
L 674.180312 120.565575 
Q 674.180312 122.565575 676.180312 122.565575 
z
" style="fill:#ffffff;opacity:0.8;stroke:#cccccc;stroke-linejoin:miter;"/>
    </g>
    <g id="line2d_123">
     <path d="M 678.180312 98.029637 
L 698.180312 98.029637 
" style="fill:none;stroke:#1f77b4;stroke-linecap:square;stroke-width:1.5;"/>
    </g>
    <g id="line2d_124"/>
    <g id="text_18">
     <!-- minVal:-0.36497975, cIter: 98 - w: 0.50000, c1: 1.50000, c2: 1.50000, rho: 5, boundMethod: reflect -->
     <defs>
      <path d="M 11.71875 12.40625 
L 22.015625 12.40625 
L 22.015625 0 
L 11.71875 0 
z
M 11.71875 51.703125 
L 22.015625 51.703125 
L 22.015625 39.3125 
L 11.71875 39.3125 
z
" id="DejaVuSans-58"/>
      <path d="M 10.984375 1.515625 
L 10.984375 10.5 
Q 14.703125 8.734375 18.5 7.8125 
Q 22.3125 6.890625 25.984375 6.890625 
Q 35.75 6.890625 40.890625 13.453125 
Q 46.046875 20.015625 46.78125 33.40625 
Q 43.953125 29.203125 39.59375 26.953125 
Q 35.25 24.703125 29.984375 24.703125 
Q 19.046875 24.703125 12.671875 31.3125 
Q 6.296875 37.9375 6.296875 49.421875 
Q 6.296875 60.640625 12.9375 67.421875 
Q 19.578125 74.21875 30.609375 74.21875 
Q 43.265625 74.21875 49.921875 64.515625 
Q 56.59375 54.828125 56.59375 36.375 
Q 56.59375 19.140625 48.40625 8.859375 
Q 40.234375 -1.421875 26.421875 -1.421875 
Q 22.703125 -1.421875 18.890625 -0.6875 
Q 15.09375 0.046875 10.984375 1.515625 
z
M 30.609375 32.421875 
Q 37.25 32.421875 41.125 36.953125 
Q 45.015625 41.5 45.015625 49.421875 
Q 45.015625 57.28125 41.125 61.84375 
Q 37.25 66.40625 30.609375 66.40625 
Q 23.96875 66.40625 20.09375 61.84375 
Q 16.21875 57.28125 16.21875 49.421875 
Q 16.21875 41.5 20.09375 36.953125 
Q 23.96875 32.421875 30.609375 32.421875 
z
" id="DejaVuSans-57"/>
      <path d="M 8.203125 72.90625 
L 55.078125 72.90625 
L 55.078125 68.703125 
L 28.609375 0 
L 18.3125 0 
L 43.21875 64.59375 
L 8.203125 64.59375 
z
" id="DejaVuSans-55"/>
      <path d="M 54.890625 33.015625 
L 54.890625 0 
L 45.90625 0 
L 45.90625 32.71875 
Q 45.90625 40.484375 42.875 44.328125 
Q 39.84375 48.1875 33.796875 48.1875 
Q 26.515625 48.1875 22.3125 43.546875 
Q 18.109375 38.921875 18.109375 30.90625 
L 18.109375 0 
L 9.078125 0 
L 9.078125 75.984375 
L 18.109375 75.984375 
L 18.109375 46.1875 
Q 21.34375 51.125 25.703125 53.5625 
Q 30.078125 56 35.796875 56 
Q 45.21875 56 50.046875 50.171875 
Q 54.890625 44.34375 54.890625 33.015625 
z
" id="DejaVuSans-104"/>
      <path d="M 9.8125 72.90625 
L 24.515625 72.90625 
L 43.109375 23.296875 
L 61.8125 72.90625 
L 76.515625 72.90625 
L 76.515625 0 
L 66.890625 0 
L 66.890625 64.015625 
L 48.09375 14.015625 
L 38.1875 14.015625 
L 19.390625 64.015625 
L 19.390625 0 
L 9.8125 0 
z
" id="DejaVuSans-77"/>
      <path d="M 37.109375 75.984375 
L 37.109375 68.5 
L 28.515625 68.5 
Q 23.6875 68.5 21.796875 66.546875 
Q 19.921875 64.59375 19.921875 59.515625 
L 19.921875 54.6875 
L 34.71875 54.6875 
L 34.71875 47.703125 
L 19.921875 47.703125 
L 19.921875 0 
L 10.890625 0 
L 10.890625 47.703125 
L 2.296875 47.703125 
L 2.296875 54.6875 
L 10.890625 54.6875 
L 10.890625 58.5 
Q 10.890625 67.625 15.140625 71.796875 
Q 19.390625 75.984375 28.609375 75.984375 
z
" id="DejaVuSans-102"/>
     </defs>
     <g transform="translate(706.180312 101.529637)scale(0.1 -0.1)">
      <use xlink:href="#DejaVuSans-109"/>
      <use x="97.412109" xlink:href="#DejaVuSans-105"/>
      <use x="125.195312" xlink:href="#DejaVuSans-110"/>
      <use x="188.574219" xlink:href="#DejaVuSans-86"/>
      <use x="249.232422" xlink:href="#DejaVuSans-97"/>
      <use x="310.511719" xlink:href="#DejaVuSans-108"/>
      <use x="338.294922" xlink:href="#DejaVuSans-58"/>
      <use x="371.986328" xlink:href="#DejaVuSans-45"/>
      <use x="408.070312" xlink:href="#DejaVuSans-48"/>
      <use x="471.693359" xlink:href="#DejaVuSans-46"/>
      <use x="503.480469" xlink:href="#DejaVuSans-51"/>
      <use x="567.103516" xlink:href="#DejaVuSans-54"/>
      <use x="630.726562" xlink:href="#DejaVuSans-52"/>
      <use x="694.349609" xlink:href="#DejaVuSans-57"/>
      <use x="757.972656" xlink:href="#DejaVuSans-55"/>
      <use x="821.595703" xlink:href="#DejaVuSans-57"/>
      <use x="885.21875" xlink:href="#DejaVuSans-55"/>
      <use x="948.841797" xlink:href="#DejaVuSans-53"/>
      <use x="1012.464844" xlink:href="#DejaVuSans-44"/>
      <use x="1044.251953" xlink:href="#DejaVuSans-32"/>
      <use x="1076.039062" xlink:href="#DejaVuSans-99"/>
      <use x="1131.019531" xlink:href="#DejaVuSans-73"/>
      <use x="1160.511719" xlink:href="#DejaVuSans-116"/>
      <use x="1199.720703" xlink:href="#DejaVuSans-101"/>
      <use x="1261.244141" xlink:href="#DejaVuSans-114"/>
      <use x="1300.607422" xlink:href="#DejaVuSans-58"/>
      <use x="1334.298828" xlink:href="#DejaVuSans-32"/>
      <use x="1366.085938" xlink:href="#DejaVuSans-57"/>
      <use x="1429.708984" xlink:href="#DejaVuSans-56"/>
      <use x="1493.332031" xlink:href="#DejaVuSans-32"/>
      <use x="1525.119141" xlink:href="#DejaVuSans-45"/>
      <use x="1561.203125" xlink:href="#DejaVuSans-32"/>
      <use x="1592.990234" xlink:href="#DejaVuSans-119"/>
      <use x="1669.277344" xlink:href="#DejaVuSans-58"/>
      <use x="1702.96875" xlink:href="#DejaVuSans-32"/>
      <use x="1734.755859" xlink:href="#DejaVuSans-48"/>
      <use x="1798.378906" xlink:href="#DejaVuSans-46"/>
      <use x="1830.166016" xlink:href="#DejaVuSans-53"/>
      <use x="1893.789062" xlink:href="#DejaVuSans-48"/>
      <use x="1957.412109" xlink:href="#DejaVuSans-48"/>
      <use x="2021.035156" xlink:href="#DejaVuSans-48"/>
      <use x="2084.658203" xlink:href="#DejaVuSans-48"/>
      <use x="2148.28125" xlink:href="#DejaVuSans-44"/>
      <use x="2180.068359" xlink:href="#DejaVuSans-32"/>
      <use x="2211.855469" xlink:href="#DejaVuSans-99"/>
      <use x="2266.835938" xlink:href="#DejaVuSans-49"/>
      <use x="2330.458984" xlink:href="#DejaVuSans-58"/>
      <use x="2364.150391" xlink:href="#DejaVuSans-32"/>
      <use x="2395.9375" xlink:href="#DejaVuSans-49"/>
      <use x="2459.560547" xlink:href="#DejaVuSans-46"/>
      <use x="2491.347656" xlink:href="#DejaVuSans-53"/>
      <use x="2554.970703" xlink:href="#DejaVuSans-48"/>
      <use x="2618.59375" xlink:href="#DejaVuSans-48"/>
      <use x="2682.216797" xlink:href="#DejaVuSans-48"/>
      <use x="2745.839844" xlink:href="#DejaVuSans-48"/>
      <use x="2809.462891" xlink:href="#DejaVuSans-44"/>
      <use x="2841.25" xlink:href="#DejaVuSans-32"/>
      <use x="2873.037109" xlink:href="#DejaVuSans-99"/>
      <use x="2928.017578" xlink:href="#DejaVuSans-50"/>
      <use x="2991.640625" xlink:href="#DejaVuSans-58"/>
      <use x="3025.332031" xlink:href="#DejaVuSans-32"/>
      <use x="3057.119141" xlink:href="#DejaVuSans-49"/>
      <use x="3120.742188" xlink:href="#DejaVuSans-46"/>
      <use x="3152.529297" xlink:href="#DejaVuSans-53"/>
      <use x="3216.152344" xlink:href="#DejaVuSans-48"/>
      <use x="3279.775391" xlink:href="#DejaVuSans-48"/>
      <use x="3343.398438" xlink:href="#DejaVuSans-48"/>
      <use x="3407.021484" xlink:href="#DejaVuSans-48"/>
      <use x="3470.644531" xlink:href="#DejaVuSans-44"/>
      <use x="3502.431641" xlink:href="#DejaVuSans-32"/>
      <use x="3534.21875" xlink:href="#DejaVuSans-114"/>
      <use x="3573.582031" xlink:href="#DejaVuSans-104"/>
      <use x="3636.960938" xlink:href="#DejaVuSans-111"/>
      <use x="3698.142578" xlink:href="#DejaVuSans-58"/>
      <use x="3731.833984" xlink:href="#DejaVuSans-32"/>
      <use x="3763.621094" xlink:href="#DejaVuSans-53"/>
      <use x="3827.244141" xlink:href="#DejaVuSans-44"/>
      <use x="3859.03125" xlink:href="#DejaVuSans-32"/>
      <use x="3890.818359" xlink:href="#DejaVuSans-98"/>
      <use x="3954.294922" xlink:href="#DejaVuSans-111"/>
      <use x="4015.476562" xlink:href="#DejaVuSans-117"/>
      <use x="4078.855469" xlink:href="#DejaVuSans-110"/>
      <use x="4142.234375" xlink:href="#DejaVuSans-100"/>
      <use x="4205.710938" xlink:href="#DejaVuSans-77"/>
      <use x="4291.990234" xlink:href="#DejaVuSans-101"/>
      <use x="4353.513672" xlink:href="#DejaVuSans-116"/>
      <use x="4392.722656" xlink:href="#DejaVuSans-104"/>
      <use x="4456.101562" xlink:href="#DejaVuSans-111"/>
      <use x="4517.283203" xlink:href="#DejaVuSans-100"/>
      <use x="4580.759766" xlink:href="#DejaVuSans-58"/>
      <use x="4614.451172" xlink:href="#DejaVuSans-32"/>
      <use x="4646.238281" xlink:href="#DejaVuSans-114"/>
      <use x="4685.101562" xlink:href="#DejaVuSans-101"/>
      <use x="4746.625" xlink:href="#DejaVuSans-102"/>
      <use x="4781.830078" xlink:href="#DejaVuSans-108"/>
      <use x="4809.613281" xlink:href="#DejaVuSans-101"/>
      <use x="4871.136719" xlink:href="#DejaVuSans-99"/>
      <use x="4926.117188" xlink:href="#DejaVuSans-116"/>
     </g>
    </g>
    <g id="line2d_125">
     <path d="M 678.180312 112.707762 
L 698.180312 112.707762 
" style="fill:none;stroke:#ff7f0e;stroke-linecap:square;stroke-width:1.5;"/>
    </g>
    <g id="line2d_126"/>
    <g id="text_19">
     <!-- minVal:-0.37950650, cIter: 97 - w: 0.50000, c1: 1.50000, c2: 1.50000, rho_static: 5, boundMethod: reflect -->
     <defs>
      <path d="M 50.984375 -16.609375 
L 50.984375 -23.578125 
L -0.984375 -23.578125 
L -0.984375 -16.609375 
z
" id="DejaVuSans-95"/>
     </defs>
     <g transform="translate(706.180312 116.207762)scale(0.1 -0.1)">
      <use xlink:href="#DejaVuSans-109"/>
      <use x="97.412109" xlink:href="#DejaVuSans-105"/>
      <use x="125.195312" xlink:href="#DejaVuSans-110"/>
      <use x="188.574219" xlink:href="#DejaVuSans-86"/>
      <use x="249.232422" xlink:href="#DejaVuSans-97"/>
      <use x="310.511719" xlink:href="#DejaVuSans-108"/>
      <use x="338.294922" xlink:href="#DejaVuSans-58"/>
      <use x="371.986328" xlink:href="#DejaVuSans-45"/>
      <use x="408.070312" xlink:href="#DejaVuSans-48"/>
      <use x="471.693359" xlink:href="#DejaVuSans-46"/>
      <use x="503.480469" xlink:href="#DejaVuSans-51"/>
      <use x="567.103516" xlink:href="#DejaVuSans-55"/>
      <use x="630.726562" xlink:href="#DejaVuSans-57"/>
      <use x="694.349609" xlink:href="#DejaVuSans-53"/>
      <use x="757.972656" xlink:href="#DejaVuSans-48"/>
      <use x="821.595703" xlink:href="#DejaVuSans-54"/>
      <use x="885.21875" xlink:href="#DejaVuSans-53"/>
      <use x="948.841797" xlink:href="#DejaVuSans-48"/>
      <use x="1012.464844" xlink:href="#DejaVuSans-44"/>
      <use x="1044.251953" xlink:href="#DejaVuSans-32"/>
      <use x="1076.039062" xlink:href="#DejaVuSans-99"/>
      <use x="1131.019531" xlink:href="#DejaVuSans-73"/>
      <use x="1160.511719" xlink:href="#DejaVuSans-116"/>
      <use x="1199.720703" xlink:href="#DejaVuSans-101"/>
      <use x="1261.244141" xlink:href="#DejaVuSans-114"/>
      <use x="1300.607422" xlink:href="#DejaVuSans-58"/>
      <use x="1334.298828" xlink:href="#DejaVuSans-32"/>
      <use x="1366.085938" xlink:href="#DejaVuSans-57"/>
      <use x="1429.708984" xlink:href="#DejaVuSans-55"/>
      <use x="1493.332031" xlink:href="#DejaVuSans-32"/>
      <use x="1525.119141" xlink:href="#DejaVuSans-45"/>
      <use x="1561.203125" xlink:href="#DejaVuSans-32"/>
      <use x="1592.990234" xlink:href="#DejaVuSans-119"/>
      <use x="1669.277344" xlink:href="#DejaVuSans-58"/>
      <use x="1702.96875" xlink:href="#DejaVuSans-32"/>
      <use x="1734.755859" xlink:href="#DejaVuSans-48"/>
      <use x="1798.378906" xlink:href="#DejaVuSans-46"/>
      <use x="1830.166016" xlink:href="#DejaVuSans-53"/>
      <use x="1893.789062" xlink:href="#DejaVuSans-48"/>
      <use x="1957.412109" xlink:href="#DejaVuSans-48"/>
      <use x="2021.035156" xlink:href="#DejaVuSans-48"/>
      <use x="2084.658203" xlink:href="#DejaVuSans-48"/>
      <use x="2148.28125" xlink:href="#DejaVuSans-44"/>
      <use x="2180.068359" xlink:href="#DejaVuSans-32"/>
      <use x="2211.855469" xlink:href="#DejaVuSans-99"/>
      <use x="2266.835938" xlink:href="#DejaVuSans-49"/>
      <use x="2330.458984" xlink:href="#DejaVuSans-58"/>
      <use x="2364.150391" xlink:href="#DejaVuSans-32"/>
      <use x="2395.9375" xlink:href="#DejaVuSans-49"/>
      <use x="2459.560547" xlink:href="#DejaVuSans-46"/>
      <use x="2491.347656" xlink:href="#DejaVuSans-53"/>
      <use x="2554.970703" xlink:href="#DejaVuSans-48"/>
      <use x="2618.59375" xlink:href="#DejaVuSans-48"/>
      <use x="2682.216797" xlink:href="#DejaVuSans-48"/>
      <use x="2745.839844" xlink:href="#DejaVuSans-48"/>
      <use x="2809.462891" xlink:href="#DejaVuSans-44"/>
      <use x="2841.25" xlink:href="#DejaVuSans-32"/>
      <use x="2873.037109" xlink:href="#DejaVuSans-99"/>
      <use x="2928.017578" xlink:href="#DejaVuSans-50"/>
      <use x="2991.640625" xlink:href="#DejaVuSans-58"/>
      <use x="3025.332031" xlink:href="#DejaVuSans-32"/>
      <use x="3057.119141" xlink:href="#DejaVuSans-49"/>
      <use x="3120.742188" xlink:href="#DejaVuSans-46"/>
      <use x="3152.529297" xlink:href="#DejaVuSans-53"/>
      <use x="3216.152344" xlink:href="#DejaVuSans-48"/>
      <use x="3279.775391" xlink:href="#DejaVuSans-48"/>
      <use x="3343.398438" xlink:href="#DejaVuSans-48"/>
      <use x="3407.021484" xlink:href="#DejaVuSans-48"/>
      <use x="3470.644531" xlink:href="#DejaVuSans-44"/>
      <use x="3502.431641" xlink:href="#DejaVuSans-32"/>
      <use x="3534.21875" xlink:href="#DejaVuSans-114"/>
      <use x="3573.582031" xlink:href="#DejaVuSans-104"/>
      <use x="3636.960938" xlink:href="#DejaVuSans-111"/>
      <use x="3698.142578" xlink:href="#DejaVuSans-95"/>
      <use x="3748.142578" xlink:href="#DejaVuSans-115"/>
      <use x="3800.242188" xlink:href="#DejaVuSans-116"/>
      <use x="3839.451172" xlink:href="#DejaVuSans-97"/>
      <use x="3900.730469" xlink:href="#DejaVuSans-116"/>
      <use x="3939.939453" xlink:href="#DejaVuSans-105"/>
      <use x="3967.722656" xlink:href="#DejaVuSans-99"/>
      <use x="4022.703125" xlink:href="#DejaVuSans-58"/>
      <use x="4056.394531" xlink:href="#DejaVuSans-32"/>
      <use x="4088.181641" xlink:href="#DejaVuSans-53"/>
      <use x="4151.804688" xlink:href="#DejaVuSans-44"/>
      <use x="4183.591797" xlink:href="#DejaVuSans-32"/>
      <use x="4215.378906" xlink:href="#DejaVuSans-98"/>
      <use x="4278.855469" xlink:href="#DejaVuSans-111"/>
      <use x="4340.037109" xlink:href="#DejaVuSans-117"/>
      <use x="4403.416016" xlink:href="#DejaVuSans-110"/>
      <use x="4466.794922" xlink:href="#DejaVuSans-100"/>
      <use x="4530.271484" xlink:href="#DejaVuSans-77"/>
      <use x="4616.550781" xlink:href="#DejaVuSans-101"/>
      <use x="4678.074219" xlink:href="#DejaVuSans-116"/>
      <use x="4717.283203" xlink:href="#DejaVuSans-104"/>
      <use x="4780.662109" xlink:href="#DejaVuSans-111"/>
      <use x="4841.84375" xlink:href="#DejaVuSans-100"/>
      <use x="4905.320312" xlink:href="#DejaVuSans-58"/>
      <use x="4939.011719" xlink:href="#DejaVuSans-32"/>
      <use x="4970.798828" xlink:href="#DejaVuSans-114"/>
      <use x="5009.662109" xlink:href="#DejaVuSans-101"/>
      <use x="5071.185547" xlink:href="#DejaVuSans-102"/>
      <use x="5106.390625" xlink:href="#DejaVuSans-108"/>
      <use x="5134.173828" xlink:href="#DejaVuSans-101"/>
      <use x="5195.697266" xlink:href="#DejaVuSans-99"/>
      <use x="5250.677734" xlink:href="#DejaVuSans-116"/>
     </g>
    </g>
   </g>
  </g>
 </g>
 <defs>
  <clipPath id="p4ab849ccbb">
   <rect height="544.9752" width="1071.36" x="172.8" y="84.9312"/>
  </clipPath>
 </defs>
</svg>
