<?xml version="1.0" encoding="utf-8" standalone="no"?>
<!DOCTYPE svg PUBLIC "-//W3C//DTD SVG 1.1//EN"
  "http://www.w3.org/Graphics/SVG/1.1/DTD/svg11.dtd">
<!-- Created with matplotlib (https://matplotlib.org/) -->
<svg height="707.76pt" version="1.1" viewBox="0 0 1382.4 707.76" width="1382.4pt" xmlns="http://www.w3.org/2000/svg" xmlns:xlink="http://www.w3.org/1999/xlink">
 <defs>
  <style type="text/css">
*{stroke-linecap:butt;stroke-linejoin:round;}
  </style>
 </defs>
 <g id="figure_1">
  <g id="patch_1">
   <path d="M 0 707.76 
L 1382.4 707.76 
L 1382.4 0 
L 0 0 
z
" style="fill:#ffffff;"/>
  </g>
  <g id="axes_1">
   <g id="patch_2">
    <path d="M 172.8 629.9064 
L 1244.16 629.9064 
L 1244.16 84.9312 
L 172.8 84.9312 
z
" style="fill:#ffffff;"/>
   </g>
   <g id="PolyCollection_1">
    <path clip-path="url(#p5c7ce8ed74)" d="M 221.498182 125.199604 
L 221.498182 125.199604 
L 231.336198 203.804599 
L 241.174215 458.364096 
L 251.012231 487.168736 
L 260.850248 531.087367 
L 270.688264 545.917185 
L 280.526281 550.272694 
L 290.364298 553.617169 
L 300.202314 558.122528 
L 310.040331 560.784277 
L 319.878347 562.703971 
L 329.716364 568.136215 
L 339.55438 571.231864 
L 349.392397 586.784986 
L 359.230413 590.268236 
L 369.06843 591.663507 
L 378.906446 592.952578 
L 388.744463 593.193223 
L 398.582479 595.014887 
L 408.420496 595.797136 
L 418.258512 597.141793 
L 428.096529 598.093555 
L 437.934545 598.600328 
L 447.772562 599.791517 
L 457.610579 600.445332 
L 467.448595 600.442858 
L 477.286612 600.471698 
L 487.124628 600.14288 
L 496.962645 600.1796 
L 506.800661 600.182571 
L 516.638678 600.182571 
L 526.476694 600.270523 
L 536.314711 600.31229 
L 546.152727 600.315958 
L 555.990744 600.357557 
L 565.82876 600.383499 
L 575.666777 600.433948 
L 585.504793 600.433948 
L 595.34281 600.433948 
L 605.180826 600.433948 
L 615.018843 600.433948 
L 624.85686 600.445137 
L 634.694876 600.385509 
L 644.532893 600.381694 
L 654.370909 600.381694 
L 664.208926 600.537365 
L 674.046942 600.858261 
L 683.884959 600.858261 
L 693.722975 601.048387 
L 703.560992 601.048387 
L 713.399008 601.515047 
L 723.237025 601.512949 
L 733.075041 601.58231 
L 742.913058 601.671808 
L 752.751074 601.671808 
L 762.589091 601.736531 
L 772.427107 601.761168 
L 782.265124 601.761168 
L 792.10314 601.770998 
L 801.941157 601.865144 
L 811.779174 601.884458 
L 821.61719 601.933984 
L 831.455207 601.964621 
L 841.293223 602.017454 
L 851.13124 602.250926 
L 860.969256 602.250926 
L 870.807273 602.291847 
L 880.645289 602.291847 
L 890.483306 602.291847 
L 900.321322 602.291847 
L 910.159339 602.291847 
L 919.997355 602.304636 
L 929.835372 602.304636 
L 939.673388 602.304636 
L 949.511405 602.329385 
L 959.349421 602.329385 
L 969.187438 602.329385 
L 979.025455 602.385357 
L 988.863471 602.616072 
L 998.701488 602.632768 
L 1008.539504 602.737855 
L 1018.377521 602.737855 
L 1028.215537 602.863577 
L 1038.053554 602.863577 
L 1047.89157 602.863577 
L 1057.729587 602.921645 
L 1067.567603 603.296569 
L 1077.40562 603.528014 
L 1087.243636 603.77895 
L 1097.081653 603.964256 
L 1106.919669 604.061303 
L 1116.757686 604.078923 
L 1126.595702 604.162596 
L 1136.433719 604.241925 
L 1146.271736 604.278875 
L 1156.109752 604.368 
L 1165.947769 604.457974 
L 1175.785785 604.655193 
L 1185.623802 604.772818 
L 1195.461818 605.1348 
L 1195.461818 509.310996 
L 1195.461818 509.310996 
L 1185.623802 509.34239 
L 1175.785785 509.276226 
L 1165.947769 509.210782 
L 1156.109752 509.189507 
L 1146.271736 509.167743 
L 1136.433719 509.158515 
L 1126.595702 509.104601 
L 1116.757686 509.079474 
L 1106.919669 509.074861 
L 1097.081653 509.04264 
L 1087.243636 508.973273 
L 1077.40562 508.898262 
L 1067.567603 508.823277 
L 1057.729587 508.689059 
L 1047.89157 508.62943 
L 1038.053554 508.62943 
L 1028.215537 508.62943 
L 1018.377521 508.559609 
L 1008.539504 508.559609 
L 998.701488 508.448661 
L 988.863471 508.430605 
L 979.025455 508.129808 
L 969.187438 508.06252 
L 959.349421 508.06252 
L 949.511405 508.06252 
L 939.673388 508.038319 
L 929.835372 508.038319 
L 919.997355 508.038319 
L 910.159339 508.034659 
L 900.321322 508.034659 
L 890.483306 508.034659 
L 880.645289 508.034659 
L 870.807273 508.034659 
L 860.969256 507.994157 
L 851.13124 507.994157 
L 841.293223 507.800866 
L 831.455207 507.743688 
L 821.61719 507.709972 
L 811.779174 507.698034 
L 801.941157 507.701574 
L 792.10314 507.677191 
L 782.265124 507.552642 
L 772.427107 507.552642 
L 762.589091 504.567749 
L 752.751074 504.579189 
L 742.913058 504.579189 
L 733.075041 504.500927 
L 723.237025 503.894608 
L 713.399008 503.885791 
L 703.560992 503.313974 
L 693.722975 503.313974 
L 683.884959 503.045939 
L 674.046942 503.045939 
L 664.208926 502.525834 
L 654.370909 502.249736 
L 644.532893 502.249736 
L 634.694876 502.179202 
L 624.85686 501.253909 
L 615.018843 501.256937 
L 605.180826 501.256937 
L 595.34281 501.256937 
L 585.504793 501.256937 
L 575.666777 501.256937 
L 565.82876 501.27057 
L 555.990744 501.262453 
L 546.152727 501.220676 
L 536.314711 501.204536 
L 526.476694 501.19136 
L 516.638678 501.163037 
L 506.800661 501.163037 
L 496.962645 501.149947 
L 487.124628 501.112138 
L 477.286612 498.146022 
L 467.448595 497.825171 
L 457.610579 497.812604 
L 447.772562 497.620461 
L 437.934545 497.559454 
L 428.096529 497.315675 
L 418.258512 496.851589 
L 408.420496 495.953605 
L 398.582479 495.883863 
L 388.744463 496.065126 
L 378.906446 495.322619 
L 369.06843 494.297401 
L 359.230413 493.110389 
L 349.392397 493.298274 
L 339.55438 490.838235 
L 329.716364 489.794282 
L 319.878347 487.260129 
L 310.040331 483.524077 
L 300.202314 477.668717 
L 290.364298 476.120013 
L 280.526281 470.947252 
L 270.688264 458.287471 
L 260.850248 442.86828 
L 251.012231 434.62297 
L 241.174215 408.740544 
L 231.336198 184.070024 
L 221.498182 125.199604 
z
" style="fill:#1f77b4;fill-opacity:0.2;"/>
   </g>
   <g id="PolyCollection_2">
    <path clip-path="url(#p5c7ce8ed74)" d="M 221.498182 109.7028 
L 221.498182 109.7028 
L 231.336198 132.292692 
L 241.174215 176.752846 
L 251.012231 356.842371 
L 260.850248 404.073506 
L 270.688264 417.249958 
L 280.526281 452.20097 
L 290.364298 458.582328 
L 300.202314 468.436157 
L 310.040331 482.184398 
L 319.878347 504.046381 
L 329.716364 509.024892 
L 339.55438 513.942702 
L 349.392397 518.591785 
L 359.230413 528.408256 
L 369.06843 530.659027 
L 378.906446 533.416968 
L 388.744463 542.069425 
L 398.582479 547.992931 
L 408.420496 549.467319 
L 418.258512 553.004435 
L 428.096529 553.041312 
L 437.934545 554.957451 
L 447.772562 556.981139 
L 457.610579 562.107776 
L 467.448595 563.844893 
L 477.286612 564.874526 
L 487.124628 565.79282 
L 496.962645 566.748964 
L 506.800661 567.695066 
L 516.638678 569.773688 
L 526.476694 570.591608 
L 536.314711 571.226669 
L 546.152727 571.316727 
L 555.990744 571.555513 
L 565.82876 572.401275 
L 575.666777 572.530268 
L 585.504793 572.308907 
L 595.34281 572.384145 
L 605.180826 572.796562 
L 615.018843 573.108147 
L 624.85686 573.426956 
L 634.694876 573.745922 
L 644.532893 574.26922 
L 654.370909 574.505055 
L 664.208926 574.642268 
L 674.046942 574.791802 
L 683.884959 574.976593 
L 693.722975 575.143232 
L 703.560992 575.334911 
L 713.399008 575.460674 
L 723.237025 575.582612 
L 733.075041 575.72304 
L 742.913058 575.810145 
L 752.751074 575.894258 
L 762.589091 575.974259 
L 772.427107 576.093986 
L 782.265124 576.149535 
L 792.10314 576.210521 
L 801.941157 576.240605 
L 811.779174 576.28907 
L 821.61719 576.316108 
L 831.455207 576.333717 
L 841.293223 576.36336 
L 851.13124 576.406696 
L 860.969256 576.426159 
L 870.807273 576.415479 
L 880.645289 576.412218 
L 890.483306 576.406615 
L 900.321322 576.414945 
L 910.159339 576.417896 
L 919.997355 576.444661 
L 929.835372 576.447621 
L 939.673388 576.459309 
L 949.511405 576.474971 
L 959.349421 576.503139 
L 969.187438 576.536822 
L 979.025455 576.566775 
L 988.863471 576.531684 
L 998.701488 576.535002 
L 1008.539504 576.494897 
L 1018.377521 576.445818 
L 1028.215537 576.416854 
L 1038.053554 576.334965 
L 1047.89157 576.309534 
L 1057.729587 576.246752 
L 1067.567603 576.197949 
L 1077.40562 576.164 
L 1087.243636 576.132206 
L 1097.081653 576.114156 
L 1106.919669 576.095498 
L 1116.757686 576.088825 
L 1126.595702 576.079662 
L 1136.433719 576.064092 
L 1146.271736 576.050495 
L 1156.109752 576.036115 
L 1165.947769 576.028283 
L 1175.785785 576.021841 
L 1185.623802 576.017677 
L 1195.461818 576.014016 
L 1195.461818 504.544437 
L 1195.461818 504.544437 
L 1185.623802 504.527582 
L 1175.785785 504.510313 
L 1165.947769 504.484723 
L 1156.109752 504.455331 
L 1146.271736 504.403196 
L 1136.433719 504.350022 
L 1126.595702 504.276172 
L 1116.757686 504.217923 
L 1106.919669 504.160248 
L 1097.081653 504.074273 
L 1087.243636 503.982328 
L 1077.40562 503.864211 
L 1067.567603 503.729328 
L 1057.729587 503.54866 
L 1047.89157 503.291795 
L 1038.053554 503.123854 
L 1028.215537 502.763197 
L 1018.377521 502.568221 
L 1008.539504 502.301297 
L 998.701488 502.063679 
L 988.863471 501.953116 
L 979.025455 501.754147 
L 969.187438 501.7223 
L 959.349421 501.693472 
L 949.511405 501.665679 
L 939.673388 501.632973 
L 929.835372 501.573598 
L 919.997355 501.494064 
L 910.159339 501.431531 
L 900.321322 501.363463 
L 890.483306 501.31721 
L 880.645289 501.228316 
L 870.807273 501.126574 
L 860.969256 501.012758 
L 851.13124 500.960916 
L 841.293223 500.882397 
L 831.455207 500.810243 
L 821.61719 500.727932 
L 811.779174 500.594124 
L 801.941157 500.445564 
L 792.10314 500.302155 
L 782.265124 500.167389 
L 772.427107 500.027177 
L 762.589091 499.844747 
L 752.751074 499.672043 
L 742.913058 499.482907 
L 733.075041 499.330984 
L 723.237025 499.121486 
L 713.399008 498.901065 
L 703.560992 498.629776 
L 693.722975 498.206777 
L 683.884959 497.858028 
L 674.046942 497.072308 
L 664.208926 496.575758 
L 654.370909 495.932158 
L 644.532893 495.484861 
L 634.694876 494.932892 
L 624.85686 494.345011 
L 615.018843 493.415705 
L 605.180826 492.786138 
L 595.34281 492.18454 
L 585.504793 491.239587 
L 575.666777 489.455868 
L 565.82876 487.972232 
L 555.990744 487.526926 
L 546.152727 486.972351 
L 536.314711 485.79337 
L 526.476694 485.496825 
L 516.638678 484.886612 
L 506.800661 482.714339 
L 496.962645 481.160386 
L 487.124628 480.356305 
L 477.286612 478.161436 
L 467.448595 474.629637 
L 457.610579 472.535596 
L 447.772562 466.662188 
L 437.934545 462.897403 
L 428.096529 459.827861 
L 418.258512 454.777522 
L 408.420496 450.158256 
L 398.582479 447.070157 
L 388.744463 442.569561 
L 378.906446 440.219256 
L 369.06843 436.510237 
L 359.230413 434.24899 
L 349.392397 428.980954 
L 339.55438 426.148306 
L 329.716364 415.982904 
L 319.878347 409.486313 
L 310.040331 402.34203 
L 300.202314 382.586226 
L 290.364298 372.312583 
L 280.526281 363.623671 
L 270.688264 363.011634 
L 260.850248 346.674765 
L 251.012231 301.450772 
L 241.174215 158.073136 
L 231.336198 119.905357 
L 221.498182 109.7028 
z
" style="fill:#ff7f0e;fill-opacity:0.2;"/>
   </g>
   <g id="matplotlib.axis_1">
    <g id="xtick_1">
     <g id="line2d_1">
      <path clip-path="url(#p5c7ce8ed74)" d="M 221.498182 629.9064 
L 221.498182 84.9312 
" style="fill:none;stroke:#b0b0b0;stroke-linecap:square;stroke-width:0.8;"/>
     </g>
     <g id="line2d_2">
      <defs>
       <path d="M 0 0 
L 0 3.5 
" id="m7821712de3" style="stroke:#000000;stroke-width:0.8;"/>
      </defs>
      <g>
       <use style="stroke:#000000;stroke-width:0.8;" x="221.498182" xlink:href="#m7821712de3" y="629.9064"/>
      </g>
     </g>
     <g id="text_1">
      <!-- 0 -->
      <defs>
       <path d="M 31.78125 66.40625 
Q 24.171875 66.40625 20.328125 58.90625 
Q 16.5 51.421875 16.5 36.375 
Q 16.5 21.390625 20.328125 13.890625 
Q 24.171875 6.390625 31.78125 6.390625 
Q 39.453125 6.390625 43.28125 13.890625 
Q 47.125 21.390625 47.125 36.375 
Q 47.125 51.421875 43.28125 58.90625 
Q 39.453125 66.40625 31.78125 66.40625 
z
M 31.78125 74.21875 
Q 44.046875 74.21875 50.515625 64.515625 
Q 56.984375 54.828125 56.984375 36.375 
Q 56.984375 17.96875 50.515625 8.265625 
Q 44.046875 -1.421875 31.78125 -1.421875 
Q 19.53125 -1.421875 13.0625 8.265625 
Q 6.59375 17.96875 6.59375 36.375 
Q 6.59375 54.828125 13.0625 64.515625 
Q 19.53125 74.21875 31.78125 74.21875 
z
" id="DejaVuSans-48"/>
      </defs>
      <g transform="translate(218.316932 644.504838)scale(0.1 -0.1)">
       <use xlink:href="#DejaVuSans-48"/>
      </g>
     </g>
    </g>
    <g id="xtick_2">
     <g id="line2d_3">
      <path clip-path="url(#p5c7ce8ed74)" d="M 418.258512 629.9064 
L 418.258512 84.9312 
" style="fill:none;stroke:#b0b0b0;stroke-linecap:square;stroke-width:0.8;"/>
     </g>
     <g id="line2d_4">
      <g>
       <use style="stroke:#000000;stroke-width:0.8;" x="418.258512" xlink:href="#m7821712de3" y="629.9064"/>
      </g>
     </g>
     <g id="text_2">
      <!-- 20 -->
      <defs>
       <path d="M 19.1875 8.296875 
L 53.609375 8.296875 
L 53.609375 0 
L 7.328125 0 
L 7.328125 8.296875 
Q 12.9375 14.109375 22.625 23.890625 
Q 32.328125 33.6875 34.8125 36.53125 
Q 39.546875 41.84375 41.421875 45.53125 
Q 43.3125 49.21875 43.3125 52.78125 
Q 43.3125 58.59375 39.234375 62.25 
Q 35.15625 65.921875 28.609375 65.921875 
Q 23.96875 65.921875 18.8125 64.3125 
Q 13.671875 62.703125 7.8125 59.421875 
L 7.8125 69.390625 
Q 13.765625 71.78125 18.9375 73 
Q 24.125 74.21875 28.421875 74.21875 
Q 39.75 74.21875 46.484375 68.546875 
Q 53.21875 62.890625 53.21875 53.421875 
Q 53.21875 48.921875 51.53125 44.890625 
Q 49.859375 40.875 45.40625 35.40625 
Q 44.1875 33.984375 37.640625 27.21875 
Q 31.109375 20.453125 19.1875 8.296875 
z
" id="DejaVuSans-50"/>
      </defs>
      <g transform="translate(411.896012 644.504838)scale(0.1 -0.1)">
       <use xlink:href="#DejaVuSans-50"/>
       <use x="63.623047" xlink:href="#DejaVuSans-48"/>
      </g>
     </g>
    </g>
    <g id="xtick_3">
     <g id="line2d_5">
      <path clip-path="url(#p5c7ce8ed74)" d="M 615.018843 629.9064 
L 615.018843 84.9312 
" style="fill:none;stroke:#b0b0b0;stroke-linecap:square;stroke-width:0.8;"/>
     </g>
     <g id="line2d_6">
      <g>
       <use style="stroke:#000000;stroke-width:0.8;" x="615.018843" xlink:href="#m7821712de3" y="629.9064"/>
      </g>
     </g>
     <g id="text_3">
      <!-- 40 -->
      <defs>
       <path d="M 37.796875 64.3125 
L 12.890625 25.390625 
L 37.796875 25.390625 
z
M 35.203125 72.90625 
L 47.609375 72.90625 
L 47.609375 25.390625 
L 58.015625 25.390625 
L 58.015625 17.1875 
L 47.609375 17.1875 
L 47.609375 0 
L 37.796875 0 
L 37.796875 17.1875 
L 4.890625 17.1875 
L 4.890625 26.703125 
z
" id="DejaVuSans-52"/>
      </defs>
      <g transform="translate(608.656343 644.504838)scale(0.1 -0.1)">
       <use xlink:href="#DejaVuSans-52"/>
       <use x="63.623047" xlink:href="#DejaVuSans-48"/>
      </g>
     </g>
    </g>
    <g id="xtick_4">
     <g id="line2d_7">
      <path clip-path="url(#p5c7ce8ed74)" d="M 811.779174 629.9064 
L 811.779174 84.9312 
" style="fill:none;stroke:#b0b0b0;stroke-linecap:square;stroke-width:0.8;"/>
     </g>
     <g id="line2d_8">
      <g>
       <use style="stroke:#000000;stroke-width:0.8;" x="811.779174" xlink:href="#m7821712de3" y="629.9064"/>
      </g>
     </g>
     <g id="text_4">
      <!-- 60 -->
      <defs>
       <path d="M 33.015625 40.375 
Q 26.375 40.375 22.484375 35.828125 
Q 18.609375 31.296875 18.609375 23.390625 
Q 18.609375 15.53125 22.484375 10.953125 
Q 26.375 6.390625 33.015625 6.390625 
Q 39.65625 6.390625 43.53125 10.953125 
Q 47.40625 15.53125 47.40625 23.390625 
Q 47.40625 31.296875 43.53125 35.828125 
Q 39.65625 40.375 33.015625 40.375 
z
M 52.59375 71.296875 
L 52.59375 62.3125 
Q 48.875 64.0625 45.09375 64.984375 
Q 41.3125 65.921875 37.59375 65.921875 
Q 27.828125 65.921875 22.671875 59.328125 
Q 17.53125 52.734375 16.796875 39.40625 
Q 19.671875 43.65625 24.015625 45.921875 
Q 28.375 48.1875 33.59375 48.1875 
Q 44.578125 48.1875 50.953125 41.515625 
Q 57.328125 34.859375 57.328125 23.390625 
Q 57.328125 12.15625 50.6875 5.359375 
Q 44.046875 -1.421875 33.015625 -1.421875 
Q 20.359375 -1.421875 13.671875 8.265625 
Q 6.984375 17.96875 6.984375 36.375 
Q 6.984375 53.65625 15.1875 63.9375 
Q 23.390625 74.21875 37.203125 74.21875 
Q 40.921875 74.21875 44.703125 73.484375 
Q 48.484375 72.75 52.59375 71.296875 
z
" id="DejaVuSans-54"/>
      </defs>
      <g transform="translate(805.416674 644.504838)scale(0.1 -0.1)">
       <use xlink:href="#DejaVuSans-54"/>
       <use x="63.623047" xlink:href="#DejaVuSans-48"/>
      </g>
     </g>
    </g>
    <g id="xtick_5">
     <g id="line2d_9">
      <path clip-path="url(#p5c7ce8ed74)" d="M 1008.539504 629.9064 
L 1008.539504 84.9312 
" style="fill:none;stroke:#b0b0b0;stroke-linecap:square;stroke-width:0.8;"/>
     </g>
     <g id="line2d_10">
      <g>
       <use style="stroke:#000000;stroke-width:0.8;" x="1008.539504" xlink:href="#m7821712de3" y="629.9064"/>
      </g>
     </g>
     <g id="text_5">
      <!-- 80 -->
      <defs>
       <path d="M 31.78125 34.625 
Q 24.75 34.625 20.71875 30.859375 
Q 16.703125 27.09375 16.703125 20.515625 
Q 16.703125 13.921875 20.71875 10.15625 
Q 24.75 6.390625 31.78125 6.390625 
Q 38.8125 6.390625 42.859375 10.171875 
Q 46.921875 13.96875 46.921875 20.515625 
Q 46.921875 27.09375 42.890625 30.859375 
Q 38.875 34.625 31.78125 34.625 
z
M 21.921875 38.8125 
Q 15.578125 40.375 12.03125 44.71875 
Q 8.5 49.078125 8.5 55.328125 
Q 8.5 64.0625 14.71875 69.140625 
Q 20.953125 74.21875 31.78125 74.21875 
Q 42.671875 74.21875 48.875 69.140625 
Q 55.078125 64.0625 55.078125 55.328125 
Q 55.078125 49.078125 51.53125 44.71875 
Q 48 40.375 41.703125 38.8125 
Q 48.828125 37.15625 52.796875 32.3125 
Q 56.78125 27.484375 56.78125 20.515625 
Q 56.78125 9.90625 50.3125 4.234375 
Q 43.84375 -1.421875 31.78125 -1.421875 
Q 19.734375 -1.421875 13.25 4.234375 
Q 6.78125 9.90625 6.78125 20.515625 
Q 6.78125 27.484375 10.78125 32.3125 
Q 14.796875 37.15625 21.921875 38.8125 
z
M 18.3125 54.390625 
Q 18.3125 48.734375 21.84375 45.5625 
Q 25.390625 42.390625 31.78125 42.390625 
Q 38.140625 42.390625 41.71875 45.5625 
Q 45.3125 48.734375 45.3125 54.390625 
Q 45.3125 60.0625 41.71875 63.234375 
Q 38.140625 66.40625 31.78125 66.40625 
Q 25.390625 66.40625 21.84375 63.234375 
Q 18.3125 60.0625 18.3125 54.390625 
z
" id="DejaVuSans-56"/>
      </defs>
      <g transform="translate(1002.177004 644.504838)scale(0.1 -0.1)">
       <use xlink:href="#DejaVuSans-56"/>
       <use x="63.623047" xlink:href="#DejaVuSans-48"/>
      </g>
     </g>
    </g>
    <g id="xtick_6">
     <g id="line2d_11">
      <path clip-path="url(#p5c7ce8ed74)" d="M 1205.299835 629.9064 
L 1205.299835 84.9312 
" style="fill:none;stroke:#b0b0b0;stroke-linecap:square;stroke-width:0.8;"/>
     </g>
     <g id="line2d_12">
      <g>
       <use style="stroke:#000000;stroke-width:0.8;" x="1205.299835" xlink:href="#m7821712de3" y="629.9064"/>
      </g>
     </g>
     <g id="text_6">
      <!-- 100 -->
      <defs>
       <path d="M 12.40625 8.296875 
L 28.515625 8.296875 
L 28.515625 63.921875 
L 10.984375 60.40625 
L 10.984375 69.390625 
L 28.421875 72.90625 
L 38.28125 72.90625 
L 38.28125 8.296875 
L 54.390625 8.296875 
L 54.390625 0 
L 12.40625 0 
z
" id="DejaVuSans-49"/>
      </defs>
      <g transform="translate(1195.756085 644.504838)scale(0.1 -0.1)">
       <use xlink:href="#DejaVuSans-49"/>
       <use x="63.623047" xlink:href="#DejaVuSans-48"/>
       <use x="127.246094" xlink:href="#DejaVuSans-48"/>
      </g>
     </g>
    </g>
    <g id="xtick_7">
     <g id="line2d_13">
      <path clip-path="url(#p5c7ce8ed74)" d="M 270.688264 629.9064 
L 270.688264 84.9312 
" style="fill:none;stroke:#b0b0b0;stroke-linecap:square;stroke-width:0.8;"/>
     </g>
     <g id="line2d_14">
      <defs>
       <path d="M 0 0 
L 0 2 
" id="m54d73979d1" style="stroke:#000000;stroke-width:0.6;"/>
      </defs>
      <g>
       <use style="stroke:#000000;stroke-width:0.6;" x="270.688264" xlink:href="#m54d73979d1" y="629.9064"/>
      </g>
     </g>
    </g>
    <g id="xtick_8">
     <g id="line2d_15">
      <path clip-path="url(#p5c7ce8ed74)" d="M 319.878347 629.9064 
L 319.878347 84.9312 
" style="fill:none;stroke:#b0b0b0;stroke-linecap:square;stroke-width:0.8;"/>
     </g>
     <g id="line2d_16">
      <g>
       <use style="stroke:#000000;stroke-width:0.6;" x="319.878347" xlink:href="#m54d73979d1" y="629.9064"/>
      </g>
     </g>
    </g>
    <g id="xtick_9">
     <g id="line2d_17">
      <path clip-path="url(#p5c7ce8ed74)" d="M 369.06843 629.9064 
L 369.06843 84.9312 
" style="fill:none;stroke:#b0b0b0;stroke-linecap:square;stroke-width:0.8;"/>
     </g>
     <g id="line2d_18">
      <g>
       <use style="stroke:#000000;stroke-width:0.6;" x="369.06843" xlink:href="#m54d73979d1" y="629.9064"/>
      </g>
     </g>
    </g>
    <g id="xtick_10">
     <g id="line2d_19">
      <path clip-path="url(#p5c7ce8ed74)" d="M 467.448595 629.9064 
L 467.448595 84.9312 
" style="fill:none;stroke:#b0b0b0;stroke-linecap:square;stroke-width:0.8;"/>
     </g>
     <g id="line2d_20">
      <g>
       <use style="stroke:#000000;stroke-width:0.6;" x="467.448595" xlink:href="#m54d73979d1" y="629.9064"/>
      </g>
     </g>
    </g>
    <g id="xtick_11">
     <g id="line2d_21">
      <path clip-path="url(#p5c7ce8ed74)" d="M 516.638678 629.9064 
L 516.638678 84.9312 
" style="fill:none;stroke:#b0b0b0;stroke-linecap:square;stroke-width:0.8;"/>
     </g>
     <g id="line2d_22">
      <g>
       <use style="stroke:#000000;stroke-width:0.6;" x="516.638678" xlink:href="#m54d73979d1" y="629.9064"/>
      </g>
     </g>
    </g>
    <g id="xtick_12">
     <g id="line2d_23">
      <path clip-path="url(#p5c7ce8ed74)" d="M 565.82876 629.9064 
L 565.82876 84.9312 
" style="fill:none;stroke:#b0b0b0;stroke-linecap:square;stroke-width:0.8;"/>
     </g>
     <g id="line2d_24">
      <g>
       <use style="stroke:#000000;stroke-width:0.6;" x="565.82876" xlink:href="#m54d73979d1" y="629.9064"/>
      </g>
     </g>
    </g>
    <g id="xtick_13">
     <g id="line2d_25">
      <path clip-path="url(#p5c7ce8ed74)" d="M 664.208926 629.9064 
L 664.208926 84.9312 
" style="fill:none;stroke:#b0b0b0;stroke-linecap:square;stroke-width:0.8;"/>
     </g>
     <g id="line2d_26">
      <g>
       <use style="stroke:#000000;stroke-width:0.6;" x="664.208926" xlink:href="#m54d73979d1" y="629.9064"/>
      </g>
     </g>
    </g>
    <g id="xtick_14">
     <g id="line2d_27">
      <path clip-path="url(#p5c7ce8ed74)" d="M 713.399008 629.9064 
L 713.399008 84.9312 
" style="fill:none;stroke:#b0b0b0;stroke-linecap:square;stroke-width:0.8;"/>
     </g>
     <g id="line2d_28">
      <g>
       <use style="stroke:#000000;stroke-width:0.6;" x="713.399008" xlink:href="#m54d73979d1" y="629.9064"/>
      </g>
     </g>
    </g>
    <g id="xtick_15">
     <g id="line2d_29">
      <path clip-path="url(#p5c7ce8ed74)" d="M 762.589091 629.9064 
L 762.589091 84.9312 
" style="fill:none;stroke:#b0b0b0;stroke-linecap:square;stroke-width:0.8;"/>
     </g>
     <g id="line2d_30">
      <g>
       <use style="stroke:#000000;stroke-width:0.6;" x="762.589091" xlink:href="#m54d73979d1" y="629.9064"/>
      </g>
     </g>
    </g>
    <g id="xtick_16">
     <g id="line2d_31">
      <path clip-path="url(#p5c7ce8ed74)" d="M 860.969256 629.9064 
L 860.969256 84.9312 
" style="fill:none;stroke:#b0b0b0;stroke-linecap:square;stroke-width:0.8;"/>
     </g>
     <g id="line2d_32">
      <g>
       <use style="stroke:#000000;stroke-width:0.6;" x="860.969256" xlink:href="#m54d73979d1" y="629.9064"/>
      </g>
     </g>
    </g>
    <g id="xtick_17">
     <g id="line2d_33">
      <path clip-path="url(#p5c7ce8ed74)" d="M 910.159339 629.9064 
L 910.159339 84.9312 
" style="fill:none;stroke:#b0b0b0;stroke-linecap:square;stroke-width:0.8;"/>
     </g>
     <g id="line2d_34">
      <g>
       <use style="stroke:#000000;stroke-width:0.6;" x="910.159339" xlink:href="#m54d73979d1" y="629.9064"/>
      </g>
     </g>
    </g>
    <g id="xtick_18">
     <g id="line2d_35">
      <path clip-path="url(#p5c7ce8ed74)" d="M 959.349421 629.9064 
L 959.349421 84.9312 
" style="fill:none;stroke:#b0b0b0;stroke-linecap:square;stroke-width:0.8;"/>
     </g>
     <g id="line2d_36">
      <g>
       <use style="stroke:#000000;stroke-width:0.6;" x="959.349421" xlink:href="#m54d73979d1" y="629.9064"/>
      </g>
     </g>
    </g>
    <g id="xtick_19">
     <g id="line2d_37">
      <path clip-path="url(#p5c7ce8ed74)" d="M 1057.729587 629.9064 
L 1057.729587 84.9312 
" style="fill:none;stroke:#b0b0b0;stroke-linecap:square;stroke-width:0.8;"/>
     </g>
     <g id="line2d_38">
      <g>
       <use style="stroke:#000000;stroke-width:0.6;" x="1057.729587" xlink:href="#m54d73979d1" y="629.9064"/>
      </g>
     </g>
    </g>
    <g id="xtick_20">
     <g id="line2d_39">
      <path clip-path="url(#p5c7ce8ed74)" d="M 1106.919669 629.9064 
L 1106.919669 84.9312 
" style="fill:none;stroke:#b0b0b0;stroke-linecap:square;stroke-width:0.8;"/>
     </g>
     <g id="line2d_40">
      <g>
       <use style="stroke:#000000;stroke-width:0.6;" x="1106.919669" xlink:href="#m54d73979d1" y="629.9064"/>
      </g>
     </g>
    </g>
    <g id="xtick_21">
     <g id="line2d_41">
      <path clip-path="url(#p5c7ce8ed74)" d="M 1156.109752 629.9064 
L 1156.109752 84.9312 
" style="fill:none;stroke:#b0b0b0;stroke-linecap:square;stroke-width:0.8;"/>
     </g>
     <g id="line2d_42">
      <g>
       <use style="stroke:#000000;stroke-width:0.6;" x="1156.109752" xlink:href="#m54d73979d1" y="629.9064"/>
      </g>
     </g>
    </g>
    <g id="text_7">
     <!-- Iteration # -->
     <defs>
      <path d="M 9.8125 72.90625 
L 19.671875 72.90625 
L 19.671875 0 
L 9.8125 0 
z
" id="DejaVuSans-73"/>
      <path d="M 18.3125 70.21875 
L 18.3125 54.6875 
L 36.8125 54.6875 
L 36.8125 47.703125 
L 18.3125 47.703125 
L 18.3125 18.015625 
Q 18.3125 11.328125 20.140625 9.421875 
Q 21.96875 7.515625 27.59375 7.515625 
L 36.8125 7.515625 
L 36.8125 0 
L 27.59375 0 
Q 17.1875 0 13.234375 3.875 
Q 9.28125 7.765625 9.28125 18.015625 
L 9.28125 47.703125 
L 2.6875 47.703125 
L 2.6875 54.6875 
L 9.28125 54.6875 
L 9.28125 70.21875 
z
" id="DejaVuSans-116"/>
      <path d="M 56.203125 29.59375 
L 56.203125 25.203125 
L 14.890625 25.203125 
Q 15.484375 15.921875 20.484375 11.0625 
Q 25.484375 6.203125 34.421875 6.203125 
Q 39.59375 6.203125 44.453125 7.46875 
Q 49.3125 8.734375 54.109375 11.28125 
L 54.109375 2.78125 
Q 49.265625 0.734375 44.1875 -0.34375 
Q 39.109375 -1.421875 33.890625 -1.421875 
Q 20.796875 -1.421875 13.15625 6.1875 
Q 5.515625 13.8125 5.515625 26.8125 
Q 5.515625 40.234375 12.765625 48.109375 
Q 20.015625 56 32.328125 56 
Q 43.359375 56 49.78125 48.890625 
Q 56.203125 41.796875 56.203125 29.59375 
z
M 47.21875 32.234375 
Q 47.125 39.59375 43.09375 43.984375 
Q 39.0625 48.390625 32.421875 48.390625 
Q 24.90625 48.390625 20.390625 44.140625 
Q 15.875 39.890625 15.1875 32.171875 
z
" id="DejaVuSans-101"/>
      <path d="M 41.109375 46.296875 
Q 39.59375 47.171875 37.8125 47.578125 
Q 36.03125 48 33.890625 48 
Q 26.265625 48 22.1875 43.046875 
Q 18.109375 38.09375 18.109375 28.8125 
L 18.109375 0 
L 9.078125 0 
L 9.078125 54.6875 
L 18.109375 54.6875 
L 18.109375 46.1875 
Q 20.953125 51.171875 25.484375 53.578125 
Q 30.03125 56 36.53125 56 
Q 37.453125 56 38.578125 55.875 
Q 39.703125 55.765625 41.0625 55.515625 
z
" id="DejaVuSans-114"/>
      <path d="M 34.28125 27.484375 
Q 23.390625 27.484375 19.1875 25 
Q 14.984375 22.515625 14.984375 16.5 
Q 14.984375 11.71875 18.140625 8.90625 
Q 21.296875 6.109375 26.703125 6.109375 
Q 34.1875 6.109375 38.703125 11.40625 
Q 43.21875 16.703125 43.21875 25.484375 
L 43.21875 27.484375 
z
M 52.203125 31.203125 
L 52.203125 0 
L 43.21875 0 
L 43.21875 8.296875 
Q 40.140625 3.328125 35.546875 0.953125 
Q 30.953125 -1.421875 24.3125 -1.421875 
Q 15.921875 -1.421875 10.953125 3.296875 
Q 6 8.015625 6 15.921875 
Q 6 25.140625 12.171875 29.828125 
Q 18.359375 34.515625 30.609375 34.515625 
L 43.21875 34.515625 
L 43.21875 35.40625 
Q 43.21875 41.609375 39.140625 45 
Q 35.0625 48.390625 27.6875 48.390625 
Q 23 48.390625 18.546875 47.265625 
Q 14.109375 46.140625 10.015625 43.890625 
L 10.015625 52.203125 
Q 14.9375 54.109375 19.578125 55.046875 
Q 24.21875 56 28.609375 56 
Q 40.484375 56 46.34375 49.84375 
Q 52.203125 43.703125 52.203125 31.203125 
z
" id="DejaVuSans-97"/>
      <path d="M 9.421875 54.6875 
L 18.40625 54.6875 
L 18.40625 0 
L 9.421875 0 
z
M 9.421875 75.984375 
L 18.40625 75.984375 
L 18.40625 64.59375 
L 9.421875 64.59375 
z
" id="DejaVuSans-105"/>
      <path d="M 30.609375 48.390625 
Q 23.390625 48.390625 19.1875 42.75 
Q 14.984375 37.109375 14.984375 27.296875 
Q 14.984375 17.484375 19.15625 11.84375 
Q 23.34375 6.203125 30.609375 6.203125 
Q 37.796875 6.203125 41.984375 11.859375 
Q 46.1875 17.53125 46.1875 27.296875 
Q 46.1875 37.015625 41.984375 42.703125 
Q 37.796875 48.390625 30.609375 48.390625 
z
M 30.609375 56 
Q 42.328125 56 49.015625 48.375 
Q 55.71875 40.765625 55.71875 27.296875 
Q 55.71875 13.875 49.015625 6.21875 
Q 42.328125 -1.421875 30.609375 -1.421875 
Q 18.84375 -1.421875 12.171875 6.21875 
Q 5.515625 13.875 5.515625 27.296875 
Q 5.515625 40.765625 12.171875 48.375 
Q 18.84375 56 30.609375 56 
z
" id="DejaVuSans-111"/>
      <path d="M 54.890625 33.015625 
L 54.890625 0 
L 45.90625 0 
L 45.90625 32.71875 
Q 45.90625 40.484375 42.875 44.328125 
Q 39.84375 48.1875 33.796875 48.1875 
Q 26.515625 48.1875 22.3125 43.546875 
Q 18.109375 38.921875 18.109375 30.90625 
L 18.109375 0 
L 9.078125 0 
L 9.078125 54.6875 
L 18.109375 54.6875 
L 18.109375 46.1875 
Q 21.34375 51.125 25.703125 53.5625 
Q 30.078125 56 35.796875 56 
Q 45.21875 56 50.046875 50.171875 
Q 54.890625 44.34375 54.890625 33.015625 
z
" id="DejaVuSans-110"/>
      <path id="DejaVuSans-32"/>
      <path d="M 51.125 44 
L 36.921875 44 
L 32.8125 27.6875 
L 47.125 27.6875 
z
M 43.796875 71.78125 
L 38.71875 51.515625 
L 52.984375 51.515625 
L 58.109375 71.78125 
L 65.921875 71.78125 
L 60.890625 51.515625 
L 76.125 51.515625 
L 76.125 44 
L 58.984375 44 
L 54.984375 27.6875 
L 70.515625 27.6875 
L 70.515625 20.21875 
L 53.078125 20.21875 
L 48 0 
L 40.1875 0 
L 45.21875 20.21875 
L 30.90625 20.21875 
L 25.875 0 
L 18.015625 0 
L 23.09375 20.21875 
L 7.71875 20.21875 
L 7.71875 27.6875 
L 24.90625 27.6875 
L 29 44 
L 13.28125 44 
L 13.28125 51.515625 
L 30.90625 51.515625 
L 35.890625 71.78125 
z
" id="DejaVuSans-35"/>
     </defs>
     <g transform="translate(681.4925 658.182963)scale(0.1 -0.1)">
      <use xlink:href="#DejaVuSans-73"/>
      <use x="29.492188" xlink:href="#DejaVuSans-116"/>
      <use x="68.701172" xlink:href="#DejaVuSans-101"/>
      <use x="130.224609" xlink:href="#DejaVuSans-114"/>
      <use x="171.337891" xlink:href="#DejaVuSans-97"/>
      <use x="232.617188" xlink:href="#DejaVuSans-116"/>
      <use x="271.826172" xlink:href="#DejaVuSans-105"/>
      <use x="299.609375" xlink:href="#DejaVuSans-111"/>
      <use x="360.791016" xlink:href="#DejaVuSans-110"/>
      <use x="424.169922" xlink:href="#DejaVuSans-32"/>
      <use x="455.957031" xlink:href="#DejaVuSans-35"/>
     </g>
    </g>
   </g>
   <g id="matplotlib.axis_2">
    <g id="ytick_1">
     <g id="line2d_43">
      <path clip-path="url(#p5c7ce8ed74)" d="M 172.8 572.253158 
L 1244.16 572.253158 
" style="fill:none;stroke:#b0b0b0;stroke-linecap:square;stroke-width:0.8;"/>
     </g>
     <g id="line2d_44">
      <defs>
       <path d="M 0 0 
L -3.5 0 
" id="m07aba0cf0f" style="stroke:#000000;stroke-width:0.8;"/>
      </defs>
      <g>
       <use style="stroke:#000000;stroke-width:0.8;" x="172.8" xlink:href="#m07aba0cf0f" y="572.253158"/>
      </g>
     </g>
     <g id="text_8">
      <!-- −0.6 -->
      <defs>
       <path d="M 10.59375 35.5 
L 73.1875 35.5 
L 73.1875 27.203125 
L 10.59375 27.203125 
z
" id="DejaVuSans-8722"/>
       <path d="M 10.6875 12.40625 
L 21 12.40625 
L 21 0 
L 10.6875 0 
z
" id="DejaVuSans-46"/>
      </defs>
      <g transform="translate(141.517187 576.052377)scale(0.1 -0.1)">
       <use xlink:href="#DejaVuSans-8722"/>
       <use x="83.789062" xlink:href="#DejaVuSans-48"/>
       <use x="147.412109" xlink:href="#DejaVuSans-46"/>
       <use x="179.199219" xlink:href="#DejaVuSans-54"/>
      </g>
     </g>
    </g>
    <g id="ytick_2">
     <g id="line2d_45">
      <path clip-path="url(#p5c7ce8ed74)" d="M 172.8 475.39119 
L 1244.16 475.39119 
" style="fill:none;stroke:#b0b0b0;stroke-linecap:square;stroke-width:0.8;"/>
     </g>
     <g id="line2d_46">
      <g>
       <use style="stroke:#000000;stroke-width:0.8;" x="172.8" xlink:href="#m07aba0cf0f" y="475.39119"/>
      </g>
     </g>
     <g id="text_9">
      <!-- −0.5 -->
      <defs>
       <path d="M 10.796875 72.90625 
L 49.515625 72.90625 
L 49.515625 64.59375 
L 19.828125 64.59375 
L 19.828125 46.734375 
Q 21.96875 47.46875 24.109375 47.828125 
Q 26.265625 48.1875 28.421875 48.1875 
Q 40.625 48.1875 47.75 41.5 
Q 54.890625 34.8125 54.890625 23.390625 
Q 54.890625 11.625 47.5625 5.09375 
Q 40.234375 -1.421875 26.90625 -1.421875 
Q 22.3125 -1.421875 17.546875 -0.640625 
Q 12.796875 0.140625 7.71875 1.703125 
L 7.71875 11.625 
Q 12.109375 9.234375 16.796875 8.0625 
Q 21.484375 6.890625 26.703125 6.890625 
Q 35.15625 6.890625 40.078125 11.328125 
Q 45.015625 15.765625 45.015625 23.390625 
Q 45.015625 31 40.078125 35.4375 
Q 35.15625 39.890625 26.703125 39.890625 
Q 22.75 39.890625 18.8125 39.015625 
Q 14.890625 38.140625 10.796875 36.28125 
z
" id="DejaVuSans-53"/>
      </defs>
      <g transform="translate(141.517187 479.190409)scale(0.1 -0.1)">
       <use xlink:href="#DejaVuSans-8722"/>
       <use x="83.789062" xlink:href="#DejaVuSans-48"/>
       <use x="147.412109" xlink:href="#DejaVuSans-46"/>
       <use x="179.199219" xlink:href="#DejaVuSans-53"/>
      </g>
     </g>
    </g>
    <g id="ytick_3">
     <g id="line2d_47">
      <path clip-path="url(#p5c7ce8ed74)" d="M 172.8 378.529222 
L 1244.16 378.529222 
" style="fill:none;stroke:#b0b0b0;stroke-linecap:square;stroke-width:0.8;"/>
     </g>
     <g id="line2d_48">
      <g>
       <use style="stroke:#000000;stroke-width:0.8;" x="172.8" xlink:href="#m07aba0cf0f" y="378.529222"/>
      </g>
     </g>
     <g id="text_10">
      <!-- −0.4 -->
      <g transform="translate(141.517187 382.328441)scale(0.1 -0.1)">
       <use xlink:href="#DejaVuSans-8722"/>
       <use x="83.789062" xlink:href="#DejaVuSans-48"/>
       <use x="147.412109" xlink:href="#DejaVuSans-46"/>
       <use x="179.199219" xlink:href="#DejaVuSans-52"/>
      </g>
     </g>
    </g>
    <g id="ytick_4">
     <g id="line2d_49">
      <path clip-path="url(#p5c7ce8ed74)" d="M 172.8 281.667255 
L 1244.16 281.667255 
" style="fill:none;stroke:#b0b0b0;stroke-linecap:square;stroke-width:0.8;"/>
     </g>
     <g id="line2d_50">
      <g>
       <use style="stroke:#000000;stroke-width:0.8;" x="172.8" xlink:href="#m07aba0cf0f" y="281.667255"/>
      </g>
     </g>
     <g id="text_11">
      <!-- −0.3 -->
      <defs>
       <path d="M 40.578125 39.3125 
Q 47.65625 37.796875 51.625 33 
Q 55.609375 28.21875 55.609375 21.1875 
Q 55.609375 10.40625 48.1875 4.484375 
Q 40.765625 -1.421875 27.09375 -1.421875 
Q 22.515625 -1.421875 17.65625 -0.515625 
Q 12.796875 0.390625 7.625 2.203125 
L 7.625 11.71875 
Q 11.71875 9.328125 16.59375 8.109375 
Q 21.484375 6.890625 26.8125 6.890625 
Q 36.078125 6.890625 40.9375 10.546875 
Q 45.796875 14.203125 45.796875 21.1875 
Q 45.796875 27.640625 41.28125 31.265625 
Q 36.765625 34.90625 28.71875 34.90625 
L 20.21875 34.90625 
L 20.21875 43.015625 
L 29.109375 43.015625 
Q 36.375 43.015625 40.234375 45.921875 
Q 44.09375 48.828125 44.09375 54.296875 
Q 44.09375 59.90625 40.109375 62.90625 
Q 36.140625 65.921875 28.71875 65.921875 
Q 24.65625 65.921875 20.015625 65.03125 
Q 15.375 64.15625 9.8125 62.3125 
L 9.8125 71.09375 
Q 15.4375 72.65625 20.34375 73.4375 
Q 25.25 74.21875 29.59375 74.21875 
Q 40.828125 74.21875 47.359375 69.109375 
Q 53.90625 64.015625 53.90625 55.328125 
Q 53.90625 49.265625 50.4375 45.09375 
Q 46.96875 40.921875 40.578125 39.3125 
z
" id="DejaVuSans-51"/>
      </defs>
      <g transform="translate(141.517187 285.466473)scale(0.1 -0.1)">
       <use xlink:href="#DejaVuSans-8722"/>
       <use x="83.789062" xlink:href="#DejaVuSans-48"/>
       <use x="147.412109" xlink:href="#DejaVuSans-46"/>
       <use x="179.199219" xlink:href="#DejaVuSans-51"/>
      </g>
     </g>
    </g>
    <g id="ytick_5">
     <g id="line2d_51">
      <path clip-path="url(#p5c7ce8ed74)" d="M 172.8 184.805287 
L 1244.16 184.805287 
" style="fill:none;stroke:#b0b0b0;stroke-linecap:square;stroke-width:0.8;"/>
     </g>
     <g id="line2d_52">
      <g>
       <use style="stroke:#000000;stroke-width:0.8;" x="172.8" xlink:href="#m07aba0cf0f" y="184.805287"/>
      </g>
     </g>
     <g id="text_12">
      <!-- −0.2 -->
      <g transform="translate(141.517187 188.604505)scale(0.1 -0.1)">
       <use xlink:href="#DejaVuSans-8722"/>
       <use x="83.789062" xlink:href="#DejaVuSans-48"/>
       <use x="147.412109" xlink:href="#DejaVuSans-46"/>
       <use x="179.199219" xlink:href="#DejaVuSans-50"/>
      </g>
     </g>
    </g>
    <g id="ytick_6">
     <g id="line2d_53">
      <path clip-path="url(#p5c7ce8ed74)" d="M 172.8 87.943319 
L 1244.16 87.943319 
" style="fill:none;stroke:#b0b0b0;stroke-linecap:square;stroke-width:0.8;"/>
     </g>
     <g id="line2d_54">
      <g>
       <use style="stroke:#000000;stroke-width:0.8;" x="172.8" xlink:href="#m07aba0cf0f" y="87.943319"/>
      </g>
     </g>
     <g id="text_13">
      <!-- −0.1 -->
      <g transform="translate(141.517187 91.742538)scale(0.1 -0.1)">
       <use xlink:href="#DejaVuSans-8722"/>
       <use x="83.789062" xlink:href="#DejaVuSans-48"/>
       <use x="147.412109" xlink:href="#DejaVuSans-46"/>
       <use x="179.199219" xlink:href="#DejaVuSans-49"/>
      </g>
     </g>
    </g>
    <g id="ytick_7">
     <g id="line2d_55">
      <path clip-path="url(#p5c7ce8ed74)" d="M 172.8 610.997945 
L 1244.16 610.997945 
" style="fill:none;stroke:#b0b0b0;stroke-linecap:square;stroke-width:0.8;"/>
     </g>
     <g id="line2d_56">
      <defs>
       <path d="M 0 0 
L -2 0 
" id="md8fd9b0d87" style="stroke:#000000;stroke-width:0.6;"/>
      </defs>
      <g>
       <use style="stroke:#000000;stroke-width:0.6;" x="172.8" xlink:href="#md8fd9b0d87" y="610.997945"/>
      </g>
     </g>
    </g>
    <g id="ytick_8">
     <g id="line2d_57">
      <path clip-path="url(#p5c7ce8ed74)" d="M 172.8 591.625552 
L 1244.16 591.625552 
" style="fill:none;stroke:#b0b0b0;stroke-linecap:square;stroke-width:0.8;"/>
     </g>
     <g id="line2d_58">
      <g>
       <use style="stroke:#000000;stroke-width:0.6;" x="172.8" xlink:href="#md8fd9b0d87" y="591.625552"/>
      </g>
     </g>
    </g>
    <g id="ytick_9">
     <g id="line2d_59">
      <path clip-path="url(#p5c7ce8ed74)" d="M 172.8 552.880765 
L 1244.16 552.880765 
" style="fill:none;stroke:#b0b0b0;stroke-linecap:square;stroke-width:0.8;"/>
     </g>
     <g id="line2d_60">
      <g>
       <use style="stroke:#000000;stroke-width:0.6;" x="172.8" xlink:href="#md8fd9b0d87" y="552.880765"/>
      </g>
     </g>
    </g>
    <g id="ytick_10">
     <g id="line2d_61">
      <path clip-path="url(#p5c7ce8ed74)" d="M 172.8 533.508371 
L 1244.16 533.508371 
" style="fill:none;stroke:#b0b0b0;stroke-linecap:square;stroke-width:0.8;"/>
     </g>
     <g id="line2d_62">
      <g>
       <use style="stroke:#000000;stroke-width:0.6;" x="172.8" xlink:href="#md8fd9b0d87" y="533.508371"/>
      </g>
     </g>
    </g>
    <g id="ytick_11">
     <g id="line2d_63">
      <path clip-path="url(#p5c7ce8ed74)" d="M 172.8 514.135977 
L 1244.16 514.135977 
" style="fill:none;stroke:#b0b0b0;stroke-linecap:square;stroke-width:0.8;"/>
     </g>
     <g id="line2d_64">
      <g>
       <use style="stroke:#000000;stroke-width:0.6;" x="172.8" xlink:href="#md8fd9b0d87" y="514.135977"/>
      </g>
     </g>
    </g>
    <g id="ytick_12">
     <g id="line2d_65">
      <path clip-path="url(#p5c7ce8ed74)" d="M 172.8 494.763584 
L 1244.16 494.763584 
" style="fill:none;stroke:#b0b0b0;stroke-linecap:square;stroke-width:0.8;"/>
     </g>
     <g id="line2d_66">
      <g>
       <use style="stroke:#000000;stroke-width:0.6;" x="172.8" xlink:href="#md8fd9b0d87" y="494.763584"/>
      </g>
     </g>
    </g>
    <g id="ytick_13">
     <g id="line2d_67">
      <path clip-path="url(#p5c7ce8ed74)" d="M 172.8 456.018797 
L 1244.16 456.018797 
" style="fill:none;stroke:#b0b0b0;stroke-linecap:square;stroke-width:0.8;"/>
     </g>
     <g id="line2d_68">
      <g>
       <use style="stroke:#000000;stroke-width:0.6;" x="172.8" xlink:href="#md8fd9b0d87" y="456.018797"/>
      </g>
     </g>
    </g>
    <g id="ytick_14">
     <g id="line2d_69">
      <path clip-path="url(#p5c7ce8ed74)" d="M 172.8 436.646403 
L 1244.16 436.646403 
" style="fill:none;stroke:#b0b0b0;stroke-linecap:square;stroke-width:0.8;"/>
     </g>
     <g id="line2d_70">
      <g>
       <use style="stroke:#000000;stroke-width:0.6;" x="172.8" xlink:href="#md8fd9b0d87" y="436.646403"/>
      </g>
     </g>
    </g>
    <g id="ytick_15">
     <g id="line2d_71">
      <path clip-path="url(#p5c7ce8ed74)" d="M 172.8 417.27401 
L 1244.16 417.27401 
" style="fill:none;stroke:#b0b0b0;stroke-linecap:square;stroke-width:0.8;"/>
     </g>
     <g id="line2d_72">
      <g>
       <use style="stroke:#000000;stroke-width:0.6;" x="172.8" xlink:href="#md8fd9b0d87" y="417.27401"/>
      </g>
     </g>
    </g>
    <g id="ytick_16">
     <g id="line2d_73">
      <path clip-path="url(#p5c7ce8ed74)" d="M 172.8 397.901616 
L 1244.16 397.901616 
" style="fill:none;stroke:#b0b0b0;stroke-linecap:square;stroke-width:0.8;"/>
     </g>
     <g id="line2d_74">
      <g>
       <use style="stroke:#000000;stroke-width:0.6;" x="172.8" xlink:href="#md8fd9b0d87" y="397.901616"/>
      </g>
     </g>
    </g>
    <g id="ytick_17">
     <g id="line2d_75">
      <path clip-path="url(#p5c7ce8ed74)" d="M 172.8 359.156829 
L 1244.16 359.156829 
" style="fill:none;stroke:#b0b0b0;stroke-linecap:square;stroke-width:0.8;"/>
     </g>
     <g id="line2d_76">
      <g>
       <use style="stroke:#000000;stroke-width:0.6;" x="172.8" xlink:href="#md8fd9b0d87" y="359.156829"/>
      </g>
     </g>
    </g>
    <g id="ytick_18">
     <g id="line2d_77">
      <path clip-path="url(#p5c7ce8ed74)" d="M 172.8 339.784435 
L 1244.16 339.784435 
" style="fill:none;stroke:#b0b0b0;stroke-linecap:square;stroke-width:0.8;"/>
     </g>
     <g id="line2d_78">
      <g>
       <use style="stroke:#000000;stroke-width:0.6;" x="172.8" xlink:href="#md8fd9b0d87" y="339.784435"/>
      </g>
     </g>
    </g>
    <g id="ytick_19">
     <g id="line2d_79">
      <path clip-path="url(#p5c7ce8ed74)" d="M 172.8 320.412042 
L 1244.16 320.412042 
" style="fill:none;stroke:#b0b0b0;stroke-linecap:square;stroke-width:0.8;"/>
     </g>
     <g id="line2d_80">
      <g>
       <use style="stroke:#000000;stroke-width:0.6;" x="172.8" xlink:href="#md8fd9b0d87" y="320.412042"/>
      </g>
     </g>
    </g>
    <g id="ytick_20">
     <g id="line2d_81">
      <path clip-path="url(#p5c7ce8ed74)" d="M 172.8 301.039648 
L 1244.16 301.039648 
" style="fill:none;stroke:#b0b0b0;stroke-linecap:square;stroke-width:0.8;"/>
     </g>
     <g id="line2d_82">
      <g>
       <use style="stroke:#000000;stroke-width:0.6;" x="172.8" xlink:href="#md8fd9b0d87" y="301.039648"/>
      </g>
     </g>
    </g>
    <g id="ytick_21">
     <g id="line2d_83">
      <path clip-path="url(#p5c7ce8ed74)" d="M 172.8 262.294861 
L 1244.16 262.294861 
" style="fill:none;stroke:#b0b0b0;stroke-linecap:square;stroke-width:0.8;"/>
     </g>
     <g id="line2d_84">
      <g>
       <use style="stroke:#000000;stroke-width:0.6;" x="172.8" xlink:href="#md8fd9b0d87" y="262.294861"/>
      </g>
     </g>
    </g>
    <g id="ytick_22">
     <g id="line2d_85">
      <path clip-path="url(#p5c7ce8ed74)" d="M 172.8 242.922467 
L 1244.16 242.922467 
" style="fill:none;stroke:#b0b0b0;stroke-linecap:square;stroke-width:0.8;"/>
     </g>
     <g id="line2d_86">
      <g>
       <use style="stroke:#000000;stroke-width:0.6;" x="172.8" xlink:href="#md8fd9b0d87" y="242.922467"/>
      </g>
     </g>
    </g>
    <g id="ytick_23">
     <g id="line2d_87">
      <path clip-path="url(#p5c7ce8ed74)" d="M 172.8 223.550074 
L 1244.16 223.550074 
" style="fill:none;stroke:#b0b0b0;stroke-linecap:square;stroke-width:0.8;"/>
     </g>
     <g id="line2d_88">
      <g>
       <use style="stroke:#000000;stroke-width:0.6;" x="172.8" xlink:href="#md8fd9b0d87" y="223.550074"/>
      </g>
     </g>
    </g>
    <g id="ytick_24">
     <g id="line2d_89">
      <path clip-path="url(#p5c7ce8ed74)" d="M 172.8 204.17768 
L 1244.16 204.17768 
" style="fill:none;stroke:#b0b0b0;stroke-linecap:square;stroke-width:0.8;"/>
     </g>
     <g id="line2d_90">
      <g>
       <use style="stroke:#000000;stroke-width:0.6;" x="172.8" xlink:href="#md8fd9b0d87" y="204.17768"/>
      </g>
     </g>
    </g>
    <g id="ytick_25">
     <g id="line2d_91">
      <path clip-path="url(#p5c7ce8ed74)" d="M 172.8 165.432893 
L 1244.16 165.432893 
" style="fill:none;stroke:#b0b0b0;stroke-linecap:square;stroke-width:0.8;"/>
     </g>
     <g id="line2d_92">
      <g>
       <use style="stroke:#000000;stroke-width:0.6;" x="172.8" xlink:href="#md8fd9b0d87" y="165.432893"/>
      </g>
     </g>
    </g>
    <g id="ytick_26">
     <g id="line2d_93">
      <path clip-path="url(#p5c7ce8ed74)" d="M 172.8 146.0605 
L 1244.16 146.0605 
" style="fill:none;stroke:#b0b0b0;stroke-linecap:square;stroke-width:0.8;"/>
     </g>
     <g id="line2d_94">
      <g>
       <use style="stroke:#000000;stroke-width:0.6;" x="172.8" xlink:href="#md8fd9b0d87" y="146.0605"/>
      </g>
     </g>
    </g>
    <g id="ytick_27">
     <g id="line2d_95">
      <path clip-path="url(#p5c7ce8ed74)" d="M 172.8 126.688106 
L 1244.16 126.688106 
" style="fill:none;stroke:#b0b0b0;stroke-linecap:square;stroke-width:0.8;"/>
     </g>
     <g id="line2d_96">
      <g>
       <use style="stroke:#000000;stroke-width:0.6;" x="172.8" xlink:href="#md8fd9b0d87" y="126.688106"/>
      </g>
     </g>
    </g>
    <g id="ytick_28">
     <g id="line2d_97">
      <path clip-path="url(#p5c7ce8ed74)" d="M 172.8 107.315712 
L 1244.16 107.315712 
" style="fill:none;stroke:#b0b0b0;stroke-linecap:square;stroke-width:0.8;"/>
     </g>
     <g id="line2d_98">
      <g>
       <use style="stroke:#000000;stroke-width:0.6;" x="172.8" xlink:href="#md8fd9b0d87" y="107.315712"/>
      </g>
     </g>
    </g>
    <g id="text_14">
     <!-- $\pi(x,\rho)$ -->
     <defs>
      <path d="M 9.125 54.6875 
L 61.53125 54.6875 
L 59.765625 45.703125 
L 52.875 45.703125 
L 46.34375 12.109375 
Q 45.65625 8.59375 46.578125 7.03125 
Q 47.46875 5.515625 50.140625 5.515625 
Q 50.875 5.515625 51.953125 5.671875 
Q 53.078125 5.765625 53.421875 5.8125 
L 52.15625 -0.6875 
Q 50.34375 -1.3125 48.484375 -1.609375 
Q 46.578125 -1.90625 44.78125 -1.90625 
Q 38.921875 -1.90625 37.3125 1.265625 
Q 35.6875 4.5 37.359375 13.09375 
L 43.703125 45.703125 
L 23.53125 45.703125 
L 14.65625 0 
L 5.46875 0 
L 14.359375 45.703125 
L 7.375 45.703125 
z
" id="DejaVuSans-Oblique-960"/>
      <path d="M 31 75.875 
Q 24.46875 64.65625 21.28125 53.65625 
Q 18.109375 42.671875 18.109375 31.390625 
Q 18.109375 20.125 21.3125 9.0625 
Q 24.515625 -2 31 -13.1875 
L 23.1875 -13.1875 
Q 15.875 -1.703125 12.234375 9.375 
Q 8.59375 20.453125 8.59375 31.390625 
Q 8.59375 42.28125 12.203125 53.3125 
Q 15.828125 64.359375 23.1875 75.875 
z
" id="DejaVuSans-40"/>
      <path d="M 60.015625 54.6875 
L 34.90625 27.875 
L 50.296875 0 
L 39.984375 0 
L 28.421875 21.6875 
L 8.296875 0 
L -2.59375 0 
L 24.3125 28.8125 
L 10.015625 54.6875 
L 20.3125 54.6875 
L 30.8125 34.90625 
L 49.125 54.6875 
z
" id="DejaVuSans-Oblique-120"/>
      <path d="M 11.71875 12.40625 
L 22.015625 12.40625 
L 22.015625 4 
L 14.015625 -11.625 
L 7.71875 -11.625 
L 11.71875 4 
z
" id="DejaVuSans-44"/>
      <path d="M 18.796875 44.921875 
Q 22.703125 49.90625 30.953125 54.296875 
Q 34.1875 56 43.0625 56 
Q 53.03125 56 57.71875 48.09375 
Q 62.40625 40.1875 59.90625 27.296875 
Q 57.375 14.40625 49.609375 6.484375 
Q 41.84375 -1.421875 31.890625 -1.421875 
Q 25.875 -1.421875 22.015625 0.984375 
Q 18.171875 3.328125 16.3125 8.203125 
L 10.640625 -20.796875 
L 1.609375 -20.796875 
L 10.890625 26.8125 
Q 13.09375 38.09375 18.796875 44.921875 
z
M 50.59375 27.296875 
Q 52.484375 37.203125 49.515625 42.875 
Q 46.53125 48.484375 39.40625 48.484375 
Q 32.28125 48.484375 27.09375 42.875 
Q 21.921875 37.203125 20.015625 27.296875 
Q 18.0625 17.390625 21.046875 11.71875 
Q 24.03125 6.109375 31.15625 6.109375 
Q 38.28125 6.109375 43.453125 11.71875 
Q 48.640625 17.390625 50.59375 27.296875 
z
" id="DejaVuSans-Oblique-961"/>
      <path d="M 8.015625 75.875 
L 15.828125 75.875 
Q 23.140625 64.359375 26.78125 53.3125 
Q 30.421875 42.28125 30.421875 31.390625 
Q 30.421875 20.453125 26.78125 9.375 
Q 23.140625 -1.703125 15.828125 -13.1875 
L 8.015625 -13.1875 
Q 14.5 -2 17.703125 9.0625 
Q 20.90625 20.125 20.90625 31.390625 
Q 20.90625 42.671875 17.703125 53.65625 
Q 14.5 64.65625 8.015625 75.875 
z
" id="DejaVuSans-41"/>
     </defs>
     <g transform="translate(135.417187 373.0688)rotate(-90)scale(0.1 -0.1)">
      <use transform="translate(0 0.125)" xlink:href="#DejaVuSans-Oblique-960"/>
      <use transform="translate(60.205078 0.125)" xlink:href="#DejaVuSans-40"/>
      <use transform="translate(99.21875 0.125)" xlink:href="#DejaVuSans-Oblique-120"/>
      <use transform="translate(158.398438 0.125)" xlink:href="#DejaVuSans-44"/>
      <use transform="translate(209.667969 0.125)" xlink:href="#DejaVuSans-Oblique-961"/>
      <use transform="translate(273.144531 0.125)" xlink:href="#DejaVuSans-41"/>
     </g>
    </g>
   </g>
   <g id="line2d_99">
    <path clip-path="url(#p5c7ce8ed74)" d="M 221.498182 125.199604 
L 231.336198 193.937312 
L 241.174215 433.55232 
L 251.012231 460.895853 
L 260.850248 486.977823 
L 270.688264 502.102328 
L 280.526281 510.609973 
L 290.364298 514.868591 
L 300.202314 517.895623 
L 310.040331 522.154177 
L 319.878347 524.98205 
L 329.716364 528.965249 
L 339.55438 531.035049 
L 349.392397 540.04163 
L 359.230413 541.689312 
L 369.06843 542.980454 
L 378.906446 544.137598 
L 388.744463 544.629174 
L 398.582479 545.449375 
L 408.420496 545.87537 
L 418.258512 546.996691 
L 428.096529 547.704615 
L 437.934545 548.079891 
L 447.772562 548.705989 
L 457.610579 549.128968 
L 467.448595 549.134015 
L 477.286612 549.30886 
L 487.124628 550.627509 
L 496.962645 550.664773 
L 506.800661 550.672804 
L 516.638678 550.672804 
L 526.476694 550.730941 
L 536.314711 550.758413 
L 546.152727 550.768317 
L 555.990744 550.810005 
L 565.82876 550.827034 
L 575.666777 550.845442 
L 585.504793 550.845442 
L 595.34281 550.845442 
L 605.180826 550.845442 
L 615.018843 550.845442 
L 624.85686 550.849523 
L 634.694876 551.282355 
L 644.532893 551.315715 
L 654.370909 551.315715 
L 664.208926 551.531599 
L 674.046942 551.9521 
L 683.884959 551.9521 
L 693.722975 552.18118 
L 703.560992 552.18118 
L 713.399008 552.700419 
L 723.237025 552.703779 
L 733.075041 553.041618 
L 742.913058 553.125498 
L 752.751074 553.125498 
L 762.589091 553.15214 
L 772.427107 554.656905 
L 782.265124 554.656905 
L 792.10314 554.724094 
L 801.941157 554.783359 
L 811.779174 554.791246 
L 821.61719 554.821978 
L 831.455207 554.854154 
L 841.293223 554.90916 
L 851.13124 555.122542 
L 860.969256 555.122542 
L 870.807273 555.163253 
L 880.645289 555.163253 
L 890.483306 555.163253 
L 900.321322 555.163253 
L 910.159339 555.163253 
L 919.997355 555.171477 
L 929.835372 555.171477 
L 939.673388 555.171477 
L 949.511405 555.195953 
L 959.349421 555.195953 
L 969.187438 555.195953 
L 979.025455 555.257583 
L 988.863471 555.523338 
L 998.701488 555.540714 
L 1008.539504 555.648732 
L 1018.377521 555.648732 
L 1028.215537 555.746504 
L 1038.053554 555.746504 
L 1047.89157 555.746504 
L 1057.729587 555.805352 
L 1067.567603 556.059923 
L 1077.40562 556.213138 
L 1087.243636 556.376111 
L 1097.081653 556.503448 
L 1106.919669 556.568082 
L 1116.757686 556.579198 
L 1126.595702 556.633599 
L 1136.433719 556.70022 
L 1146.271736 556.723309 
L 1156.109752 556.778754 
L 1165.947769 556.834378 
L 1175.785785 556.96571 
L 1185.623802 557.057604 
L 1195.461818 557.222898 
" style="fill:none;stroke:#1f77b4;stroke-linecap:square;stroke-width:1.5;"/>
   </g>
   <g id="line2d_100">
    <path clip-path="url(#p5c7ce8ed74)" d="M 221.498182 109.7028 
L 231.336198 126.099025 
L 241.174215 167.412991 
L 251.012231 329.146572 
L 260.850248 375.374136 
L 270.688264 390.130796 
L 280.526281 407.91232 
L 290.364298 415.447456 
L 300.202314 425.511191 
L 310.040331 442.263214 
L 319.878347 456.766347 
L 329.716364 462.503898 
L 339.55438 470.045504 
L 349.392397 473.786369 
L 359.230413 481.328623 
L 369.06843 483.584632 
L 378.906446 486.818112 
L 388.744463 492.319493 
L 398.582479 497.531544 
L 408.420496 499.812787 
L 418.258512 503.890979 
L 428.096529 506.434587 
L 437.934545 508.927427 
L 447.772562 511.821663 
L 457.610579 517.321686 
L 467.448595 519.237265 
L 477.286612 521.517981 
L 487.124628 523.074562 
L 496.962645 523.954675 
L 506.800661 525.204703 
L 516.638678 527.33015 
L 526.476694 528.044217 
L 536.314711 528.51002 
L 546.152727 529.144539 
L 555.990744 529.541219 
L 565.82876 530.186753 
L 575.666777 530.993068 
L 585.504793 531.774247 
L 595.34281 532.284343 
L 605.180826 532.79135 
L 615.018843 533.261926 
L 624.85686 533.885984 
L 634.694876 534.339407 
L 644.532893 534.877041 
L 654.370909 535.218607 
L 664.208926 535.609013 
L 674.046942 535.932055 
L 683.884959 536.41731 
L 693.722975 536.675004 
L 703.560992 536.982344 
L 713.399008 537.18087 
L 723.237025 537.352049 
L 733.075041 537.527012 
L 742.913058 537.646526 
L 752.751074 537.783151 
L 762.589091 537.909503 
L 772.427107 538.060581 
L 782.265124 538.158462 
L 792.10314 538.256338 
L 801.941157 538.343085 
L 811.779174 538.441597 
L 821.61719 538.52202 
L 831.455207 538.57198 
L 841.293223 538.622878 
L 851.13124 538.683806 
L 860.969256 538.719458 
L 870.807273 538.771026 
L 880.645289 538.820267 
L 890.483306 538.861912 
L 900.321322 538.889204 
L 910.159339 538.924713 
L 919.997355 538.969363 
L 929.835372 539.010609 
L 939.673388 539.046141 
L 949.511405 539.070325 
L 959.349421 539.098306 
L 969.187438 539.129561 
L 979.025455 539.160461 
L 988.863471 539.2424 
L 998.701488 539.29934 
L 1008.539504 539.398097 
L 1018.377521 539.50702 
L 1028.215537 539.590025 
L 1038.053554 539.729409 
L 1047.89157 539.800664 
L 1057.729587 539.897706 
L 1067.567603 539.963638 
L 1077.40562 540.014105 
L 1087.243636 540.057267 
L 1097.081653 540.094214 
L 1106.919669 540.127873 
L 1116.757686 540.153374 
L 1126.595702 540.177917 
L 1136.433719 540.207057 
L 1146.271736 540.226845 
L 1156.109752 540.245723 
L 1165.947769 540.256503 
L 1175.785785 540.266077 
L 1185.623802 540.272629 
L 1195.461818 540.279227 
" style="fill:none;stroke:#ff7f0e;stroke-linecap:square;stroke-width:1.5;"/>
   </g>
   <g id="patch_3">
    <path d="M 172.8 629.9064 
L 172.8 84.9312 
" style="fill:none;stroke:#000000;stroke-linecap:square;stroke-linejoin:miter;stroke-width:0.8;"/>
   </g>
   <g id="patch_4">
    <path d="M 1244.16 629.9064 
L 1244.16 84.9312 
" style="fill:none;stroke:#000000;stroke-linecap:square;stroke-linejoin:miter;stroke-width:0.8;"/>
   </g>
   <g id="patch_5">
    <path d="M 172.8 629.9064 
L 1244.16 629.9064 
" style="fill:none;stroke:#000000;stroke-linecap:square;stroke-linejoin:miter;stroke-width:0.8;"/>
   </g>
   <g id="patch_6">
    <path d="M 172.8 84.9312 
L 1244.16 84.9312 
" style="fill:none;stroke:#000000;stroke-linecap:square;stroke-linejoin:miter;stroke-width:0.8;"/>
   </g>
   <g id="text_15">
    <!-- PS4 Bump Test n=20 - Objective Func. Val (w/ Quad. Penalty) vs. Iteration Number -->
    <defs>
     <path d="M 19.671875 64.796875 
L 19.671875 37.40625 
L 32.078125 37.40625 
Q 38.96875 37.40625 42.71875 40.96875 
Q 46.484375 44.53125 46.484375 51.125 
Q 46.484375 57.671875 42.71875 61.234375 
Q 38.96875 64.796875 32.078125 64.796875 
z
M 9.8125 72.90625 
L 32.078125 72.90625 
Q 44.34375 72.90625 50.609375 67.359375 
Q 56.890625 61.8125 56.890625 51.125 
Q 56.890625 40.328125 50.609375 34.8125 
Q 44.34375 29.296875 32.078125 29.296875 
L 19.671875 29.296875 
L 19.671875 0 
L 9.8125 0 
z
" id="DejaVuSans-80"/>
     <path d="M 53.515625 70.515625 
L 53.515625 60.890625 
Q 47.90625 63.578125 42.921875 64.890625 
Q 37.9375 66.21875 33.296875 66.21875 
Q 25.25 66.21875 20.875 63.09375 
Q 16.5 59.96875 16.5 54.203125 
Q 16.5 49.359375 19.40625 46.890625 
Q 22.3125 44.4375 30.421875 42.921875 
L 36.375 41.703125 
Q 47.40625 39.59375 52.65625 34.296875 
Q 57.90625 29 57.90625 20.125 
Q 57.90625 9.515625 50.796875 4.046875 
Q 43.703125 -1.421875 29.984375 -1.421875 
Q 24.8125 -1.421875 18.96875 -0.25 
Q 13.140625 0.921875 6.890625 3.21875 
L 6.890625 13.375 
Q 12.890625 10.015625 18.65625 8.296875 
Q 24.421875 6.59375 29.984375 6.59375 
Q 38.421875 6.59375 43.015625 9.90625 
Q 47.609375 13.234375 47.609375 19.390625 
Q 47.609375 24.75 44.3125 27.78125 
Q 41.015625 30.8125 33.5 32.328125 
L 27.484375 33.5 
Q 16.453125 35.6875 11.515625 40.375 
Q 6.59375 45.0625 6.59375 53.421875 
Q 6.59375 63.09375 13.40625 68.65625 
Q 20.21875 74.21875 32.171875 74.21875 
Q 37.3125 74.21875 42.625 73.28125 
Q 47.953125 72.359375 53.515625 70.515625 
z
" id="DejaVuSans-83"/>
     <path d="M 19.671875 34.8125 
L 19.671875 8.109375 
L 35.5 8.109375 
Q 43.453125 8.109375 47.28125 11.40625 
Q 51.125 14.703125 51.125 21.484375 
Q 51.125 28.328125 47.28125 31.5625 
Q 43.453125 34.8125 35.5 34.8125 
z
M 19.671875 64.796875 
L 19.671875 42.828125 
L 34.28125 42.828125 
Q 41.5 42.828125 45.03125 45.53125 
Q 48.578125 48.25 48.578125 53.8125 
Q 48.578125 59.328125 45.03125 62.0625 
Q 41.5 64.796875 34.28125 64.796875 
z
M 9.8125 72.90625 
L 35.015625 72.90625 
Q 46.296875 72.90625 52.390625 68.21875 
Q 58.5 63.53125 58.5 54.890625 
Q 58.5 48.1875 55.375 44.234375 
Q 52.25 40.28125 46.1875 39.3125 
Q 53.46875 37.75 57.5 32.78125 
Q 61.53125 27.828125 61.53125 20.40625 
Q 61.53125 10.640625 54.890625 5.3125 
Q 48.25 0 35.984375 0 
L 9.8125 0 
z
" id="DejaVuSans-66"/>
     <path d="M 8.5 21.578125 
L 8.5 54.6875 
L 17.484375 54.6875 
L 17.484375 21.921875 
Q 17.484375 14.15625 20.5 10.265625 
Q 23.53125 6.390625 29.59375 6.390625 
Q 36.859375 6.390625 41.078125 11.03125 
Q 45.3125 15.671875 45.3125 23.6875 
L 45.3125 54.6875 
L 54.296875 54.6875 
L 54.296875 0 
L 45.3125 0 
L 45.3125 8.40625 
Q 42.046875 3.421875 37.71875 1 
Q 33.40625 -1.421875 27.6875 -1.421875 
Q 18.265625 -1.421875 13.375 4.4375 
Q 8.5 10.296875 8.5 21.578125 
z
M 31.109375 56 
z
" id="DejaVuSans-117"/>
     <path d="M 52 44.1875 
Q 55.375 50.25 60.0625 53.125 
Q 64.75 56 71.09375 56 
Q 79.640625 56 84.28125 50.015625 
Q 88.921875 44.046875 88.921875 33.015625 
L 88.921875 0 
L 79.890625 0 
L 79.890625 32.71875 
Q 79.890625 40.578125 77.09375 44.375 
Q 74.3125 48.1875 68.609375 48.1875 
Q 61.625 48.1875 57.5625 43.546875 
Q 53.515625 38.921875 53.515625 30.90625 
L 53.515625 0 
L 44.484375 0 
L 44.484375 32.71875 
Q 44.484375 40.625 41.703125 44.40625 
Q 38.921875 48.1875 33.109375 48.1875 
Q 26.21875 48.1875 22.15625 43.53125 
Q 18.109375 38.875 18.109375 30.90625 
L 18.109375 0 
L 9.078125 0 
L 9.078125 54.6875 
L 18.109375 54.6875 
L 18.109375 46.1875 
Q 21.1875 51.21875 25.484375 53.609375 
Q 29.78125 56 35.6875 56 
Q 41.65625 56 45.828125 52.96875 
Q 50 49.953125 52 44.1875 
z
" id="DejaVuSans-109"/>
     <path d="M 18.109375 8.203125 
L 18.109375 -20.796875 
L 9.078125 -20.796875 
L 9.078125 54.6875 
L 18.109375 54.6875 
L 18.109375 46.390625 
Q 20.953125 51.265625 25.265625 53.625 
Q 29.59375 56 35.59375 56 
Q 45.5625 56 51.78125 48.09375 
Q 58.015625 40.1875 58.015625 27.296875 
Q 58.015625 14.40625 51.78125 6.484375 
Q 45.5625 -1.421875 35.59375 -1.421875 
Q 29.59375 -1.421875 25.265625 0.953125 
Q 20.953125 3.328125 18.109375 8.203125 
z
M 48.6875 27.296875 
Q 48.6875 37.203125 44.609375 42.84375 
Q 40.53125 48.484375 33.40625 48.484375 
Q 26.265625 48.484375 22.1875 42.84375 
Q 18.109375 37.203125 18.109375 27.296875 
Q 18.109375 17.390625 22.1875 11.75 
Q 26.265625 6.109375 33.40625 6.109375 
Q 40.53125 6.109375 44.609375 11.75 
Q 48.6875 17.390625 48.6875 27.296875 
z
" id="DejaVuSans-112"/>
     <path d="M -0.296875 72.90625 
L 61.375 72.90625 
L 61.375 64.59375 
L 35.5 64.59375 
L 35.5 0 
L 25.59375 0 
L 25.59375 64.59375 
L -0.296875 64.59375 
z
" id="DejaVuSans-84"/>
     <path d="M 44.28125 53.078125 
L 44.28125 44.578125 
Q 40.484375 46.53125 36.375 47.5 
Q 32.28125 48.484375 27.875 48.484375 
Q 21.1875 48.484375 17.84375 46.4375 
Q 14.5 44.390625 14.5 40.28125 
Q 14.5 37.15625 16.890625 35.375 
Q 19.28125 33.59375 26.515625 31.984375 
L 29.59375 31.296875 
Q 39.15625 29.25 43.1875 25.515625 
Q 47.21875 21.78125 47.21875 15.09375 
Q 47.21875 7.46875 41.1875 3.015625 
Q 35.15625 -1.421875 24.609375 -1.421875 
Q 20.21875 -1.421875 15.453125 -0.5625 
Q 10.6875 0.296875 5.421875 2 
L 5.421875 11.28125 
Q 10.40625 8.6875 15.234375 7.390625 
Q 20.0625 6.109375 24.8125 6.109375 
Q 31.15625 6.109375 34.5625 8.28125 
Q 37.984375 10.453125 37.984375 14.40625 
Q 37.984375 18.0625 35.515625 20.015625 
Q 33.0625 21.96875 24.703125 23.78125 
L 21.578125 24.515625 
Q 13.234375 26.265625 9.515625 29.90625 
Q 5.8125 33.546875 5.8125 39.890625 
Q 5.8125 47.609375 11.28125 51.796875 
Q 16.75 56 26.8125 56 
Q 31.78125 56 36.171875 55.265625 
Q 40.578125 54.546875 44.28125 53.078125 
z
" id="DejaVuSans-115"/>
     <path d="M 10.59375 45.40625 
L 73.1875 45.40625 
L 73.1875 37.203125 
L 10.59375 37.203125 
z
M 10.59375 25.484375 
L 73.1875 25.484375 
L 73.1875 17.1875 
L 10.59375 17.1875 
z
" id="DejaVuSans-61"/>
     <path d="M 4.890625 31.390625 
L 31.203125 31.390625 
L 31.203125 23.390625 
L 4.890625 23.390625 
z
" id="DejaVuSans-45"/>
     <path d="M 39.40625 66.21875 
Q 28.65625 66.21875 22.328125 58.203125 
Q 16.015625 50.203125 16.015625 36.375 
Q 16.015625 22.609375 22.328125 14.59375 
Q 28.65625 6.59375 39.40625 6.59375 
Q 50.140625 6.59375 56.421875 14.59375 
Q 62.703125 22.609375 62.703125 36.375 
Q 62.703125 50.203125 56.421875 58.203125 
Q 50.140625 66.21875 39.40625 66.21875 
z
M 39.40625 74.21875 
Q 54.734375 74.21875 63.90625 63.9375 
Q 73.09375 53.65625 73.09375 36.375 
Q 73.09375 19.140625 63.90625 8.859375 
Q 54.734375 -1.421875 39.40625 -1.421875 
Q 24.03125 -1.421875 14.8125 8.828125 
Q 5.609375 19.09375 5.609375 36.375 
Q 5.609375 53.65625 14.8125 63.9375 
Q 24.03125 74.21875 39.40625 74.21875 
z
" id="DejaVuSans-79"/>
     <path d="M 48.6875 27.296875 
Q 48.6875 37.203125 44.609375 42.84375 
Q 40.53125 48.484375 33.40625 48.484375 
Q 26.265625 48.484375 22.1875 42.84375 
Q 18.109375 37.203125 18.109375 27.296875 
Q 18.109375 17.390625 22.1875 11.75 
Q 26.265625 6.109375 33.40625 6.109375 
Q 40.53125 6.109375 44.609375 11.75 
Q 48.6875 17.390625 48.6875 27.296875 
z
M 18.109375 46.390625 
Q 20.953125 51.265625 25.265625 53.625 
Q 29.59375 56 35.59375 56 
Q 45.5625 56 51.78125 48.09375 
Q 58.015625 40.1875 58.015625 27.296875 
Q 58.015625 14.40625 51.78125 6.484375 
Q 45.5625 -1.421875 35.59375 -1.421875 
Q 29.59375 -1.421875 25.265625 0.953125 
Q 20.953125 3.328125 18.109375 8.203125 
L 18.109375 0 
L 9.078125 0 
L 9.078125 75.984375 
L 18.109375 75.984375 
z
" id="DejaVuSans-98"/>
     <path d="M 9.421875 54.6875 
L 18.40625 54.6875 
L 18.40625 -0.984375 
Q 18.40625 -11.421875 14.421875 -16.109375 
Q 10.453125 -20.796875 1.609375 -20.796875 
L -1.8125 -20.796875 
L -1.8125 -13.1875 
L 0.59375 -13.1875 
Q 5.71875 -13.1875 7.5625 -10.8125 
Q 9.421875 -8.453125 9.421875 -0.984375 
z
M 9.421875 75.984375 
L 18.40625 75.984375 
L 18.40625 64.59375 
L 9.421875 64.59375 
z
" id="DejaVuSans-106"/>
     <path d="M 48.78125 52.59375 
L 48.78125 44.1875 
Q 44.96875 46.296875 41.140625 47.34375 
Q 37.3125 48.390625 33.40625 48.390625 
Q 24.65625 48.390625 19.8125 42.84375 
Q 14.984375 37.3125 14.984375 27.296875 
Q 14.984375 17.28125 19.8125 11.734375 
Q 24.65625 6.203125 33.40625 6.203125 
Q 37.3125 6.203125 41.140625 7.25 
Q 44.96875 8.296875 48.78125 10.40625 
L 48.78125 2.09375 
Q 45.015625 0.34375 40.984375 -0.53125 
Q 36.96875 -1.421875 32.421875 -1.421875 
Q 20.0625 -1.421875 12.78125 6.34375 
Q 5.515625 14.109375 5.515625 27.296875 
Q 5.515625 40.671875 12.859375 48.328125 
Q 20.21875 56 33.015625 56 
Q 37.15625 56 41.109375 55.140625 
Q 45.0625 54.296875 48.78125 52.59375 
z
" id="DejaVuSans-99"/>
     <path d="M 2.984375 54.6875 
L 12.5 54.6875 
L 29.59375 8.796875 
L 46.6875 54.6875 
L 56.203125 54.6875 
L 35.6875 0 
L 23.484375 0 
z
" id="DejaVuSans-118"/>
     <path d="M 9.8125 72.90625 
L 51.703125 72.90625 
L 51.703125 64.59375 
L 19.671875 64.59375 
L 19.671875 43.109375 
L 48.578125 43.109375 
L 48.578125 34.8125 
L 19.671875 34.8125 
L 19.671875 0 
L 9.8125 0 
z
" id="DejaVuSans-70"/>
     <path d="M 28.609375 0 
L 0.78125 72.90625 
L 11.078125 72.90625 
L 34.1875 11.53125 
L 57.328125 72.90625 
L 67.578125 72.90625 
L 39.796875 0 
z
" id="DejaVuSans-86"/>
     <path d="M 9.421875 75.984375 
L 18.40625 75.984375 
L 18.40625 0 
L 9.421875 0 
z
" id="DejaVuSans-108"/>
     <path d="M 4.203125 54.6875 
L 13.1875 54.6875 
L 24.421875 12.015625 
L 35.59375 54.6875 
L 46.1875 54.6875 
L 57.421875 12.015625 
L 68.609375 54.6875 
L 77.59375 54.6875 
L 63.28125 0 
L 52.6875 0 
L 40.921875 44.828125 
L 29.109375 0 
L 18.5 0 
z
" id="DejaVuSans-119"/>
     <path d="M 25.390625 72.90625 
L 33.6875 72.90625 
L 8.296875 -9.28125 
L 0 -9.28125 
z
" id="DejaVuSans-47"/>
     <path d="M 39.40625 66.21875 
Q 28.65625 66.21875 22.328125 58.203125 
Q 16.015625 50.203125 16.015625 36.375 
Q 16.015625 22.609375 22.328125 14.59375 
Q 28.65625 6.59375 39.40625 6.59375 
Q 50.140625 6.59375 56.421875 14.59375 
Q 62.703125 22.609375 62.703125 36.375 
Q 62.703125 50.203125 56.421875 58.203125 
Q 50.140625 66.21875 39.40625 66.21875 
z
M 53.21875 1.3125 
L 66.21875 -12.890625 
L 54.296875 -12.890625 
L 43.5 -1.21875 
Q 41.890625 -1.3125 41.03125 -1.359375 
Q 40.1875 -1.421875 39.40625 -1.421875 
Q 24.03125 -1.421875 14.8125 8.859375 
Q 5.609375 19.140625 5.609375 36.375 
Q 5.609375 53.65625 14.8125 63.9375 
Q 24.03125 74.21875 39.40625 74.21875 
Q 54.734375 74.21875 63.90625 63.9375 
Q 73.09375 53.65625 73.09375 36.375 
Q 73.09375 23.6875 67.984375 14.640625 
Q 62.890625 5.609375 53.21875 1.3125 
z
" id="DejaVuSans-81"/>
     <path d="M 45.40625 46.390625 
L 45.40625 75.984375 
L 54.390625 75.984375 
L 54.390625 0 
L 45.40625 0 
L 45.40625 8.203125 
Q 42.578125 3.328125 38.25 0.953125 
Q 33.9375 -1.421875 27.875 -1.421875 
Q 17.96875 -1.421875 11.734375 6.484375 
Q 5.515625 14.40625 5.515625 27.296875 
Q 5.515625 40.1875 11.734375 48.09375 
Q 17.96875 56 27.875 56 
Q 33.9375 56 38.25 53.625 
Q 42.578125 51.265625 45.40625 46.390625 
z
M 14.796875 27.296875 
Q 14.796875 17.390625 18.875 11.75 
Q 22.953125 6.109375 30.078125 6.109375 
Q 37.203125 6.109375 41.296875 11.75 
Q 45.40625 17.390625 45.40625 27.296875 
Q 45.40625 37.203125 41.296875 42.84375 
Q 37.203125 48.484375 30.078125 48.484375 
Q 22.953125 48.484375 18.875 42.84375 
Q 14.796875 37.203125 14.796875 27.296875 
z
" id="DejaVuSans-100"/>
     <path d="M 32.171875 -5.078125 
Q 28.375 -14.84375 24.75 -17.8125 
Q 21.140625 -20.796875 15.09375 -20.796875 
L 7.90625 -20.796875 
L 7.90625 -13.28125 
L 13.1875 -13.28125 
Q 16.890625 -13.28125 18.9375 -11.515625 
Q 21 -9.765625 23.484375 -3.21875 
L 25.09375 0.875 
L 2.984375 54.6875 
L 12.5 54.6875 
L 29.59375 11.921875 
L 46.6875 54.6875 
L 56.203125 54.6875 
z
" id="DejaVuSans-121"/>
     <path d="M 9.8125 72.90625 
L 23.09375 72.90625 
L 55.421875 11.921875 
L 55.421875 72.90625 
L 64.984375 72.90625 
L 64.984375 0 
L 51.703125 0 
L 19.390625 60.984375 
L 19.390625 0 
L 9.8125 0 
z
" id="DejaVuSans-78"/>
    </defs>
    <g transform="translate(461.254687 78.9312)scale(0.12 -0.12)">
     <use xlink:href="#DejaVuSans-80"/>
     <use x="60.302734" xlink:href="#DejaVuSans-83"/>
     <use x="123.779297" xlink:href="#DejaVuSans-52"/>
     <use x="187.402344" xlink:href="#DejaVuSans-32"/>
     <use x="219.189453" xlink:href="#DejaVuSans-66"/>
     <use x="287.792969" xlink:href="#DejaVuSans-117"/>
     <use x="351.171875" xlink:href="#DejaVuSans-109"/>
     <use x="448.583984" xlink:href="#DejaVuSans-112"/>
     <use x="512.060547" xlink:href="#DejaVuSans-32"/>
     <use x="543.847656" xlink:href="#DejaVuSans-84"/>
     <use x="587.931641" xlink:href="#DejaVuSans-101"/>
     <use x="649.455078" xlink:href="#DejaVuSans-115"/>
     <use x="701.554688" xlink:href="#DejaVuSans-116"/>
     <use x="740.763672" xlink:href="#DejaVuSans-32"/>
     <use x="772.550781" xlink:href="#DejaVuSans-110"/>
     <use x="835.929688" xlink:href="#DejaVuSans-61"/>
     <use x="919.71875" xlink:href="#DejaVuSans-50"/>
     <use x="983.341797" xlink:href="#DejaVuSans-48"/>
     <use x="1046.964844" xlink:href="#DejaVuSans-32"/>
     <use x="1078.751953" xlink:href="#DejaVuSans-45"/>
     <use x="1114.835938" xlink:href="#DejaVuSans-32"/>
     <use x="1146.623047" xlink:href="#DejaVuSans-79"/>
     <use x="1225.333984" xlink:href="#DejaVuSans-98"/>
     <use x="1288.810547" xlink:href="#DejaVuSans-106"/>
     <use x="1316.59375" xlink:href="#DejaVuSans-101"/>
     <use x="1378.117188" xlink:href="#DejaVuSans-99"/>
     <use x="1433.097656" xlink:href="#DejaVuSans-116"/>
     <use x="1472.306641" xlink:href="#DejaVuSans-105"/>
     <use x="1500.089844" xlink:href="#DejaVuSans-118"/>
     <use x="1559.269531" xlink:href="#DejaVuSans-101"/>
     <use x="1620.792969" xlink:href="#DejaVuSans-32"/>
     <use x="1652.580078" xlink:href="#DejaVuSans-70"/>
     <use x="1704.599609" xlink:href="#DejaVuSans-117"/>
     <use x="1767.978516" xlink:href="#DejaVuSans-110"/>
     <use x="1831.357422" xlink:href="#DejaVuSans-99"/>
     <use x="1886.337891" xlink:href="#DejaVuSans-46"/>
     <use x="1918.125" xlink:href="#DejaVuSans-32"/>
     <use x="1949.912109" xlink:href="#DejaVuSans-86"/>
     <use x="2010.570312" xlink:href="#DejaVuSans-97"/>
     <use x="2071.849609" xlink:href="#DejaVuSans-108"/>
     <use x="2099.632812" xlink:href="#DejaVuSans-32"/>
     <use x="2131.419922" xlink:href="#DejaVuSans-40"/>
     <use x="2170.433594" xlink:href="#DejaVuSans-119"/>
     <use x="2252.220703" xlink:href="#DejaVuSans-47"/>
     <use x="2285.912109" xlink:href="#DejaVuSans-32"/>
     <use x="2317.699219" xlink:href="#DejaVuSans-81"/>
     <use x="2396.410156" xlink:href="#DejaVuSans-117"/>
     <use x="2459.789062" xlink:href="#DejaVuSans-97"/>
     <use x="2521.068359" xlink:href="#DejaVuSans-100"/>
     <use x="2584.544922" xlink:href="#DejaVuSans-46"/>
     <use x="2616.332031" xlink:href="#DejaVuSans-32"/>
     <use x="2648.119141" xlink:href="#DejaVuSans-80"/>
     <use x="2704.796875" xlink:href="#DejaVuSans-101"/>
     <use x="2766.320312" xlink:href="#DejaVuSans-110"/>
     <use x="2829.699219" xlink:href="#DejaVuSans-97"/>
     <use x="2890.978516" xlink:href="#DejaVuSans-108"/>
     <use x="2918.761719" xlink:href="#DejaVuSans-116"/>
     <use x="2957.970703" xlink:href="#DejaVuSans-121"/>
     <use x="3017.150391" xlink:href="#DejaVuSans-41"/>
     <use x="3056.164062" xlink:href="#DejaVuSans-32"/>
     <use x="3087.951172" xlink:href="#DejaVuSans-118"/>
     <use x="3147.130859" xlink:href="#DejaVuSans-115"/>
     <use x="3199.230469" xlink:href="#DejaVuSans-46"/>
     <use x="3231.017578" xlink:href="#DejaVuSans-32"/>
     <use x="3262.804688" xlink:href="#DejaVuSans-73"/>
     <use x="3292.296875" xlink:href="#DejaVuSans-116"/>
     <use x="3331.505859" xlink:href="#DejaVuSans-101"/>
     <use x="3393.029297" xlink:href="#DejaVuSans-114"/>
     <use x="3434.142578" xlink:href="#DejaVuSans-97"/>
     <use x="3495.421875" xlink:href="#DejaVuSans-116"/>
     <use x="3534.630859" xlink:href="#DejaVuSans-105"/>
     <use x="3562.414062" xlink:href="#DejaVuSans-111"/>
     <use x="3623.595703" xlink:href="#DejaVuSans-110"/>
     <use x="3686.974609" xlink:href="#DejaVuSans-32"/>
     <use x="3718.761719" xlink:href="#DejaVuSans-78"/>
     <use x="3793.566406" xlink:href="#DejaVuSans-117"/>
     <use x="3856.945312" xlink:href="#DejaVuSans-109"/>
     <use x="3954.357422" xlink:href="#DejaVuSans-98"/>
     <use x="4017.833984" xlink:href="#DejaVuSans-101"/>
     <use x="4079.357422" xlink:href="#DejaVuSans-114"/>
    </g>
   </g>
   <g id="legend_1">
    <g id="patch_7">
     <path d="M 1000.455312 122.28745 
L 1237.16 122.28745 
Q 1239.16 122.28745 1239.16 120.28745 
L 1239.16 91.9312 
Q 1239.16 89.9312 1237.16 89.9312 
L 1000.455312 89.9312 
Q 998.455312 89.9312 998.455312 91.9312 
L 998.455312 120.28745 
Q 998.455312 122.28745 1000.455312 122.28745 
z
" style="fill:#ffffff;opacity:0.8;stroke:#cccccc;stroke-linejoin:miter;"/>
    </g>
    <g id="line2d_101">
     <path d="M 1002.455312 98.029638 
L 1022.455312 98.029638 
" style="fill:none;stroke:#1f77b4;stroke-linecap:square;stroke-width:1.5;"/>
    </g>
    <g id="line2d_102"/>
    <g id="text_16">
     <!-- Method: PSO Hybrid, Mean: -0.58448281 -->
     <defs>
      <path d="M 9.8125 72.90625 
L 24.515625 72.90625 
L 43.109375 23.296875 
L 61.8125 72.90625 
L 76.515625 72.90625 
L 76.515625 0 
L 66.890625 0 
L 66.890625 64.015625 
L 48.09375 14.015625 
L 38.1875 14.015625 
L 19.390625 64.015625 
L 19.390625 0 
L 9.8125 0 
z
" id="DejaVuSans-77"/>
      <path d="M 54.890625 33.015625 
L 54.890625 0 
L 45.90625 0 
L 45.90625 32.71875 
Q 45.90625 40.484375 42.875 44.328125 
Q 39.84375 48.1875 33.796875 48.1875 
Q 26.515625 48.1875 22.3125 43.546875 
Q 18.109375 38.921875 18.109375 30.90625 
L 18.109375 0 
L 9.078125 0 
L 9.078125 75.984375 
L 18.109375 75.984375 
L 18.109375 46.1875 
Q 21.34375 51.125 25.703125 53.5625 
Q 30.078125 56 35.796875 56 
Q 45.21875 56 50.046875 50.171875 
Q 54.890625 44.34375 54.890625 33.015625 
z
" id="DejaVuSans-104"/>
      <path d="M 11.71875 12.40625 
L 22.015625 12.40625 
L 22.015625 0 
L 11.71875 0 
z
M 11.71875 51.703125 
L 22.015625 51.703125 
L 22.015625 39.3125 
L 11.71875 39.3125 
z
" id="DejaVuSans-58"/>
      <path d="M 9.8125 72.90625 
L 19.671875 72.90625 
L 19.671875 43.015625 
L 55.515625 43.015625 
L 55.515625 72.90625 
L 65.375 72.90625 
L 65.375 0 
L 55.515625 0 
L 55.515625 34.71875 
L 19.671875 34.71875 
L 19.671875 0 
L 9.8125 0 
z
" id="DejaVuSans-72"/>
     </defs>
     <g transform="translate(1030.455312 101.529638)scale(0.1 -0.1)">
      <use xlink:href="#DejaVuSans-77"/>
      <use x="86.279297" xlink:href="#DejaVuSans-101"/>
      <use x="147.802734" xlink:href="#DejaVuSans-116"/>
      <use x="187.011719" xlink:href="#DejaVuSans-104"/>
      <use x="250.390625" xlink:href="#DejaVuSans-111"/>
      <use x="311.572266" xlink:href="#DejaVuSans-100"/>
      <use x="375.048828" xlink:href="#DejaVuSans-58"/>
      <use x="408.740234" xlink:href="#DejaVuSans-32"/>
      <use x="440.527344" xlink:href="#DejaVuSans-80"/>
      <use x="500.830078" xlink:href="#DejaVuSans-83"/>
      <use x="564.306641" xlink:href="#DejaVuSans-79"/>
      <use x="643.017578" xlink:href="#DejaVuSans-32"/>
      <use x="674.804688" xlink:href="#DejaVuSans-72"/>
      <use x="750" xlink:href="#DejaVuSans-121"/>
      <use x="809.179688" xlink:href="#DejaVuSans-98"/>
      <use x="872.65625" xlink:href="#DejaVuSans-114"/>
      <use x="913.769531" xlink:href="#DejaVuSans-105"/>
      <use x="941.552734" xlink:href="#DejaVuSans-100"/>
      <use x="1005.029297" xlink:href="#DejaVuSans-44"/>
      <use x="1036.816406" xlink:href="#DejaVuSans-32"/>
      <use x="1068.603516" xlink:href="#DejaVuSans-77"/>
      <use x="1154.882812" xlink:href="#DejaVuSans-101"/>
      <use x="1216.40625" xlink:href="#DejaVuSans-97"/>
      <use x="1277.685547" xlink:href="#DejaVuSans-110"/>
      <use x="1341.064453" xlink:href="#DejaVuSans-58"/>
      <use x="1374.755859" xlink:href="#DejaVuSans-32"/>
      <use x="1406.542969" xlink:href="#DejaVuSans-45"/>
      <use x="1442.626953" xlink:href="#DejaVuSans-48"/>
      <use x="1506.25" xlink:href="#DejaVuSans-46"/>
      <use x="1538.037109" xlink:href="#DejaVuSans-53"/>
      <use x="1601.660156" xlink:href="#DejaVuSans-56"/>
      <use x="1665.283203" xlink:href="#DejaVuSans-52"/>
      <use x="1728.90625" xlink:href="#DejaVuSans-52"/>
      <use x="1792.529297" xlink:href="#DejaVuSans-56"/>
      <use x="1856.152344" xlink:href="#DejaVuSans-50"/>
      <use x="1919.775391" xlink:href="#DejaVuSans-56"/>
      <use x="1983.398438" xlink:href="#DejaVuSans-49"/>
     </g>
    </g>
    <g id="line2d_103">
     <path d="M 1002.455312 112.707763 
L 1022.455312 112.707763 
" style="fill:none;stroke:#ff7f0e;stroke-linecap:square;stroke-width:1.5;"/>
    </g>
    <g id="line2d_104"/>
    <g id="text_17">
     <!-- Method: PSO, Mean: -0.56699021 -->
     <defs>
      <path d="M 10.984375 1.515625 
L 10.984375 10.5 
Q 14.703125 8.734375 18.5 7.8125 
Q 22.3125 6.890625 25.984375 6.890625 
Q 35.75 6.890625 40.890625 13.453125 
Q 46.046875 20.015625 46.78125 33.40625 
Q 43.953125 29.203125 39.59375 26.953125 
Q 35.25 24.703125 29.984375 24.703125 
Q 19.046875 24.703125 12.671875 31.3125 
Q 6.296875 37.9375 6.296875 49.421875 
Q 6.296875 60.640625 12.9375 67.421875 
Q 19.578125 74.21875 30.609375 74.21875 
Q 43.265625 74.21875 49.921875 64.515625 
Q 56.59375 54.828125 56.59375 36.375 
Q 56.59375 19.140625 48.40625 8.859375 
Q 40.234375 -1.421875 26.421875 -1.421875 
Q 22.703125 -1.421875 18.890625 -0.6875 
Q 15.09375 0.046875 10.984375 1.515625 
z
M 30.609375 32.421875 
Q 37.25 32.421875 41.125 36.953125 
Q 45.015625 41.5 45.015625 49.421875 
Q 45.015625 57.28125 41.125 61.84375 
Q 37.25 66.40625 30.609375 66.40625 
Q 23.96875 66.40625 20.09375 61.84375 
Q 16.21875 57.28125 16.21875 49.421875 
Q 16.21875 41.5 20.09375 36.953125 
Q 23.96875 32.421875 30.609375 32.421875 
z
" id="DejaVuSans-57"/>
     </defs>
     <g transform="translate(1030.455312 116.207763)scale(0.1 -0.1)">
      <use xlink:href="#DejaVuSans-77"/>
      <use x="86.279297" xlink:href="#DejaVuSans-101"/>
      <use x="147.802734" xlink:href="#DejaVuSans-116"/>
      <use x="187.011719" xlink:href="#DejaVuSans-104"/>
      <use x="250.390625" xlink:href="#DejaVuSans-111"/>
      <use x="311.572266" xlink:href="#DejaVuSans-100"/>
      <use x="375.048828" xlink:href="#DejaVuSans-58"/>
      <use x="408.740234" xlink:href="#DejaVuSans-32"/>
      <use x="440.527344" xlink:href="#DejaVuSans-80"/>
      <use x="500.830078" xlink:href="#DejaVuSans-83"/>
      <use x="564.306641" xlink:href="#DejaVuSans-79"/>
      <use x="643.017578" xlink:href="#DejaVuSans-44"/>
      <use x="674.804688" xlink:href="#DejaVuSans-32"/>
      <use x="706.591797" xlink:href="#DejaVuSans-77"/>
      <use x="792.871094" xlink:href="#DejaVuSans-101"/>
      <use x="854.394531" xlink:href="#DejaVuSans-97"/>
      <use x="915.673828" xlink:href="#DejaVuSans-110"/>
      <use x="979.052734" xlink:href="#DejaVuSans-58"/>
      <use x="1012.744141" xlink:href="#DejaVuSans-32"/>
      <use x="1044.53125" xlink:href="#DejaVuSans-45"/>
      <use x="1080.615234" xlink:href="#DejaVuSans-48"/>
      <use x="1144.238281" xlink:href="#DejaVuSans-46"/>
      <use x="1176.025391" xlink:href="#DejaVuSans-53"/>
      <use x="1239.648438" xlink:href="#DejaVuSans-54"/>
      <use x="1303.271484" xlink:href="#DejaVuSans-54"/>
      <use x="1366.894531" xlink:href="#DejaVuSans-57"/>
      <use x="1430.517578" xlink:href="#DejaVuSans-57"/>
      <use x="1494.140625" xlink:href="#DejaVuSans-48"/>
      <use x="1557.763672" xlink:href="#DejaVuSans-50"/>
      <use x="1621.386719" xlink:href="#DejaVuSans-49"/>
     </g>
    </g>
   </g>
  </g>
 </g>
 <defs>
  <clipPath id="p5c7ce8ed74">
   <rect height="544.9752" width="1071.36" x="172.8" y="84.9312"/>
  </clipPath>
 </defs>
</svg>
